<mxfile host="app.diagrams.net" modified="2021-04-20T13:10:28.924Z" agent="5.0 (Windows NT 10.0; Win64; x64) AppleWebKit/537.36 (KHTML, like Gecko) Chrome/89.0.4389.128 Safari/537.36 Edg/89.0.774.77" etag="d2jtoQxHY4vo-8dMdmuz" version="14.6.3" type="github">
  <diagram id="RPd095ZLrXxFqjDa1BfR" name="Page-1">
    <mxGraphModel dx="794" dy="1106" grid="1" gridSize="10" guides="1" tooltips="1" connect="1" arrows="1" fold="1" page="1" pageScale="1" pageWidth="850" pageHeight="1100" math="0" shadow="0">
      <root>
        <mxCell id="0" />
        <mxCell id="1" parent="0" />
        <mxCell id="NBOFakv1QSHkQPqulemf-1" value="" style="aspect=fixed;html=1;points=[];align=center;image;fontSize=12;image=img/lib/azure2/compute/VM_Scale_Sets.svg;" vertex="1" parent="1">
          <mxGeometry x="425" y="250" width="68" height="68" as="geometry" />
        </mxCell>
        <mxCell id="NBOFakv1QSHkQPqulemf-2" value="" style="aspect=fixed;html=1;points=[];align=center;image;fontSize=12;image=img/lib/azure2/compute/VM_Scale_Sets.svg;" vertex="1" parent="1">
          <mxGeometry x="425" y="440" width="68" height="68" as="geometry" />
        </mxCell>
        <mxCell id="NBOFakv1QSHkQPqulemf-3" value="" style="aspect=fixed;html=1;points=[];align=center;image;fontSize=12;image=img/lib/azure2/compute/Images.svg;" vertex="1" parent="1">
          <mxGeometry x="310" y="690" width="43.13" height="40" as="geometry" />
        </mxCell>
        <mxCell id="NBOFakv1QSHkQPqulemf-5" value="" style="shape=image;verticalLabelPosition=bottom;labelBackgroundColor=#ffffff;verticalAlign=top;aspect=fixed;imageAspect=0;image=data:image/png,iVBORw0KGgoAAAANSUhEUgAAAcIAAAEsCAYAAABQVrO3AAAgAElEQVR4Aey9Z3BTyfvveV/svrhVu6+3tvbWfXPv1t7/zDDDL/0HTJphZpicEzADMzDkzJCDjcHGYBvjnHPOWbaVZcmSJecgyznnbJwxBr5b3bIcFJww8wOrT5VLsnR0Tven+/S3w/M8/V/ADkaAEWAEGAFGwIwJ/BczzjvLOiPACDACjAAjACaErBIwAowAI8AImDUBJoRmXfws84wAI8AIMAJMCFkdYAQYAUaAETBrAkwIzbr4WeYZAUaAEWAEmBCyOsAIMAKMACNg1gSYEJp18bPMMwKMACPACDAhZHWAEWAEGAFGwKwJMCE06+JnmWcEGAFGgBFgQsjqACPACDACjIBZE2BCaNbFzzLPCDACjAAjwISQ1QFGgBFgBBgBsybAhNCsi59lnhFgBBgBRoAJIasDjAAjwAgwAmZNgAmhWRc/yzwjwAgwAowAE0JWBxgBRoARYATMmgATQrMufpZ5RoARYAQYASaErA4wAowAI8AImDUBJoRmXfws84wAI8AIMAJMCFkdYAQYAUaAETBrAkwIzbr4WeYZAUaAEWAEmBCyOsAIMAKMACNg1gSYEJp18bPMMwKMACPACDAhZHWAEWAEGAFGwKwJMCE06+JnmWcEGAFGgBFgQsjqACPACDACjIBZE2BCaNbFzzLPCDACjAAjwISQ1QFGgBFgBBgBsybAhNCsi59lnhFgBBgBRoAJIasDjAAjwAgwAmZNgAmhWRc/yzwjwAgwAowAE0JWBxgBRoARYATMmgATQrMufpZ5RoARYAQYASaErA4wAowAI8AImDUBJoRmXfws84wAI8AIMAJMCFkdYAQYAUaAETBrAkwIzbr4WeYZAUaAEWAEmBCyOsAIMAKMACNg1gSYEJp18bPMMwKMACPACDAhZHWAEWAEGAFGwKwJMCE06+JnmWcEGAFGgBFgQsjqACPACDACjIBZE2BCaNbFzzLPCDACjAAjwISQ1QFGgBFgBBgBsybAhNCsi59lnhFgBBgBRoAJIasDjAAjwAgwAmZNgAmhWRc/yzwjwAgwAowAE0JWBxgBRoARYATMmgATQrMufpZ5RoARYAQYASaErA4wAowAI8AImDUBJoRmXfws84wAI8AIMAJMCFkdYAQYAUaAETBrAkwIzbr4WeYZAUaAEWAEmBCyOsAIMAKMACNg1gSYEJp18bPMMwKMACPACDAhZHWAEWAEGAFGwKwJMCE06+JnmWcEGAFGgBFgQsjqACPACDACjIBZE2BCaNbFzzLPCDACjAAjwISQ1QFGgBFgBBgBsybAhNCsi59lnhFgBBgBRoAJIasDjAAjwAgwAmZNgAmhWRc/yzwjwAgwAowAE0JWBxgBRoARYATMmgATQrMufpZ5RoARYAQYASaErA4wAowAI8AImDUBJoRmXfws84yAeRN4/vw5RoZHMDw8QkGMjozB5rY9cnJyMTAwaN5wzCj3TAjNqLBZVhkBRmAhgadPn4KTloXLFy0RH5eMDA4P7q6+OPLHSXz7zV6EhUWht7dv4Y/Yf+uOABPCdVekLEOMACOwEgLtbR349NPv8cXn3+PHH37BHwdP4o8Dp/Ddt3vx44+/4splK2Rl8DA09Ggll2XnvkYEmBC+RoXFksoIMAIvh0B//wDOnb2Cj3d9iYsXruL82auwvnUPR4+cxZ/nr+GBoxusrewgEUtBRpHsWF8EmBCur/JkuWEEGIFVEujt6cX+/Udx+uRF3LG+C8ubtnCwd8GRQ6dw7MhZBAWG4a6tA25Z2qG2pn6Vd2E/exUJMCF8FUuFpYkRYAT+UgIT4xOIjYrHwYMncOD3E3C0d0F0ZBx8fYIREBCBSxctceP6HcTGJMLfLwSnT13GQydPjI2N/6XpZDd7OQSYEL4cruyqjAAj8BoRINajyUkc7NjxKb78/EecPnUJnNRMlJep0dPdhScTo1Dl5sHXJwitzY3o6+1CaGgEFUR1eSWePn32GuWWJVWfABNCfSLsf0aAETBbAuHh0fh419c4eOA4fvx+Hx0JSoRiPJsmIz/iavEInW1NGBrqw9DgAPx8gnHi+AV4uvticnLSbLm97hlnQvi6lyBLPyPACKwpATcXLzpFet/OAWdPX8Lvv5+Cu7sf+vt60d3VjZ6ONpQUFsHO1hnVVdWYfjIJl4fuOHToDEqK1WuaFnaxv4YAE8K/hjO7CyPACLwmBGprauHi6ouEhFTIs7MREhQMJ+cAhIUnw9nJG33dnTQnPT09aKyvR0lRCcJCo5CUlIKHjq7gpPPx7BmbKn1Nipsmkwnh61RaLK2MACPw0glMTkzQqc6Df5xBSioXZSWlkImFkGbL0N7ejob6ejQ2NkEmy0VLYz3iYpLQ3NSIp9OTSEpMxbmzN2Bn+wDt7VrBfOkJZjd4YQJMCF8YIbsAI8AIrDcCLc2tOH/mEn7++SAsbzlCJJQAeIqhwT7ctnZEaGg00pJT8XhiHE+fTqO6qgpOTt7wcPMB8AzZ2TL8svcwNBXV6w3NuswPE8J1WawsU4wAI/AiBMjUZm5OLl0r/OjDr/Drr8ehys3HUE8r2pqbMPzoESo1FSgrLUZmBg8RodFQ5irR292KkUd9SE/jwtsrEA73nSDLloNYpbLj1SXAhPDVLRuWMkaAEfg3EmhpboOt7UMcOXoWe3f/hsSEJMTHJkClysezZ0+RlpIBpwfukEtlaK6vBZ6NoqK8BA+d3BEeGk6tTFubm7Fr1w9wc/FBX2//vzE37NaLEWBCuBgd9h0jwAiYLYH+vgGcPXMFly5bUR/DirISeLl74tjRsyhQ5aBKXY6R4WGMjjxCSlIiMtI4uH3bEfW1GjyfHoJYJIatzQOo1RWQSCQ4c+oSWppazJbnq5xxJoSvcumwtDECjMC/jQCZHg30D8Jnn34Ly5s2iIlNg0qZj7Ghdgh5GbC/54TO9g40NTZRC9NKTTnammrQ0daMxIRU3LO1h0SYQdOv0VTh6JE/cfLERTQ1MzH8txWqiRszITQBhn3MCDACjMCjR8O4ddMWe37ej092fYeQkCgAj8HN5FLfwbqqYni4eSExPoUazTwa7IefXxD8fYMw9XgUj0d74efji6PHLiA/rwilJaXUN1EgyMbU1BQD/IoQYEL4ihQESwYjwAi8mgSIX6G3lz/OnbmMX3b/hriYRDTW1eD59Bi1JE2Ij4WLiycK8/KQkkTWDT3pWmF3Rz38fINw9ZotutpqaOYG+gdw4thF/HHgGAL9Q5m/4StS5EwIX5GCYMlgBBiBV5MAcY8ICgylhjPBgZEQC0WQiCUQcPlQybPR16HdiUJdXobvvvsVnh6emH48Do26Ahcu3AQnNRmP+luRr1IiMTYJlZpKDA/1wfK6JQ78fpIF7n4Fip0J4StQCCwJjAAj8GoTyM8rwI7tn+LSJUsIeEJwuUJEhMeit7sD5cV5yM3mI0csRH5uLnq7OyGXinH9miVEfAEeDXZCLBLA1cUH7U3Er3Aa3V1dCPAPw7nT52B5wwadnd2vNoB1njomhOu8gFn2GAFG4MUJjI2OwfLGHez5eR9+/OFX3Lxujfr6BnphTnoW3Nx8kMVJhVQkwLMnYygtysf581fBzUjByKNuREXF4vTpi5gYH6a7V0SGx6CzvZ3+PidbDDsbB/R09754QtkVVkWACeGqsLEfMQKMgDkReP7sOY0huv+3o/ht/xEcPXwCMdFxkEpyUJyfj6mpxxRHdWUZzp65BDcXdzRUVwEYQ2F+Dn7//TS4mRx6TmYmDwH+IZgY6cVgfw+ePRlBZXkhIkKj0NHeZU5YX5m8MiF8ZYqCJYQRYAReZQKjoyM0Buk9O1fERMWjtqoCnDStU31pURFGh4eosIkEQtTX1aC8pAhB/iEQ8fmo1RQBmEKuNBuZGVkYGupGlboE3PQ0pCWno7urE0p5Dk6fOA+ZTPkqY1iXaWNCuC6LlWWKEWAEXgYBsgfhfTsnnDhxCVmcTNRWVyE6MoHuQKEpK0VIYDAkQgHwdBhD/W3UoZ7D4WBypBNNNWVQymUYGurC8KNOFOfnITOTi9TkVOSrCtDb24PgoBA6mhTyxS8j+eyaJggwITQBhn3MCDACjIAxAsVFxfj4o6/wx4HjsLayQ7ZIhumpSYyOjMDPNwRCnoBGneGkpSGLk47u1mpgqhMZ6UkIC4vA8+fTyBZnIy05GRnpHOTIFCgoKIJCoUJ5aRkKC/Jw9aoVkhPTWIxSYwXwEj5jQvgSoLJLMgKMwPolMD4+ASvLuzh+9Azu3b0HT09fuuZXlF+AXLkSI8MjmH4yRf0NoyJjoSkrRGmeFNlCDopUEjwe60ZsdDxiYlIhEoqRlpwCHleA+PhUKHMLkBCfhMuXr2P/vsPo7+1bvyBfoZwxIXyFCoMlhRFgBF4PAnKZgoZds7W5j9SkZBTm5aKirBjWt+yQlZGFSo0aYoEI6uICTD8eQn9PC7y9fJGSEIeBzlo8GuiEWCiBTKZCfW092lqaERuXitTULDQ1NMLdxQP37BwRHRWD1JTM1wPKa5xKJoSvceGxpDMCjMC/h8CjoSHERMfDxsYJPt7B6O1sgUohx7Vrt9Db046hwV7cs3Oia36VZUWoLCtASmISFFIhnj8ZoIYzzs5ecHnoStcNFXIFEhJSUFxUivIyDa5dvYWsDA7CQyOQkcFDS0srJiYm/z2ZNYO7MiE0g0JmWWQEGIG1J9DX3QOH+w44e/4Gda1Ql1WAk5qJgZ4uVKnVOHn8T3DSMzE5PoTuznooZDIoZFI0VhVhfKCV7nBfVV2HrvY2aMpLERIcgaqKCnR2dSM9IxtD/T2IiohGdaUGd20d4OjotvaZYFekBJgQsorACDACjMAqCajLSvDZJ1/jwG9HIREI8fzpGAb72lFfXY701DSIeAK0NNahrbkGAm4GpCIRujsaMNTbiNFHPUhKSoWIz8VQbwtUygIU5BehqaEeD5w8qQtGenoWXFx84evrj/z8QoyOjK4ypexnixFgQrgYHfYdI8AIMAKLEBgfH4ezsyf27TsKfx9/dLU3IiM9HeOjg5BJZYiPTcJgXye62puRmpyGhNg49HU2IjIsEqWFeUhNTkFcXDzqqtWQS4RQ5ipQX1OJ6zfuorCwAL7eAbC1dUBHezPu33uAkycvIkfO/AwXKZJVfcWEcFXY2I8YAUaAEdASaKitxUNnLzx08YdMmovMDD6a6iqRlpKK0JBQ4CkZxU0iKjIBSYnpAJ5gZGQE4yNDVBTDwmLouuD42DCqKmupT+IdmwdobmqCQCCFPEeOwvw87Nt3GLExcXSalKwZsmPtCDAhXDuW7EqMACNghgTGx8YQHxONI4dO4PLlmyjKJ5v39qCloRLcDA7Ki5VoqSsHl8MBn8tFR2szDcxN1gRLiwpQV1WOK1dtUF5aiJpKDXo6O+DtHYCE+GS0t7VBlp2D2NhE+PqGoLa6GqGhEbC9cx9dnSwc21pVNyaEa0WSXYcRYATMlsDE+Bjs7Rywe/dvuH/XHgM9zZgY7kSAXzAy0tLxfLIHo0Nt8Pf1A4+Tiu72JqSlpqOxvh54/gScdC6ys+WordKgurIS0mwZ7B080d7aQl0sUlMzYGVlh+DgCNjfd0J8XAIVxeknT8yW+VpmnAnhWtJk12IEGAHzJPD8OaQSKU6dvoxLV6xpPNH8/HyEhUVDwBdjYmwAI0M94GaJ0VCnpsG4ZWIJ1OXkPdDf24GI0Ai0NNZCqchFbU0dTp++gHyVAiGhscjMFFEH/JjYZAz091Pn++SEJHS2trLNfdegxjEhXAOI7BKMACPACHR1dOLypZv45dfDiIuNR3N9DeQyGchuEyqlCgp5LoRCKYR8AVQyAZLiYiDISEFjVSHqqsshlSqQnCpEbm4epqcnUVVVjeCgcHi4+yBPVYCoiBg6XSoSimBr64iJiXFUajQIYDvdv3DlY0L4wgjZBRgBRoARAJ4+fQqpWIajh07hvp0DBnra0NlajzxFNjSlRejrakVsdAyiI2PQXF+J8LAwun44OdyBiPBoFBaqkMlJB4/LQ0lxAUYfDaCuthaKHBVSUzioqqpCSHAMCgsKUFVVCZEoG9VVNXBz9aJTqKwMVk+ACeHq2bFfMgKMACOwgMD42Dh8vfyxb98RZGby0drUQLdhEvAF1IUiJSUD6ZxM1NVUIikhCdmiLPR2NYCXmYGMtFRUlKiQmJiG2toGVJRVUGf6CnUJEuLi0drcgJTkFLrbBVlTtLlzDwkJyXSD4LoqDYYGBxekhf2zfAJMCJfPip3JCDACjMCiBJ4/f466mjpcv2qFfb/+gcT4JOQr86mPYI2mHHlKFZISE1FVUYwClQLRkRGoLFOhp70WCqkUnS3VSE9JxNWrtxEcHA4el4verlaIxTIkJWWhrbUd4eHJ4PGkEIukSEhIQnVVJVqaGhEVHg5mPLNo8Zj8kgmhSTTsC0aAEWAEVk5gdHSMbrZ7y8oGt63vorZKjZICBZrqKzE1MQAxLxMtzbV4PPkIvt6BUCnl1M9wfKgN7U3VmBofxAMHJ4SGhiE+LhH5KhUeT4zCxycc0VEJCAwMhaeHL1QqFbJFYjydHEZzUzNCg0iINq3xzcpTbd6/YEJo3uXPcs8IMAIvgUBrSzvEQhH8fIIgEEiQmJhKp0qHBnrh4uJFjV5Ghwfg7R2M5MQUPOpvRUdTBSLDwlBXXU2tSaNjklBT2wKhQI7+3k5qMHP7tgOiohJx954b8gvLcO++GzI4WRgaGACfL0ZqUhKIKwc7VkaACeHKeLGzGQFGgBFYkgAxnBFy+fDy8AaHw4dUqkRCYho0ajXi41MQGhKOglw53cIpKDAYJYX5aKytglJODGsK8OTxBAYGhtHb1Qn7ew4Q8LJQmF+IpMQsxMVl4KFLAO47uNNrXbpkBYlIgsGBARTk56OkIG/J9LETFhJgQriQB/uPEWAEGIE1IVBUUICQoCDkymUoyMuHh6snnj+bRk9XF4IDQ/B4YgRTEyPaCDLt7Xj6dBrpqekoyZdj6vEY6mobtDFKU9Igkympwz2fL4G/bwhsbt/Fgd8OgeyLyOcJ6PWDA8NRWVmJqvIy5lu4whJkQrhCYOx0RoARYASWQ0CjLkdsVCSEfD5kUiXCQ2PR399PjWnIHob1dXWo1FQhKCgKUpEYDdUVsL1tD5GAj+Z6DYRCMRSKIiSncBETnUxHkRmcDDg9cEFsbAIOHjiOHJkcPd2d8PEOgPNDD7S1taOhphpPnkwtJ4nsnBkCTAhZVWAEGAFG4CUQIHFB3VzcEREejixOJvx8g1FTqUZleQlCQyLQ1NAAIpZZnAw8mRpHT3c3ZBIZRgbaAUyjML8A+/edwAOHhyDuFzGRMchT5kGarYBUpsQDJ2+4u/kiKjwWXC4fIpEEuQoVlHI5Hk+yTXxXUqRMCFdCi53LCDACjMAyCTwaGsTZ0xcQER4CuSyb+hc+ezqN9rYWuLt6Y3JiAg0NTeBmCfBooAspSakI9A/G2FAnDcdGRocPHJ1RUa5GRbkGpWUaGq5NzJcgIS4ZDxxdER+XDH+/EGRwuMhT5dFpUrK100Bf3zJTyU4jBJgQsnrACDACjMBLIPBoaAinTp6no7+yUjVCgqNRXlYOmVSB8LBYlBYVwt8vCP6+Aehoq0dZcQFyZVJqKPP82RMM9XWitbUdUpmKGsUkJ6UiNiYGOTIphAIxNZ4hn2Vm8FBUWEyvXVpcBnV5Gaqrql9CjtbvJZkQrt+yZTljBBiBfyOBzs5O+Hj5ITY6ARKxFCHB4XSLpu6OFsTFxNJp0mpNBRQ5ZKPdCUgl2RDzRRgb7kd3Rysa6mvh5ekHm9t2SE5MhlgogTwnF4WFxaiprkZ1ZRWyMvnIV+WjqKCYjizz84tQWaFGe0vzvzHnr9+tmRC+fmXGUswIMAKvAYEnU1PIysjC8WNnUZSfC6lYgvy8fDx9OoWkpAwoFXlQ5MjgaO8CTVkB/H0DaczRp08mqJsFEdFzZy+iWlOFjo4eiGjAbhHCQiLoNGhAQBjCw6JQXFhER5nFRSV0U9/gwFDU1tS+BoRenSQyIXx1yoKlhBFgBNYRgefPnqMgvxCXLl1HZUUpoiJj4ODgis7WRmSkc5CnUKC6ohQCHg+9nS0QCSXg84SYmhzDYG87WhqqMDIyCrmiEDFR8UhNTkViQjJCgyMg5Itx9MhpXLp4E8lJ6XTHCi+vQLpHYVFBHp0qXUcoX3pWmBC+dMTsBowAI2CuBFpa2nHPzhFSsRDeHl7U/+/p9GNUaaqQLclBY30t3YG+QKlETHQcHRU2VlfQsGpZWWJERiXB0cEFqckc5CryIJPKqLiSbZkyM/joaG+HMleFhLgUJCakIj2di6KCQhTm5YHEPWXH8giYpRA+e/YcHV0T0FQPQ5bbi8T0NkTEtSA0phnRiS3gS7pRXjGEto5xPH22uso0Pf0cwyNPMD39bHkl8YqcRdLd3jmBsooh8MWdiEnUcomIa0ZcSivkyl5U1w6jr//xK5JilozlEng89QwNTaMoKu1HJr+T1vXQ6GaQsk1Ob4OyoB81dSMYHHp5PmhTT7RpyC/uR1J6G/xD6+HqWws33zr4BNcjJrEZirw+1DaMYmT09d99fXRkBI72TggPjaCGMc4P3dHS3AJf3yCEhUYhP1cBh3sPUJyfj7S0dIQEhQPPplBWUkr3HLx8xQpt7V2orq6DVCpBdFQscnJyERociVtWdggMCENKcjoiwmNRWFBIw7DV1zegtLgQjycnlls1zP48sxLCgcEpBITV4vDZPFh8Isabm7mm/yx4+M8P+Dj2ZxF9OImoreQoKh3E178osOdQLo6eL8Spy8U4c7UEf14vxgXLUlywLJt5Je+N//15U/u51T01vIPrIZR2Y3RseiXJWPa5PX2TCAhrwMFTBfjXTgHesiBseIZ8LLSf7fhCjPPXS8DhdoB0LFZzFJf14+y1Epy9Zjz/hMvxP4uQlkn8qtbmCIlqxNHzRbhogv+Ji0W4blOOnr4XE/ocZS9OXNSVtWH+Tl8uxhXrMrS0ja9Nxha5Sm39CBzcq/DTAQXe2cbDWxZ8k+W6YQsXn/wgxU3bctrpWeSyK/qqf2ASQREN2HtEibe38vAWrVukLs3Vsbdo3dL+T+rf13vlsHetQn3jyIru9SqdTFwkiIuD/f0HCAkOxbmzl1FWXIjQ4DAo5TkYHx1ARHgkers7UZhXgLjoeDweG0Z9jQbFRUUoKlYjPjYBMdExdOo0NSUT3CwRHWU+dHJDRHgM9R0k4dd8fYMRGBSOlORMcDmZGB1+9CqheKXTYhZCODj0GPYuldj2mQRvbyONvABvbjLR0M+KIw8btvChezh3fpVNe6/LHSESIdy4jYc3LXTX0IquthGae/gXFeN5adGdt/MbKS5alqC5ZW0C6/b2PcZN2zJYfCymeX2L3nNhA6W79+wrabAsdA0qDx9/n01HFSut6WJZ94zgmu6QvLVViP1HSXT+Fz8eDU/h85+ktExm8zLLeKZ8tvCx82sx2jtfTKDOXSvEG5uNCM7s/Xh4e6sAgWEvz6ihuvYRTl8uwd/fE1DB0dU9bSfHFPOZcrXgY+M2Pnb/oYRU0bNq+GR2zi+4DhYfC/DWZvIs8GndMcV/9nOdKFrw8a+dQly3KUNv3+vnJD4xPoG4mEScP3MB8bFxuHblJnq6WqgjfZVGjccTjxAUSERRDiGPj+jIaNRWVtDv/fyCkZqSCml2DuRyFQR8EUqLyqAuK4e7mzfCw2OgVmuoY35LcwNkUjlqqmvoX2pSCg3EveqCM7MfrnshJD3zD77Onnn4SANuqgFY7HPSOGgbCDLCI1OHSx1k6pWI5+yDPdsALnaf5X23YYsAf98hQMoLjpR4og5s+4ykUdc4rVSgSXq1Yk/SdOCUCs2tyxfoqpphOvpcjNFbWwT48BsxRtdgmqyqdni2Y2P6njzsPaQEmcJb7TExOY0Pv5HgTdLhWqTc39kuwaEzitXeZtHfhUY34J3tpDx1Zbu8ujU/vdo6r+303HOuXPEywcDgYxw8XQhSN5ZiMf+++u+JeJK/nV9J6JTpohl/xb4cGxtDViYPtrdtkZSYAk93PzQ11NEg2fFxCSgvKYKVpfY7pUIBsUCAhtpqqOTZ8PHyRXFJBZpbOhEVFYO0lDSkp2chLDSSGsqEh0bjwp/XQaZb85VKFBcWICgglIpmfn4+yooKXzEar25y1rUQhkS34A3SEC3RIOk/eIv9/8ZmHj78TomKyoFFS5Wss3z8vXSm4V15I7RYGrTf8fD3nTnwC16d46xHQCPe2JS1YGpq6Xsung/SWP1rJx+lFcubkmltH8fmXcJFxYII7dvbhMjNW/2oRFdQMQnNi44GdVwPnnyx6P3ZsjZs2Doz+llECIlA/OsDITRVa7uzuOVdNd7c/GLis6Au0E4gF4fOluDp0+VNg4+NP8FPB3Lx1hbREuW7eJ2anw4yotzxlRzlmsWfPV15vwqvU1NTKC0qhquzG7Iys3DX1gGxUbHw8wlEoH8Iujvb6Qa8eSoVGmprkJMtpq4WmtI8NDW1IiExAzFR0ciV50DIF8HZyQ2e7j64esUKxF1CpcxHgF8wPNx94Ovtj9joOGSLs6FUqFBRWohJFmptWdVg3QohWXh/Z7tuREYafOMPHJ36tODiDdJwzK5XLDYyysKGrUK8/1U2ampNN2BkLe/zn2UvUQi52LBVgI3vSaDM61xWYetOuvugFBvfU84IoXEuhJeWzcyoYrN2VDzHyNjvtMK69QsFCkuWDvHU0zuJLZ+Kl5wq+4/NIji6leuSv+rXU5cK6PScqbqg+/zQ2YJV34P80MquAm9tWWxaVMuOdETe3i6GX/DaTY/euleKjTukM/XddL2fLd+ZtTpa1rP131jZkvogpGvcy4Fz/U4x3t4qwZubTaWB1Kv5f9r6puVm+vnbsEWI7/crMDn5ctbKl5O3lZxDd6yvrsOZ0xfoGhGuQb0AACAASURBVOHVKzcQ7B9IrTp5XD6NIpMtlsLXJwjZYjE4qclITohHbo4CYWFR4HEFaG5soK8ScTZyc1XU4vTaNStEhMUik8OncUZzpNlISUxGJicDJUWF6GhvgzInB031dStJrtmeuy6FUJjdgzdm17BMPdTaBftNHwnx5V45fvpdju/2yfHJDzK8PdOb1zYOhr9/491MbNwhw/ELphvMicmn+Gqv3KQA6xrdxV914kPSYNig0IZ0mwQnLuYvuwIHhdVj43vZi4vgzFTUux8K8OWeHPw4w2bn19nU0EG7Pmi6sSLcPt8tR3fP4lPI/QNT2EqE0EQnRfc5aRwJy0ePVm/NWNc4gnc/0q6D6q5r6vXoedPluhToru5x7PouG2RKV//6dH1sQV61narfjinx+PHTpS695PdB4TXY+L4Cb9KRvl69nfmMdOJI+W35WISvZsr2231yvP+lRLteS8p+EUHc+F4OXL1KF02LqqAXb20Rzqz/6tfbLNrBIvcgxjDX75TDxbsGLt61uGFbji9+zplZRzRV57nYsE0Iv+D6RdPwKn1ZV9eIk8fPgpuRgQC/QCTEpyA/rxBXLltCIsqGRCjG9Wu3UVKQj6qyImRy0pGUlIKCvCJkZ8sQHhGDe/ceoLCgCClpmTTGaAAxjAkMxYnjfyIiPAo1leWoLC9HWEgY3b1Co6lEU2MTVDlSkL0R2bE4gXUnhMTCbPPHubQRemNTpkFjRBvxLQJ8v19OXQPqGkbxZN56EDHZJubltg80dJHe5AjIgoe/fyhHeJTxqcnJyaf0QddvDHX/E8vE+NQ2hEQ1ITR64V9YTDPCY5vh5leDQ2fy8ff3RHT0p53KnN/AaRsZ0ugsZzqyXN2Hf3xArkWmIw0bKMpmqxCf/yxFUEQjquuGZ9kQowcy3UvcTYhF4QZi+WfM+nAzl4rs33ZKcei0atHaR6x4t322tBBqy4wPgaRj0est9uUD9wps3L70vYgh1eGzi6d7sfskpZPpV73pXgsetdbc+okA72w17EAQo6zi8heb7iMWuO9sFc2UiX7ZktGWVuB2H5QjidNOja109Z6ULRmdE3eZw2fz543U5tc1rTCRaWpiBFZQbHrEf/5aId7eTqZE9dNBRFCA976WI5nTatLaOIPXjve+lM3M0uhfg8zecPH5z7kgHanX4ejq7MadO/cQHh4Fdw9feHkGQKXIw+WLNyARitBYW0O3UCJ7FlariyAWZCEvrwSZmRKEBofD3d0Pfn6hIFai9veccO7MFZw8fp7GHM3M5IKTlk79FLOFQogFQsRGx1K3iqLCEnptthPF0rVk3Qnh1dsl+I9NpLFZ+ABRESGNwRYegiMbQPzlljo01Y/w/teymXWlhdcj1397mwg/7FdgZNTwgdQKYY6hEM+MCHKUphsS/XRl53ThHzu41IpVJ6TzX0lDGp/cov8zg/+p4cJWkcGI4Y13tSOTt3eI4eZTA+JvttRR1zCC3Ydyae98flrmvycjz+gE0z13IqzbP19anAhrIvbEunU1B7H0Ja4D1Fp4wYhMv6En68k8HD23/BG2fnqICNCOxrxRGREhMtvAl3RgJ6lP89OwKQsbtolww2bxUZb+feb/TwTtwKk8vLNDijc2ZRhcn4y+Nm6XUMve5fhYRyW0YOMOImSGok2u/842CS5YqucnYfb98MgUPvxWZ5ymx9dCiG0fZ6G2bnj2fFNvauoeYdsnwhkx1LsOmabfwgeH12rq56/U54ODQ3B29sa9uw/g/NATNtY2aKqrhp93IF3Ly1fm4eZ1a2RwONCUFSI9jQMbm4fUkT4jQ0itQ8+fv4QzZy7C3c0Hv+w5gLNnLtBg3g8cXBAdEYOSoiJkpGcgyD8I0RFR4GVxIZMp0NneipYGNj26VIVYV0KoLOjF23S0o//gEBHjY8NWMbIEK/NJI0Yx737ABzGSmRVXnWk3MeTYLgZP2GbAeSkhzBKsbF0vNqGeGo1o3T708mchwENPjUEa5n8glrbj7W1kzcawcSNTmcRNITzGtGjNv5buPVkH/fkPIjBG1sM2ZWHjDgl+PiA3Oe23fCHUjmg2fyRccrpVl7b5rzm5XXhnOxmlLcy7qalv4ju6mqOjcxx/e49MCerz4M2urRHf0jeo6868MrTgYeeXEhD3jtUcImkX3toqMjLdTToQ2rXvFM7KgjCTziKp84auFuRZ0n7eZMSFhwSpePdDEwYyFkK4+y5eT+fnPyyqCm9YaKdYtWWlLT/C952tYljdXV05zb/HX/G+p7sXVlZ3cf2qJeJj4+H0wBXl5RqEhkQiyD+Mbsp745olEhJSUFtVQdcSHR54QpGrwuXLlrhyxQr37J1w/sINHD58Bj///BuiImNx9OgZ3La2h5sLMZTxBZfLg4erK9ycncHLTEdTfTW6OzvA46SDbADMDtME1pUQHjtPnHWNPYTaht7dp9I0iUW+cfasoCJKjAVIb37n1xLqTO7mW4sMfheIL57+sdZCSKLcWHwiMmpYQqaK7jgs3sAQvzbtlJ3+yJaLje9LYX13detibe1j+OhbxcxodeG1yUjzne1iZPKNdz5MCeGGLTz8bYe+mBDjICH8Qmr0US/5v/W9Mmyg9WIufWRm4G87iK/oQnEk5Xvsz9WZnfsG19CRq8EUtgUPwRFaIbK+l4cNRoxISOOezl3d1O8fp/OMGue8QWYttkrgvwpfRTJyPH6xcEZI57jR0ewmbVmQ2QP9I79oAH/bblh25HdEVMWy5Vv/dnSOYeN2Hv6+Q4iv9+bgwMl8XLhZCiu7cljbV4DDXx0v/TS/7P+Hh0fg4eGLK5dvIDk5Aw8c3ZGnKkRURDROnThH/f/s7BwRF5uEgZ52iAQipHGE8PIKwOkzl+DrF0StRO3vP8TVa5Z0mjUyIgZ79u6Ht5cfBFwenB3uwtvDDTev34TLAyf4uDoiMjQE6amZNAxbSFAIROIc9PcP4tmzuRkfEgyDhWJbR/sRdnZPYOfXxt0VyJTYt/tyVuwHpXtAGptG8OMBBVy8NCgqHQBZ21rqWGshJJFtvtlLploNG27iG2njaFrkiWP1BhNm7GSK6cs9xqd3l8qj7vu4xDrtaNVY2jZzceWW8SlNU0K4cTsf+44p8a8P9AxOLATUJF933+W8dnSNw+JT4tO3kBtx8P7pgHFjptUIIRGOL3bPGHrMn/rczMV/fihCVd0oTa5E0oS3t4npFD0Vldlz+Th9eeWdETJjsWmXxKgQkhmAr/ZkG526Xw47maJ3zg/RgkuNaIiYESMqYrwUGtVkcJnFhJAEl4hNWv7IlLhqkJBvDU1jNFzhcl03DBL1b/6A1I0MDg9fff0T7O0fwurGLaQkkgDaqbhx3RpZmQI42j+E9S1bqHJz0dzciuSkNHzxxY/Y/dN+8Hh8/PbbEfj6BCA6Og6aiipYWdngyJHjiIuOxm0raxz8/QBOnTiJy+fPQCbmo6GmEmFhkRCJsmnuy8rUOPfnDbh7BMDfPxyRkQkICo7BAydPREXHo6S0Bv39I5ieNk/DmnUzIkxKa6LTlAsbl5npJwse/EP/2nnytRZC4pz8yQ/EHWRhg07yS/zRXH2MG+2QpyAyvknboM02unPTcsQcPTz6xdiMjEyBWB6Sa81OH8/ei0c7KENG4leaEkISBszFu5qK3kIBI6MDAYqW4Zqha/sSUhuMGgftP5aHizdKFq6nzaR5NUJIDKz+8b7h9CspHxJWTHc8evSYighZ151fV0kUmn/uFKK6dkh36rJefQOr9Fx/5sqWrGF7B65+SoxY/X61V0YNV67dLkNkXDOKywZonFlTEZbIuvp/fmCcA/Hn/eWIwqSRzLIy/JqeVF5eif37DuHhA1d4uHkhITENErEct63t4O8TgNu3bHHL0galJaXgcoXw8vDFDUsb2Ns7Q8ATwcsnCB6e/vju272wtXGkcUj37z8MskZ45/ZduLs4I9DHG+UFSmjUZWhsaIRaXYGyEq3b0cDAII4cPYMLFy3h6OwLPj+bCrDTQx98+OGX+PjDLbhw4Qj8AnwhkxdieHhxi+/XtBhMJnvdCOGtu8RIwbjhxT92CtFoZD3DJJU1+GKthbCy+pFJn0QyZZicbtg712Xjmk25UZN4su5CjFVa2pYfDUZ3Tf1XV+9KbQSRWQGc64SQaT+yTqd/mBJCcn5CajNu3y83mJojvpO3HYwbauhfn/z/xykyFblwZEnyHRDegIee1UaZrkYIre+XGXWZIEJOrILnH/edqxaIoE4QiS9rUPjKfAqJb+QbRgJGkDxafCJAa7t2JDr//it539I6hvGJ5Y8SRkaeYNe3JIydYYeNduIsuDh3rRRDQyuL3buSNL+K51ZW1uDaFSsEB0ciJZmDqMh4REXG4dKfV+m2SilJaYiKjASXJ4bTQ29kcYXw9AyEt3cQTpw8j4sXb8DRwZVGleFncaGQ5UBdUory4mIoFbno6WhDX3cXGusbUKGuhFyuQF1NHYhDPznIdCjZrolcu0pTg+mpKepWkS3Lx527vjj0+y589MH/xP/2v/9XfPP1Jly7cR2dnS9myfwqloOpNK0LISQN6r6jSqNWgWTq75fDymVHxDAFaqWfLyWEXKGhMCx2j2u3iYOyUM8ggpij8/HONhHUFcYrLVkD+OZX41N2pGE69gI+c/PTK5Z1zRhRGDaAZGra14jTuEkh3MyjgbZTMtoMDE9Ifj/4RgqyfrTUodYM4p87DddViRVlReUgnDyrjIrXSoWQ7MTx2U85Rht/EuezQy8kn5ROOepzIpa7Iuw9osDkMn0Kx8ae4Lt9MrouqRNT3SvhtP/Y3Eh0KVZr+f3lW2RNlsTz1VtbpJ0kkm8+jft7w6YcQkknOrsm/vLncy3zu5xrqcsrcfL4OWoo4+cbDJs79+H8wBW3rWzA44qRnsrB5YvXkZElRVxcOjw9/LB92y4cPnQSQYEhiI2JR21VJWKiYqGQSVFSWIgaTTmyOJmQZ0uRkcYBiV0qz5EjPCQI/CwOWppqMTX1GH19/bO+hBUV1Rh5pLXanZ6eRkRkAq5bPoCl5V2cPLkPO7b/EyH+P2L7lv8Pe365SiR0Odl77c9ZF0Ioy+2mjaPhtGEWHaXYOi5/BLFWJbqUEBJ/vOUcZBsne7dq464Tm7RCeOKS8TU4cv2u7gmQoAG6BnLBqwUPd50qlpOMJc8hxjzvf2W4FkfuRxpl4jitf5gSQvIbZ68akF0TyHqhYbkKkcU3tNTVv/5950qjQkd2HiEWnpesSoyK10qFMIPfPhNPU1/cePjjdIGBq874xDSNjmKYLy5Nb1HJ8uoGieuqdT/Rv6/2OpZ3TdcLfVZr+T+JdPS/Ns046Ou5MenXPxI2jRjXEOd6Kzs13ZqJTK++rF1W1jKfK7kWcaG4Z/eArgNa3bwNW1t78PjZuGtjT+ODBviHIDomFXJ5Pn78cT/+/o9tdD2ROMq3tzQjKS4JyQlJuHbVCnWaYiTGJdIoMu6uHjQsW2piAkKC/KHRaFBZlo8gHy/k5uZi+skUBgb6Mf1EOwLv6+2nm/2StBMjnjNnL+HLL77Gx7u+gcWW97F/36ewvPkrPv/sY9je+gl1FfYYH1va3WUlLF7Fc9eFEJKtlf6+g8R2NNYg8BEYtjy3AOI/t9L9A8mIi/hx6ftnLSWEZIuh4KgmePjXwTNg4Z93UD08/etg41CBT38gBkDGxCCLxlD914dilJab9kksKR9cxIqPR9cP16JiEr9MYlC0oKGbmSYlFpqHzxj65pkSQpJfYh1IjoOnVAZiRlwCzt9Y3HR+bGyaGhfpR3gh17a0U2Ni4il+PaZaEyG8crvMYOSq5cCjgQmM8bVz0hi9NxlJ3bJbnoCVqIeMWr2Se5M1SE9/Q6tOY2l5GZ85uKqxcWcOiOWwsTox95n2maXPLlk3tSC7cvBoRKMLN0oQFtNk1Cr7ZaT5ZV6TGKHcv++MEyfOwtcnEK4unkhN4cDayhb29q7gZIhw8tRl/PjjbwgJiUR1TQ06WlvQ19WOX385iLCwcBTmK3H18nVUlRfCy90bNRUlEHKzkJoQg5jIMPCzsuhaYVlxLprqNVCXlmJocBDj42N4PDGG0eE+TI7PTZV3d/dii8VO/P3v/8L//H//A//H//n/4P/6v/8DZ079gJSoP5AStRvOdnvh4+YEcu56PtaFENqZWHPRNUYkisVyDhLRhex0QEKnEaG6fIv8ldDXK9Zqav145VYJLlmVUfeJQ6fz8d4XIhA/Lv1jKSGcawjmjBv0PyONg1YE9c8hIsjHhm0ShEYs3thJ5D1GOwi6e2WtcIpWP5/z///9RJ7R9JLp6R9/M9xKyZQQkpHSqctaIXTzrpjxDZ3r5Gh92/ggu1eYOsTSDq0l5bzOkY6nLoD3j7+rjBj3rMx9gkzRbvrQeLxUYtijrjQegFyS0zUjhHP5ImVCyvu9LyQYWkY4Obmqz6TIkLwmpC49ajbF70U/H594gh/2y/HWFuOzBLr6Z+yViiLp/NGy42HLJxJcu12C2nrT5f2i6X3Zvycd5ru2jjhz+iICA0IQERGF+NgknD1zGW4ewQgOiYallR3yC0rQ09WBhtpKXL54De2NNbC1uQdnZ3f0drUiLDgMFSWFiI+Jg0SQBX5mGkrzciDKzECgtwfy8/PQ3lQJkYCHwIBglBblobe7HdXl+SgrzMPTp3Nrs5OTj/HVV3vw3//7/8LVq1YYHR2jVqO1NU2orSxBU5k37G/sxUfbdyA4KHiB28XL5vVXX39dCOFNGm1fXyzm/s8UGAqVMdAk3iEVnlmHaG0EC/pgbs7UPpjzDBNIA08EKcfINOdaCKFBI2HBxQaaNj42fywGV7C0HxVZizS4zsxaDcmXVLE8NsZ46X92/EKhiXuRkFg5BtaCpoWQi9NXtUJIXFdIXvWnEclIz8XLtMvI9dvF2LBNvGCdiqyxkv0Ip2Yi53z/m9JoelcyNRocWWfcSGgzD4cXCd5NDFB2fSc36KSQMiH1KiVz6c6bJIe4N8zV84Xv+cjgL30N/TJcy/9JgICTl4qp1a42fulC0V+YXlP54NK9Q7UdQj4CwhvXMol/zbWeP0drczOuXbWGi7MHUlPITvQhuG/ngJtW9+EXEIPiojI8f/oYCfGJSE1MQkm+koZR6+psQUBgEC6cu4Lh/i54ewVCU6JCjoSHrNRkJMREo7wwF6LMNKgLZKjWlCI2KgpJcZEoKshDa3M9NOWFUBerUFZcgMa6Wjx7Nmf8RLaJ6mjvWOBLOP34MRrqutDV1ob22izcvn4eBw8eQ2/v+h0VriMhNP2QZfCXF8WFTFEu++Gc2Z2BNFyVRkYmL0UIN3HpprypWZ3oHzR04jf2VJMINsbzREabRAi7jf1sVZ8dv1Bk4l5cfLFbZuDHuagQXi6ZTcOfJGwZjZAyN81GOgTECMjY0dA0QiO8GIjnZj5sH2jXi8fGdet0hg3wSoTwx99IXNuFrhA63oFLNNoObqV4cwsR+bl8kd+SvJIACEsdxDlddy/DVz4yl7GOutQ91uJ7Dr8TnxJjotkdTAyZG6bf+DkkbN9lq8WnxdcizWt1jaHBAYgEQhw7cQG3bZ0RFBSB3T/vx5VLN6hRjFJZArVaDSFfgMqyQpw48Seq1cUY6e/AtWu3UFtVCk5qCvb9+gf62uvh5PAQYUFBGO6ph6+XD7gZ6ShUSiHITEFZkRIPnVxQVarEaG89IkKCQHalaG6sRXd7M9qaG9HR0ojHY8ZddEYGe9DaUAN1eRlkYh6a6rQWzCRod11d/bre0mldCCHZNJQ8SKRhN3ygeEhKXzoOJ6n4KxVCcq9/7hSgvnFu3l33AK29EPLw5rtc+K7QH1Io7TYYTc1nxBOvnRAeOEUCNhtpwCx4+OE3ww1oFxPCU/OEUJnXM+OjOO/apKy3CCEQG46Kyaa0xgKLk9BfZHNecoyOvrgQlpT34x87tSHM9PNNgokvtYFzQ8MgNu4QGjrDz+zKrqky3mDp6hgxuNLe10i9t+AiKd14RB/d7//KVxLMnifqhPV9Nd3hZfZZpdP/M+k3+vzOK/OZuvW393Pg4vnXG8AtlxexxiRO8QVF5XBy8cWXPxzArs++x7UrN+Bg/4DuLNHb04P6ugZUV6gRGRYBHy8/TE+N4rb1XWRx0jE12o9ffvkDHq7uAJ7QtUV/b3f0dzfBzdULrXWlkEuFKMnPQU2pEikJsShU5SA5PgqaQik0xTnoaq9Fc005NOpSdLS1YPTRAMpLCtHVWo/nT59ganICo0P9GH00iN6OFlSqy6BUKCHLFqNALoY5BeteF0JI4iISM3X9EYCucSI7KSznWI0QEotMYzEXX0QItVOuRhq3zVwa6HvLp3IUly4vVFVB8QA27ljoRzfXePIQm7jQx205nIydQ9ZAdh8koyPDdJNpLbKLhv6xuBAWz55Otl8i7gmUyzyhfctChCtWhiMn4jZApqx15a/L79Hzc+euhRDaO6sNDHl09/z5YC7aOibojuq1DaMGr+Q7ssb58fci7RqonqsBYRYWvXi9LSgZ0MvjnGgQYxm/4BcLlDBbAGv8hkxNl6oH4B9WjxMXC/Hlbhne/ZBsD6WN6TsrkvPKWseVuGSQafF/vJ8NVcHynoE1Tr7Jyz2efIymxmakpPPx0D0QR05dwa7Pf8SevQcg4mehqU6Dwf5eaDQ1aG+qh5uzK6IjwpGvzIWV5V201FciOjISmzd/hPqqMowOdcDWxh7KHAkeOjoiLCgQT0Z7kRwfi6aaEsiEPHi7uyE8OABSiRgV5QUoLZDBz8MVkaHBqClTgctJQkVZEUaGBjDY24EaTSmK8pUYHewGGQF2tzehtbGW7mavUChRlK+CJCsZXW3LGzyYhPGafbEuhDBb3o2dX5HNSA0bYfJw2SzTfcLVl0yNkgZUO1VFdjww7hhMGhztljJaIVz5iPCXIypcu1MOMp146nIx/Tt7rQRnrhRj17dkPztjlqLaLY42WAjxxZ4c9PUvHf2huWV0ppExZPPGZiEcXQ3dGlZTh7t7JvHRd8Yj35C8XLU23F1huUJI0uMdUEV3aZhtEMkMwGY+3c+QTIXqjryCXvxth5Fys+AhOX3OeORFhZBEiPl6r4Ja7s5Pk+79v3YK6GwBiWVKrCAX/pEOjRCbd2XjH0ZiqtJrWPBx4GTe7DZYuvzNfyU7gGhdY/TLVisWt+3Xpmzn3/NlvCedKNJZiElsxpkrRdpOLd0TUz9fM0JPduzYKoblMq1rX0aa519zYmIC6nI1EpMy4eETDkvr+7hlfRdXrtxAUGAARh71z5w+AYlIhKT4ZDTUqPH993tx5MgZDPW2g5uejvt3H2B4oAf37R/g2LHT6GmtRXmBAvEx0eBxOCjIzUFhXg7Ki/JofNGbN2/j/l07lObLUVVZjtvWNlBIMhERGoLM9GQUSLngZ6Wgq60SCqkYFWXFqNGUIT8vFyIhF/WVpWioVqO0qAC1ZD/DsnyUF+agp/PVmUmYz/llvl8XQkga1F+PEMMH/QdH60e45w/5shx2M/mduGFbhqDIJmq2HRpZi7jkFqRmdlJjD10jp3slPdfNu0SrGhHyxKaNVEh0jgxeGz74loyCSBDxhfsqkq1wNu6Qw9lz6fBZxB3k85/J1j/6bIivmRDHL6x+7735FVOR1423aAQXw/uQzoRviKELy0qEsLZuCBafGAotcTeIjp8b1d60KTUcpVnwsOt76QJLzBcVwvRMbUg/rRHH3EhMVzeW+2p69EM48lFcato1hliWkhBoxtJAPiNRdV7Hg/ikPnDT0PpJjWz0RstkVLiB7Gv4ZTa6ltj8+WXmv7O9AxkZfBr+LDQyCcLsPKSmpCE9NQUSkRgdrU0YGerF+MgAFbtcWTbddJes2xXkKVGjKYFYwENEWDTaWhpQXVUFD3cvDA/2Iio8Aq4PHyJPIUO2SIDGWg2KC5Tw9/FFYnw8+BlpdKo1JCgYFaX5aK0tRWJMFJ0iTU9JgLWlJbiZGSjIV4ATE4AqZRa1Jm1rroNSLkG2mIfq8iKU5Oeiua4MdeW5qKssnY1E8zK5vYrXXhdCSMDeuldmwmhBG5+yqcVw1LaSAjlx0ZghSBYVwubWcYNLLTU1KpAsvTZX1/AIWz8RmdiglId/vC9AfdPSJuV/3iwxHmJtMxcffSdDV8+kQfpX+oFfcM2MQYuhEJLGPkdpaHG2EiEk6Tl8Nm/GlUInPNqRj67BJ7u8k5Gyfkg1MivgFbAwdNmLCiEJ/2ZqN4/liuBS55FO0O17hiPp+WVD9iHUj1tKrkuEcNtnomXNGsy/nv770vIBRMQ1oahkgE71TkzOWRzqn7vW/xNDL4OynDddSmYaVAWmOwprnR5yvafT0+jr6UZqMgecDD4EwmwkJaYiM1MMqUwFqTQbKqUSrU31wPQo8nIVSCW7zatyqTgO9Haiub4WvCwepGIRTaIqV4nQ4Ej6PiMtlYqgKkcCQVYm8pVKBAeGoK2hGiIeDzKxED6eHkiMiUSgjy84yQmorShGWJA/inKFNDpNYmwkasoVcHd1QblKCBU/Hp01eejvaoJSIUVjnQbNDVUoLVBgoKsWDZX51JjmZfB6Xa65boSQTKuQh99YD5s0FJHxi6+3LFZgxFn+yDnjrgGrHREudz/C9Mw6vL3d2IiObAwswU2bubU0U3nwDSYm/kYCYlPnZRHSMudGVKausdjnJADz4bOko2BEBLfwseNzMQYGDK1cVyqESWkt2nzo7edHypc40Ofkds+4v8xPBwlBx4das9Dw5EWEkPgOUpcOg3VInUCvzSspsw++FmNyctok/jv31SbEQuuGERnXYPK3y/mCWGiSnUt0sx9kg+M/b5bCyaMSscktGJwXM3R+UAlSJ4j7BIl+U6IepBFj6hvnprCXc29yzvXbRXjbRAxhMtPA4S7PIny59zN2HonT+WhoGPV19RBwRfD3j4QkOx8jG2sdOgAAIABJREFUwwN0SpI4xf+y9zAcHV1RWliIxyN9qNWUobulFpyURNy8aY3KiiqMjkyiukKDUB9bVJUrwM2SQJYtQWtjJcR8PiLDwpCSmAAvdy8UF+YhLioGVeVF8PcLouuE3Mw0xEeFw9nREbGRUSjNk8Pl4QOcPHEK9VXFqCzJQXhoECJDAxHg444cYSoKs9OhUWUhKzMNRSoZgn3cUajKpemurixGRxNZt/xrOxPGGP+7P1s3QkjWS7Z8IjYqhOQh3nto9VOA5AEnPmEGPfhN2hFh0ypGhMsVQlJBTl4iIqNv/KHt9ZOwZj29i68VFhX3zgjhfIGYaawt+NhzKG/RxnapSko2/dWP4EJZbSJiLQLZtd3YsVIhJCO+T743nAokHaCA0DqQkGraEcR8dwQBjp4znCJ8ESEkIyRqjGNhRPCIOC7T+nGuPpFyMVY2PJqfZI5pwwWpvFM7SjYmyhZC7Dm0+t0etFOvxNdRW/fIc6QzWCIivelDIZpb52ZaquseYe+hPHz7q5xG9fn4BymI9SwJk0eu4RtsOD1urF7M/4zDbTUaQ1jHLi5lbt13/u9e5D3Zn290ZBT1dY1obGyGUChDeroIDY0tSElOxbnTl6FSlaKoqBy3bt2F1c07UMjkdN+/XHku6msqYW11D04PvMDNEEOlUEEh5iE93huc5DuQiQNRpS7D4+EuXL58FadPX0BMVDgcHRyRJ5dCxOOjrakGbg9dUFOtARkxxkTFICs9Fd5uLiiUi5CalI4cMR+hAb4IDw1AoL8ncqU8xESEIjE6FCJuKjJTY+Hl7IDIYH9ERwYj2NsZwAD6etvR3lyL3vYms50K1a8f60YIScZ+OpBrtEF+i1hb7shGYurqesfGhVA7LUd2TTc27brU1OhKhDBT0D7bGOkagNnXLSL4hSxuHUgE5JfDuXQXep0h0OzvN2fhb+8r4Be0vLBe+hWI9Px/OawycW0uNSaJSzG+B91KhZDc282HiN3C0S1poN/9QIh/7iQNrr448ZGQZigkLyKExCpV69eofy+yYS0x4BFRAdjyiQiL/Vl8LKLGPls/FePtrXNGWnNlw6Uid/KCab85Et7vsx/Ibg+GlsFkh3myMXJymnH++mWp/3+OopsKn04I59KlrftH/1yYrvxirRWr9nytn6ruN6RDdOy8YYdE/576/6dlGQZe112TBHNPTl9d3vTvMzY2jo72TurSkJCQisjIONTX11H/vkuXrZGRKUN/Xy9Cg0PwxWff4srVOwgOjQWPy6PBsMn1ysoq8PChL4Q8AVwd3eBifwNVhYHoqI1CoMc+BHodQ2s9Dy21RUhPToRSJkKOVIJ79+yRmyNBRWkRejqaER8TD6mITJ3y4OzkinpNEfx9g1BeXAheejJqy1SQS6RITEyFVJgJezs7HDl8HCqpEIF+3lCXKFGoECI2xBd+Hi7gZ6SgqSoPTyd78GigByqFDPXV1Quc6PV5mNv/60oIw2IaZ3usuoeFvlIrMwE2fyg06vO3nEI35ixOHvjNu16+EJINSb/5hcTx1B81kAZJiM93S9FvZOpxfr5iEhvwDom0Mm+NRfd+wzYh3t6WBWWeaQOe+dea//7ug3K8vZWsY+qLQha16vxuP9n0dy6s0/zfrkYIa+qGjDb6dLRCRXD+aJBLY1YSsdA/ViuEVTVD1AqXxE/V8dO+8uhI8OQFJfVRJOvGdY2jtL4RP1Njf+R7cl575zh+PUwczo2M+rcI8O6HYlRWL5zanZ8fv1Dt1PcbxoxKtgpALFiLywbn/2TJ92PjT/DDvhy8qRfIQJdnwls/dCGZCiU7yRtb1yMjyX++L4S6QmdBuWQS6Ak37pTOdHz065fWbzg3z3DteXlXBsZGx9DV2QWFXIkYsjltSSnCw6PwycffIjU1EwN93fB098Jv+w7B1ycE3d3d8PT0we6ff8cP3+6BQk58Y5/D19sPTg/9EBboj5tnPofjre+h4J6DgnschdKTSIo4gOuXvkOIjz2NBhPg60c3z83IyEBjTTlSE+Ih5GWivDgP6SnJSIqNoqPEpvo6uDu7wcvNFfGxUbhn7wFFjhSWN6yQKxXh0qUbiI+JAC8jGXv37IdMlIlTJ87T6Vh1oYxOi2KqFX0dFRBlZdA1xgC/ADxwfEhHu8vlZA7nrSshJIGUvyKCQaemFjaIb2zKpKOWj3/IXdQSz1ih9w9M4ZtfjO9m/u4q/QhXMiIkaSI7e2t7/QvzpYu7yeEZOpbPzwsxcvhmfwHeMbI9zhvvZtBwZBaf5UIiW/6aC9nVY8M2gRERJGGxsmgs1Ig402uzqxFCkqcTF/K14qvf8C8QY60QP/Awblm7WiF09q42uu2RtpPCQwpndVN1ZP9FU1OqJDRcYITpUX937yS2f0GCs/P0tunSlgOZtt72uRS5ectbCyJsDp8rMDLNrBUj0gF8d5cI7R2GW2FdsS4zXh+IAc9WEfYcNN0xml9fyXuZoosGFSf50gnw7KsFj7qOkE7ESo7Hjx+juakJAr4YHE4mblyzxtdf/oTUlFSMDvcj0D8YP/+0H0GBoehob4ZMKsXVK5Y4dvg08lT5EPBF2LP7DxotpqerE8WFZcjkiPH5p9/jg03/DWGum5Hk/Skqc/chOewbXD/zAZzuXkF8VBIkQgF8vX3oZrskaouHhy9EfCE0ajXs7rkgN0cO+/tOcH7oDk46DxlcBSo0tbB38EZsXBqu37CBq6sXnSb96YdfkZIYh/CQMGQLuBAJuLh72xpdLTWIDPKnFqSers5Ijo+Bvd192NrYwcb6NuguFcHBiI+LZyPCeRVnXQkhyVdkbCM27pDM+gLOPji0kSTBqsm6Cw8OLho0No8axL/UsSGjiJq6YXgH1uCDb4iximGPlHxGLDfrGg0bhLWcGiVpIv6A/3jP2M7fWn/GY38WmMyLLk8Z3Ba8RUN6kYZloaCS0QQxOqE+f7fLUFH1yKjLCXHtIBavP/yWO7N2Y9hIEWF9e5sUP+7PwdSUaStDU0JIprxOXDK+rkjykp41YzRjMEJeWEakwa6oMR702pQQEtE4cs74evL4+DS+2yc3jHIzExaNrNcODRkaBen4L/ba1TWGTbvIGrfeqJDOZgjx+wnloj6F3iGV1KXGYFQ4U2+JmLy9TQBbxwo0NBmv92TknsHvwK5vZUZH3bpn4I1NPNg5G4/zSvaQJJ0Cwylq4vepXdf+Yq8cxN2GzHQYOx5PPQVZ+/vPj2aCmRvr8FjwqM+tsd8b+4ys+1WoNTh+7Cz27jkA61t3Ic9R4Po1a/yy9yDd4qijrQnRkTE4dvQsvD190N/bBZFAhHNnr2Dfr4dovE3bO/dhZ+OAlqY6KHJyERseAmHSLUjiP4Yq6yPk8Q9DGP0Hwtx+R0qMDVLio5GRJoRKoURsTAIKVIXgcSUoLdGgoqIWNrZuyM6WQ63WwOWhD+prqpCWloX01EzUVVUhPY0LmTQHMVGR6GyrR5C/H8qKixAXHQsnB3tUqNWwvHkHSfGJcHJwhMtDVxqkm+Trxo07uGfvAqeHHggJCUNUeCg8Xd3g4eEPW9v7dB3UGCtz/GzdCSEpxKPnVdj4Xg7IKFD38M69anduIA3eO9t5dPNSEvbJzacaXoHVcHSvxvU7ZdjzhxLv0L3wSMNk2Njrrkccpsn+afoHHZ3uNT6KJL/NECx/5KW79ulLZLd14le4UMRo+ix4KCxZusdvZVeKd6gVqv41ZkRkJuQVydfeQ7mwvldGmRBDFLLzxq7vpNrpZ2O99M1cvPFuJt6yEGLbV3lQa4xvFqzLz8DgFF0j07Gce+VRAyHdefqvxIjjy925M+t0xvKh3eSWjBznWzLOvw4Rwu/2k0g4C8WTGMEcOWsYBYf8VkR2jNjMpw26/u9IfbK6Oxcfdf69lvv+zOUi4wJEgq1vEaC4dPFpxYMnC/DOe1LDUeFsHrW7mZCO4G8n8nD7vpqWLQlRSLa9+ujbbNpR1AbI1uNCr6F9dr7YrUBvn3GXGxI15os9uTORfYyVjVYMyezGjwfkuO9SiYi4FiSmtSE0phk2Dmp89qPE+BLHgnwIlr27BhHBjrZ2nDt7Ef/851Z89OGXCAoIQX9fNyIjY3D29CU4OTqjv68HmRlZ2LP7N5w7cwFHDp3E1i0f4r3tH+Gbr7/H//gfb+LAbweRLeQhJSUNgZ53YH3mn8iK2I5q1UnEh16Gm6MjHjp6wMkpEMmJfFRXVKK8tBgVpcWoqSiDQiJAbrYADna2KFBkQSnl02nL/q5mCHlciPhcjA724dzp08jiJCMzNQlxMREQcjkQ8PhITkqBtdUd+PsFwt3VC1cvWcLN1RvW1na4euUW9u8/gocP3REdHYtbt2xx5/Y9pCQl0RikoaEhsLW5D0/PAHh7+aG6qnq5VXPdn7cuhbC1bQQffJ1DLRb1G6y5/8lDqm0Y6GfU9UJncKBd6Dc6JTP7MGrXKMganUBsGOWfBHUmOy7M3W9hw8LhrVwIUzjNWiE0IkJEIC9bLu1KQXrbB0/m443NxgR1YRqpheCMEQZpHEljvzgTsmbJw9/eywUna2kLQbKzOzEsMcbouJ4hhv6TaHWX7IJuYsNhMkLbKqAjR/3f6f4fHnlC17OM5Ye4yhg7bB+Ua+9pZIRCRrF5hUt3RIxdV/dZCoescRtbx9UK+w2bxYW2rn4AO74U4226FmxchLSsyXqmfgeP1HmBUX/T2fKx4OE/NvORlmFY33V5IK9CSTutp2TkOPvbec/N/9/eefhFdaX//9/5bXZTNvvdjSXGmLopm5iYZsqmaEwx0USjUWPDikovKh0B6b0PAzPMwNBh6B2k944URfP5vZ5zGWYYhjKKq16e+3qNIzDnnnPe58793HPOUwxtkGa/s5+ZNXKi31E7Fi+Xiic2pOOzXbnLroAY2jQ1NYWa6kp8+sl/8cpLb+HNN98Xy53KNAXc3a5g67sfYdsH2/He1k+wadNreGnL63hh8ytYv24z3nvvI2z/9Et89OHncHZ2E3FCdVnZCA+PxZ4fd8LWZicO//4D3vz3Nvzn9Vdx8tBHOLz/A3g6fY/rbl8jMXgX4sJP48zBT+B47H14XPoKpw+8i7OHtuK650HoMiIRE+qPKy4uuOx2Fe7O7kiOj8Oxo8exe/cvOHH0JPbu+Q3nz10Us9lzZy7C08Mbx4+fgp9vMEKCI3HgwGEkJ6cJi1aKNrPz2x+xZ88BHDt+GmFhoYiJjoaPty8cHV3g7+8PfUkBHO3d4O8XaEC05t9lKYQ0qpSs9t8f6GbDci11U5h/81/qC2j6N7qBGr7IWt3CmIc0a5GS6lq6GVAgcOv3kmgp8c2PLPkUShnJX3hbBXoIWO4YHpnGp98W4JnNFKnl3vpvuZwCz2zRIiFl8X1B07Z1dU8Kq0rzGTdxpYS8Sx2pymbhX7bYTXPj62os5bcmsTQkPZ7PYKeF9EndPRPY9IZl9xxabn/t/UzQOe/naGoewcbXLSyP0hhtSMNL76qEv+RSdVAM2pffWzwjhuVxm99/y59R4OnNangtY6FsaJujWzn+tolcXejc1n7/Fv88PYz985UMlFthdDMzcxt9PT3YvXsfnvvXC9j2/sfY8uKr+Mez6/H3Z9bhxc2v4c033sXnn38NF1dXHDl0HO+//ynKy/SYmhiFo70rdnzzAwoKisWsMU2hEKJy8JANQiMy4OEVjh9+2IePt72B/XveRXjg7wjz34fEsP3IiPsDdmd+QJD3WeRpIlFfnYu+nlYMDXTB3ycAfxy2gaO9CxzsHPHtjh/FzDTAzw+XLtjB7qI9PK9exbkztkiIjUJifIxYpnVx9oC3dyB++fUwfHyDRWg12/OXoM7MFr6MH374BVxdr0CTqUFISCh+2XMAHle94ecbiJDQUARc8xczS08PXwwOLr1qYxhPub/LVghp4PoHpvD5ruxFZ1GWv/DL3RSk2SLdmL74Ph85BZZnAb19U3hl6yJCs0GBoPB7M/s+cKzE8vIZ7b9szMAl58oVXbNkPPPHmdLZp2+zfal7EEcSr9c+yIY2xzIPS40iS8rnXlXir2YuDyRutGy21DE1PYM3PqCkrwtnhTST/W6RWZ3hnH0D03jpHdpLnj/eVJbcI8wP38B66aFqwWwwRYSWo+X01Th2/JS7iDGOtDwaGbfQFcS83q6eydk9XMsBJsz7vOTPG6SHrGdfUCAsZumZoHk7XL3qZ5c47//6ojbSdfHKe1rkFi69RGzeDvq5o70d7q5Xse397fhg2yf4z9vb8NlnXyE0LEQI38Hf/kBfH1lN34XtOTu89+52KFJScXdmEhdtHfD9tz8hOZl8CVtQVFgoliYP7D8iMss3NtxAXW09iosr0NDYjr7eIeFTODjQgcmbw5i4OYI//1xouVyQV4L9+36H3cVL8PHyFu1xsHNAmiIF58/aIuhaEIqLCmB75gI8r3ggISYSR44cx+4f98HV5Qou2tpjz57fEBISgdOnL+DsWXvodFmwu+QEfz9/+Ptdw3e79sLRyRXOTm4Iuh6GdKUKKcnJCAsOEy4ZlZVVlnCtud/JWghpNGlDPjSqTexFScsulmZo82+Glm8MJID0ZK7AZ98VLGtdWVk9LMzWLVkCUjtsHVcmWOZXZGhU8+yy1sI209Pyv15WorZu5aby6Zk9UpBvsRw1K/Jm4mCRx+zyLPWF+nj0TBloudGag8JjPb1p4XjQbJtmWGScstRhjCtqMoMQxlBpcPeybC1qOB+JsOWZikIsmdKM3nCMj98WEV6I72IsKLLRahy2DpTRwrJwkJvKR19ngeLHLneQsZbntUb88yWDgZVhBWPhdbOwTzQm0osCm2/fmYfKZVJCLdYetbYbb32cPWukttzSunnbDNej5Mj/1U956LnH2KL1dbUIDYnCB+9/infe3oatW7cLI5O6+lqcO3cJ297/DO6uHkhNTceF8w4iVNm5s5eQmqpE8PUwODtdRnRUPHRZ+aitrsPQ4JBwv5ianAKlXbqXY2R4BOdO28LmuA2iIyNxYP8h0NKnKj0DR/84gZPHbeDi5Ixf9uwTfwsO8Ed4cCC8PDzh7ekJVYYawSFR8PYKEMl+yTI0RaFAUmISPt3+FVJTk+HvH4iCgkIEBoXgkr0Lrl8PQ3FREQL8A3HF3QtJCcm4fdu67+299PVRLyN7ITQMAN0YgiNv4JMduSY55OjLPv+pWVrynL05z85UKEXMx1/nwMG9FhTBZiUH7RdRnFCyBHzxbfXca/PbajzzghJn7e9NCOsaR/Hqexo892r63DkN56cZDoVd8/C1bhOcov/HJXfgi+/zhBUsCZsQuNmboeFGaWBD1n/0mS3vZuLkhQq0ti+0ml0JI012j1huJMdyQx/onSxxt35K2TWWtsCMS2rDP15KBzE1lKecgy9v1UBfvvSSDxkW/evl+WW3/EctMh+8+2n2vFyCxIZSWZFzvKEeeqfPr3s1Q8SbLa1Y3M9vJSwMn0lI6RBZKyzVteF1Ff6+OQPZuQuX4g3lzd9J0K/41ItMGZLxF4nN7PW94IFHEj8aW+JIqbO0q5C4mR5Gaaw+/iYP/7dFEnlp/3m2vgXtMLRRgQ2vZeDH30qQV7j0eJr32/znrs5OhIdG4rXXtuKr/36Ht97chn/98wUEBYYKEaFZX2REDDI1OtTU1KGttR0d7R3o6+3H7dszmJm5Awq1tpoHGfGkpSqxc8cPOG1zGr/s+RVvvbkVNidtcPb0Oez56VcE+PnDwcFZZLOvqSgW6ZWCg4KQkBCHs2cvwsHBHdGR8QgLi4VanSVmhn5+fvht/xFcveoNrUaNX3/5HWq1FqkpaXCwd0VqigJRkdHw9vbD9YBgEUhgNfv1OJ5rzQih6eDUNowhOrEDl30axEzmp4NFoH2hnXuLRFqk347pccGpRmSgIKMWmj1Ye0xM3hEO1W0dE+jonDS+uibReGMcPX1L3+QXq4+sIOl8re1m5+2cRFfPlHDlILeQez0ocW1kfBtcPOpw8IQeP+4vwo6fC/Ht3iJhrn7qYiUovyMl/B0Zvb8nybHxGcGWcvOZMiInc+qfJUd4035N37orMn9YKkvivtQxfnNmQVlKpEt1N7fcnFd3Z/cUaurHhDia1kWfp1yUVGYxV4Cl2mDpb/TARvUvuG6IUdck6NpdLniCpfPSdVOkHxDLm45X6nDweKm41mls6dr/+WAJTpwvF2HQElM77/nhxlLdpr+rbxxDbHInPPzqceJcBX45rAflidy5h66xQuw5VCKS93pea0JCaocINmBa/n7+PzI8hOIiPYKvh0Ot1qDlRgva2zrQ3zeAW7fu71q+13ZRKDeyTt269WME+vvhu2934/gxG5Ee6dJ5O5DohYeGYvePe+Hj7Q1He0dhDRofEy2i01wPuo6ysjJERsQi5HowkhIT4OxyGeERUcJgRl9SiDJ9AeLiYnDqtC08PHyRm5uL4KAwJCWkiBBxZaVLB3a/1749TuXWpBBaGiC6USxmam/p82vpdyQqzEaeI/6oXPdr9fqiWWFIcBg+eH87tGoVEuPj8cN3e3DV3RWHDx7C97t+hq+PP07Z2MLJwUVktggJDkVqYgwyFPHI1qYjJiYGWdpsuLt6Iz5RAbVKjZxsFdxc3eDj7YehwW4cOnQMTk6u6OnuwNWrPlCkpSNTrRXWprk5uWveuZ6FUJ73N+4VE2ACjwmBwb5enLU5g6++3Ikjh//Atvc/wc8//YbQkEicPXNRZJTPz8mBnZ0TivKy4OflBc/LV+DnQzNEB8THJcDDIxDZ2YVQKFJRV10iDH1CgoNx7Ngp2Ns7ITtbizRFGtzcrsLV9TJ8fANRVVmFgtx8XHb3xODA/S09PyaoF20mC+GiaPgPTIAJMIEHT+DOzC34e3lj27bPcPr0RTg6usPDww+DvR2Ii47GFXd3NFQViCXTi7YXoVKm4oq7J/KyM5ASH43I8DA4O7vgivsVqDJUCA+PQWqqCg4OlxEcHIwDB47A2cUdZaV62Jw8i5QUhYhT+umn3+D82UsIuHYdVZWWIwU9+N4/GjWwED4a48CtYAJMYA0TKMrLxVdffY/Q4DCUF+dg754DCLoWgJSEWHz88VfiPVudhgu2jhjua4MqLQlnz5xHXVUJ/LyuwP2yB0JCYqBMy0R+gR5BQWFQpqXD1zcABQUFOHH8DH7ZewA5uhwkJaaK2eHhw8cRERmFTLVGWMKuYfxgIVzLo899ZwJM4JEgcPPmOH75+VfYHD+JuKgQfP/dbny3a48IuebnGwClMgPT452wv3QJx/6wQXpKIuztnJAQF4/mulI42jlCX1KCjtYmVFUUIzoqFgpFBupq60RS4OtBwXB0coNKpQU55Odk58HW1h4ODi4YHOhDmb78keDwsBrBQviwyHO9TIAJMIFZAndmZhAdEY5PPvwCx4+egLenB/bvP4Hunn60NFdj547v4ersioTYaLg4u6Oxrgrjw+0I9PNFd1czKsvycdrmLHRZOqSkalFQWI6sLB0qykvEkmlOTgGqqmuFk31xUSk+/uhL7NjxMzx9gmBn5ywsSNfyYLAQruXRf0T6TpZz92M1+KhYPj4snPfD7mG1metdSKC7sx2/HzgMu4vOqKmuwC979+P4sVNQKtNgY3MeSkUGgHF0NlcgIjQE6Yp4KJLikBSfgOG+TqQkJsDHOwBlej2a62uQGB8LZ2d31FTXiOwW1/yDER+XjN6eLkRExGDf/mMiVJy3jz/K9KsTGWlhrx6P38hKCOmGUKgfhCqrD7kFPcgp6ENe0aAIyURhmfKKhpCT34vcgl6kKLtRUGzZUoqco9V0jsIBaHR9aO9YWc4z8gGjRKE+gY04Y1eJkxeq4XS1EZFxTQuy2E9P34VS3Q1FRrcI00YOw7niNTDXXtFm+l3BAHLyepCd1wfKO0g+dtYc5OumzOyFLr9X9H8ek9nzExNNTh/Ih4wyM9y6fRc5BQPIyu2HJmcANUskhjVtC7HL0PQilzjnm/E3rUvXi6S0LpAvIR26vD6kawfEmGTqBkEJcC0d5K9XpB9EVu6AGOsERReaWyfFR8k3MDuvX7wytL3CH89wDmJJOSBpfIinxFtircuna2NQ+OjRGJoflJ6IPkPnJhbNN5YPqkDXIiXDVWmJQzdyxbU4ZDK20rjmFfSCovukpHeB2n8vB7U5M7sP2hzqG13f8/sn+lpAY0/XTxdq60dFNcWlQ+Jn+j1F+TG9/nLyJTbkV0r+mpaO6rpREGfxncrvnfddmztXQS+ycvoQl9QBCmtHR0/vlChHgQF0ed1iLEzHw9BeXV4vYhLbQfWshYPCsAUFBOGr/+6E/cWL+OPIcZw+bYexkX70dzUgMiwcxfkaZKnTcO6sHRLjEzE62CWS+UZFRAIzw9BkJAlxrKmsQHJKBiKjUlBf34rgwOsi3mhSolLEIO3u7hI+hUFB15GQkIz6+uWD5Mt5DGQlhOTv9tXuPBEVxXI4tRQ8aRLdnpx5zY/2zpvY8o4x8DFll9j1c475xxb83NU9gS+/zxdxQM3rptBc/3gpE95BxmDU5Py++W2KRbpUdA1jyCkpuLQUESQ2uWNB/Uv9IjymRYTtonZR/y2FFpMiyVDEmFQhtBRAmqKnUFQZqvuc/cr2EA6eoPilFHZNCr1miEpj+j5X1/pUNDRLoh4SVoW/b5FSPD25MR2vv5+BqamFwkDB1CnNEyX+feqFTNHGllZJmKTs8UqRJYPq9w4wfrm/+7VQYi36L3E0bRP9n3L5ffhNoRAVU54NTRQTVYppSm33XSJJrqEcCeGP+wtF+iQqQ1F5FnI3RPBJxcY3MoQTvaG8Ne99/dPY8Hr63HVv3i/62XD9UHYQF08pyS9lK6EclEtfgwp88FUusnJ6FjTpglOVyVhbDgsnjTVlu0hF/uyDZ3Ja51xuQilsnUmIvNkoM6LcbBg/F4/6BXXL9Rc3mpqx/ZMvcPrUeWjI+WF4AAAgAElEQVQ1Ovj6BKChphLdLZXC2OXkyUtobapHU00J8rKyUFepR3BggDCGaW2sRn9nA64HhUKpVKOnuwtDg4Mi0wTFUs3OLkJUZBzKyqoQER6FE8dPY3p6AuWlFejsWDqxt1x5G/olKyGkTh22KZv9cloWGOmGJMUu/OXIwogKsUltIhWNuEHMhhqjcFeNzYs/lfb1TYqUS09SvE768pLgbKREqLOxEulGuDENf9+SCQdXSVCkrOIGITQKnqWbmPS72ZvmBgXiUqy7aNMzKY/ebNiq2ZvLwnpmxWGjEk03booUN29/PJt7cH0KvAKaDNfMku9Ol+uMdS0Syku6yUlh2uoajVFwrnhVSRkL1ieLQNaGG7Zphd/uzcWTz6tEuqcnN6uRk2u8QXf3TooYpXTTp3GOMcnwcexsxRKhxYiNJAh0Y35yUyYSkowiSsHbN72VIYn7uhQkrzCX5NEz5RILcU1YFl+DQFHWCYomcy8HzSQpYbDh2l44thJrEjxi73RVEkLnKzWLptWic0nnk9jQA2GmloJSG4+A0BsmImqpf5Q0WnoIoHPlF0krMHmFA3hG5Pq0/B2lBwapfulhytVDaq+xZvn+b3JyEpcu2IMSAGtUGTh65DjsLtijqLAA0dFxyEhT4tZ4n5gV7t79K2KiYkC5DLWqdGhUKkxODKO2phwxkRGYHO9HYV6OyFUYHBoLX5/ryMvNR0JCGhSpyfDxCURGRiZUKhXqatcOY0tXj+yE8Oi5ytkbcSpe3qrGvqOlIsnrj78Vg167D0iv9z7Pgr37wpich0+Xi6dnenL+x+ZZgdqQDt8g443RHORlr1r8dX26lEVhXTL+OFOOwhJa3htBeEwrXntPM5vMNQ3PvKhC0+zSGsVQ/HRn7ly7aIYqpVmS6v3nS0r8dLBEhL+itu/4OR/bvshGpq7PvAlL/kzLZoabIwW5/uanAuw9rBchtgxcqJ4vfyzAtv/q0N4p3ZDf/TRr7mboe/3GknUY/ujq2TBXF8UQPXyqXLx+P1kOw+uwTanoE7XD/Ob/0++lIpXTE8+l4P9eykRNvXGJNDC0EX/doBYzt2dezISX//yZAi29/fsDSlMl8UtKM964bS5Wzf2e8kQ6e9TDwb0Odm51oDZTUlx6eHlinZRt4b8/FGJ6Wlompdnx5reNeQLT1EbxNfTb0vsxk2vxpXczceJ85QIWh2xK8f2+Inz3S4FYMrR0nuV+R+H8Pvw6d65/b3+Shd+OlYnryjC+dN3/sL8YWz/PRnCkFCDc3cs4VtS+Sy61gsdFl1o4Xq4Todek2aIkaJ/uKoDp0vH1iNa5Oik+LNX5x5mKuXGm8aYH031/6LF9Zw6qaqQE1oX6ITy72TiDpNyTxMZwfdD7IZsyEQaOBD4i1rqsF8vxetT/Xl5WjoP7j+CaXyDcXNzg6nIV42NDGBrohMfly/Dz9oZOq0ZkeBSKCih35i3UVZYgMICy2DejoboUPj5+IupMRGgkdLl6xCelCx/C/r5+eHn44PffT6G3rw/RUVFQpCjvOXD4o85ype2TnxCeoSd/6UZ49GzFkhzMjQxutIyJoMuU1JUEgTIK0JIYJQLduSd/0USgn39HNyHpafuH/YUL6kxSUKJSJZ56np6OlfALqlvwGcMvLvs0zrX/gy8tL8mat9tQdrF3UyF84S0VKLbncgfdXLd+pptri4/Jsu5SZV096+fKfLZr6ZyCdB7zvrR3jOHF/2SK4OFPbFBixx4pJVJf/yReekcjZmVPvaASy47mZXv75wthQqpx5mwqhAeOWzYMOO9QAaqTxPAfLyrR3SNlYR8auT23TEzXlkJlFNilWEizUOla/P2k5TqXKr/Svwkh/IpyEEp1LTd7N3Bz9TJeaxTn01K81OPnq8QyNK10PP2CAi1txgDrpkJIDyDLHYZ66SHx72JGKLX3XmL5LlfX4/z3sdFxXDzvICK+xMYmIiQ4HPVVehTlZMLhkhOCrl0H7sxgfGwYytRUNNXXoraqDMGBwejtaEJTjR4nj59EQZ4O5eV1qKupwRkbWwSHJCBDlY3ammqcsHGCo6Mbrl0LgDpDs+oBxR83/rIWQno6teYICGkE7U/RDWX/H9Ky6RsfasXNl/alyiosz8Q++iZP3CxI7PYdLl5Q5a1bd0XAYzI8aOuYxNDw4gG3na4YhYSyIKzGQYY/hpskLfM23TAuRy52fkkIs+fKeQca9zcXK0O/NxVCyvRxL0dUTD2efjFXmmFvSEdiSisuulTh/61Lx1OblHj5XR2abyxcql6pEO6bHVvztiUq2qUl0g0KrP+3Gr2zgdFN90vvVQgXq9O8Dffy882JGXxoIoQe/itbxjadvX+1u0AYSJnXH58sbRXQUuWTGxS4YRLQ3VQIKSPK1OwM2vwc5j+bC2Fdw/LGR+bnkPPPlNbJ1ysAV9w8oExT4fjRkzh14gxqqyvR0lSHyLBIjAz3oqG2EjbHzyAuJgHjQ73IzlShtrIEna3VsLd3RVdnB64HXkdRfi4SElKRnKLB0T9OIVtXjLLKauFXGBkRjdqaxR/M5czZtG+yFsLj51cuhHfu/omPv6EkvmSIkTqXOHffEb0Qgyc3ZuCii+Xz/XqkROxp0VMzGVw4ulWKJ2fTZSRT6Ev93+nygxVCSh1EVnvLHashhJ/uXHxGSLOPpTJEOLhXS8ugs3ubT22kfdc0PPWCBsmKdovNv18h/PlgodjjfeoFNX49YnygWQ0h3H9s4X60oRN07S3FwvC5xd7NhXDls3fj0uiuX4oszgidrtTiiXXSasdL72SBEk4bDlMhfO19jUUhpc9S/+hlOMyFsGGR7C7ExLScobzc3yndU1BQuAi+fdnlCgL8g+Du5onpqSmMDHbh0O9HEBAQCG1mJtxdPVFeosfdqSHERkYgNSUJfV2tSFNq0N9ZI4Jz5+aWiH3BtLR05OUW4fLV6zh/zk5EsampqkRvz8rTesmVvayF8NNvc4WJPmXWDotuQ2h0m0hD43S1XqRhMh3UyuohPLNZSmJKyzbkckBHkrJTWvbcmCYyzlOSVvOjqKQfT29WCSMbYWCwMV0YA3z4pQ7HzpaJOmk2uJLjQQsh7eXQ8mtccqdIWExcwmPa4BPYDDfvBgwMSglpV0MI178m7RHSns++o2ViD2n/0RL8dLAYn+zIQWW1tGdkicv09Aw++y4XT9De63rJqvCZ59Nx6sJCS19D+ZUK4StbM3HSthIHT0htOnG+Ah99TcvACjy5KR3vfa5F8w1j21ZDCOkBhOokFvtnWfx2rAQ/HSgWef+6updfrjb00/zdXAgppRK5B9HYildMK0KiWmHnVivcNwzlTWeEWz/XCfcZciMhNwxyUXH3qsezL0rfCXoQvOAyPx6lqRA++6ISJPa0J0yzX9ovpLHe83sJPvhSh6xc42qKuRBSGqbj5yvFfr5Urlg8iNCKwrWQle1NG/okl/fE+BS8t/UT+PkEoKe7Bxds7UU6pdLiPBw+cgpZmiyxN5iUkIiwkHDUVBShpEAHrSoDOm02fDwpFqkKbW0dwkDGxcUL2kwNenr78e2uXxEbHYvamiroi0tABjpr/ZC1EBqWA43vRis1Mg4xPc7YVUizuvUKYVBj+BvlxHvzI82cGCozjPtOhs/Qe3CElDleCKGYxRis5SRrxKeeJ8MXPXr7lr7oHrQQGllI+zPSz5LF31PPK1BVIwn2agihpboo4zmZ0pM1IfnYLXUkp7XhiXUZYkZOn//nKyp09xj3qMzLrlQIF7ZLsvSlGf2W/5CF8Pyl49UQQkt1Up+oTnonF417PcyFcEFdJpbCV32NRl+mQkhlyFhoXtnZFY5nt6hw9JR+Xo5GaqupEM4rN7tXKfo3u3ceEtk61z1zITQvK10jxCVVPKzMFVxD/9Fl5eHA/iPw9rqGns52nD93UcziCvILkKPTob+7DbcmhuDl6YkL5x3Q29WKP6cHEBcZhZjoGBTnZaMwvwTnLzjgRlMj0tPVcHXxxsTNmwgMDIa/XwCytFqUl5VyhnpAfrFGj5oYy5h/wehn+nLSi0TJcExO3gFZ2kkWcqliFmn4G72fOF8G+nKSaf2vh8hKy/Jxo3UMZ+yq8d7n2fi/l6Qn6b8KlwrJQu6ZLVn4z3YNhoeNy0vmZ/rfC6H0cCD2gDamraoQ0o2MZgpkIUjWqmQyL5nNkwgroMsbMO/+3M/j47ewfUe2mBE+sS5Z8hvclIHj5xf3Z1ypEFKbXt+mwZZ3MkWW+Ve2qoVR1FNiWTwZr39YCHW2cQazGkJIIkP10mqDgYNkMEJ7b2kr2redg2P2n2WFkK77jZILj4efcf/QXAjnvi8kzsK/MBX0AHf6kuUtAXMhpHE2H2shrhtSEZNg9H01F0LiQWxMudBDGT0kkDXpWjzy8grhaO+Oy65XER4aDlc3b4SFRgN/TkFfmIfgwCBkZ6YjOT4JsdHxGOrrwEBnA3KyNKivLsNgfy9cnS/j6hVP3JqeQnxMDE6ecsKXX+0We416fbFIydTW2rLmcxHS9SXrGeGHX+sQHtsOMvSgjNf07uHfKDJxR8YZTbIpwovkaE6ikAIyHNh7uBQ79hSKJT0SNoOIbnpDhcampZc5yTquvmkM0QntOGlbDvIRoxs/3dCf2aKF97WFbhuGL/uDFkK64VxyrRV7oMTEK6BZvOzdquHgXoP+2egfqzEj3PpZNiprRkDRZshkvqh0CCVlwyJiDUWVGRySlmENfTd9P3VRj7+sV+Nv61Pw9CbyGzQ8TGgQGW2c1ZiWWakQfr+vGCOjt0VfO7snRTta2idAwQBoj/evG9Pw7BYlmmeNioaG799qlDLBU+Z5YkEc5ljkDyBd03PPUWWo/+ZCSEuNEXHtc2NL1/0Vnwb8cboMurz+OWSmQkhLt+RKYutUAzvXGnz5QwGefD5DuM88sUGNyJiFBhWmQkgPFXlFAyivGpkba4pcQ7+jsSbOhsNcCONTOsUs3MCFytH/KRJQVe3S3zXDOeX23tR4A+4uHjhz5gJyc4uhztDC66oXujtbRB7CkydsMdDbg4kRcoGIhjZTjea6SpQUFqK2sky4U5QU5iIqMhmZKiX0+goEBYfh1dfeETkOuzpb0HqjEd3dK7OAlhtf8/7IWghXaizzx+ny2Qgb0ozRMDOce0Imx/B10lLi089nwDPQ6HxKG/oUgopChbW0jlu0nCspG8SGN6UlPnLc/vmQcTZqPiAPWgjphmdwCzCv2/Tn1RBC8ku8lyM2qQV/WUfBBlLxl+dScD2iCTYXa0BO3TQr3/SWBo1Nxj08Qx0rFcLFDFfoAWbrdo24+ZMI+M6O82q4TyznymPow728mwvhvRjLfGtmLEPGTHsPUaSkdFCgiHc+y8fA4PyVDFMhpBWVlR7mQtg8ux+/0vJr4XOTE5Mi5ujvh2xQX9eI0aE+/PbbITg5OKGuuhLaTC2GBnoxNT4MF0d3JCYkYXigG5kqNZpqy1FbqRfLpWfP2CI2NgEJCSlQqdSIjYpHZFQU4uMT0dZ6A5OT9xbEQW5jIGshPHJ68WU0w0C2to9h3asUSkzaH3nutQyQc/Hzb6jEa9ObKrF89uwWKawXWZXu+iXfUFzExnx1qwYbXlfhqedVyMoxLgHNfQgA+ReKyDPrUrBzb9Gi1nAPWgjv1X3CL3il7hNGS8TPv1vcatSUjen/m28MY+MbOvyFLBU3ZWLnHskvs6VtDP96iXwxlXjyBTV2/VqMmZn5MTBXKoQUTGCx44Mv1FKItvUpOHGhSnxs2MyPUJm5Qof6s8bgDov5Li7WDmt+by6E9+I+8bUF94mKqkE8uzlDiuLzvAY+gfNnhaZCSG5GFJ92JYe5ENbfx/7oSup7HD9DlqNXLvvg592/ISUxFTlatZjJZWZKvsWFudkgg5rysgokxiegsbYC0zf7oVWrRISZvq4biI+JRWhoLJoaahAcHIp0pQYel72EKBYX69HY0LDm/QcN18aaF8LQqKa5eJBPP69AqrIdFGSZrEbp1dI2IWZ8V/0l52NDSCx9mRQuqrRiUCyjibBqG9Kx69fcBU7i5Hv1wpsZoh4S3CNnFhfo5YRwcPiWsASkpS+/4Buoa1zeB8vUoV4KF7e8YYb5jJDqWuwggyIK1E2Hm4mT9nIzQpp1zMwYzerv3LmL737JwxPr1cJw4y/PpaK41BgY3d2rAn9/WYcnnkvG0y9qYec830l9pUJ44MT8coZ+Rcc34q/rksUeMo2Tm6d04zcXwqUiy5Av3eRs4G6yhDSsKiz3UEaibnCh0Ob0IyC0BYFhLQvinhraavpOY2XqR3jVz/LSsWkZ+r/p0uhifoQHjxWLIAO0NP2f7dkYGTUuZ5sK4XIzQnKDMIy1uRAaLLTN20c/ExNDOVpKDwpvFcv6xMbUlcNS2cf5d2TJGR4Sg6NHTmHfLweRo8tDri4PWZkq3L09JrLMe1z1x/BAj5gFRoSEoLW+HFVlJajQF6GlsRKazCykpamQnJSEawHhuB4Qgvy8Qpw8cR6U43B8bG0uO1u6LuQnhCKmpLSMuZxDPS2Fff1jntgLoRvfp7sWdwBvaBoVgZGFld9GJS65GJ+O9x4uEst2tAf41CYVyH8uOLIVNHMg8++3t+sk53BhtJCOsKjFRYVcOww3T0sO9bQHIxlZSH28Frr4uQwDbi6EK3Wop/oNbaE9oP9+nw+KdmP6ogg8z7+RIUznqT7adzSU+dfLFJGnUIR0o7Jf/mB8bd+Zi7c+0iJdYzRKcblah6deyMIT65Px9GYNXK4sNNL48QD5ddJ+IVmRaqDVGa14Kfi0CIAgrBZTkKQ07n/YXCBRkmb95PxN4c9ouZKuEXKfoBn7P16m5WvpMzTzzy+W2mYuhFTHF9/n4/0vdPNYfPDfbGx5R3KTIBZn7avnWNAKA+3d0czLnAWdZ9sXOrG/RuVIlAwMVxKUYJ4QrkuB5wod6t1MwuF9tbvQ4owuLaNz7sGAHgLTtcbZ8PVwY4g1uibpwYfG27x/n+3KxWvbNIiKl/w/zYXw429yBZt55X7Mxxff5+GVd9W45FIjLmXKFmPgQu/KFYa6E4Ufs3/GxsaF68Tu7/fC9oIburv7UF6cK/YJiwr10KizUJifj6mbQ8jTqhEdGYPOtibcne5HR3M11OnpyMrOh1alFNFkKPP9+XP2mBwfhaO9I06fusjWoibXhOyEkOIakuP1E+tT8dsSTszEoKxiAH/frBQ3P7IKvey9uBELfZ6yS/xNWLOl4eV3MzE8IkWIaWgcwatbs2azHtB+Ipl+SzdU6cY6+//n0/HDvqIFS3om44ELjpWShd+GNFDQa3OH4orqkXlxGgPDpbiRpucw/3+KsnNuD/S5V5Soa1h+Rjg6dhtvf6ydzdZh6Iskvoab0d9IcEQ/Ffjv99ISJjEUhi3zgjablSPLXRKcDQpEJXSJ5iYk1uMv6yXjDIrQ89YnOoyNLfTZ1Jf245ktmaBYpE9vSseGN7PnXCpo7/PVrZmSS8JGJSJijA8Jh05SpgWKB2uhL7NtFeb+FDB9Uwb+OG10gO/rn8KmN2mJULI4NvR//jv1Rwq6/uNv0tKrjW2Z8ZrYQAwWybKwXgGykqTUR3SQYY3h3CsJU0dj9RYFSJ/NrOG6wmwN9m41oh7isn2HDpOTC7N90Ez1zQ8l96EnNyqx4yfjtoDf9UapTuqbJa6zVtr0N7pWvAOl8aCUVGRFbOBtmYvRpcUQlYeMaAxc6D1ds7T7jfn34HH6mR7S3d09cPL4Obi6+CI+OhY1laW46nENxUVF6O5oEdai2aoMdDTXIk2RgabGajTXliFdkYK+njbERMbg2rUQFBaWICcrGyGhCSjXF6Gj/Qb6ent5WdTkgpCVENLFs3NvgRChvz2vxA+/Gr+0Jn2e++9vx/RSRoFZ8/KC4qW/WFd9642f36BASITRFJ1iMFKEGZG1YjaTgfjSzpqi//OlNGGNZ+nmPtcgyp5xijIW0M1agdc/0AiLQNO/kxWmacDi4Cijf5bp50z/HxZDT+7SOSkdFOXAW+7o6JoQs5snRF/mC5npzcjw/y++KxBLwmftKmdD0i1dRhLRdGTq+oWQkdBQWqUn1qeI6D7JqYsL/Hn7Ujy5SYUn1iWJbBW79uhEdyiG6obXKIUWmf8r4RNgDMq9ay9FjSFjqMXb9cwLShHU/HpE87yHlaYbo1gn0jBZENFZnzlprOnc5IeqF1Fafj+hFxaooq/ioWFh3dQeepkKIc0cDVxpdrjcMTA4PRsUXCHYnbpgeenX/DxHTpVJ9WxIw1sfa4Ulrfln6Gf6nCSy1FYFkmYj+9i71ZqNtWU+Uv8VwoqVzkdW2tQ/MU5LjIc0VgpQdCc6SiuH57hQeVrpkPNBvoSxsSmwPXcJrs4eKCoqh5enHxrq6zE6PABvD19UlJcDf04gK1OD3Cw1crMyERkRg7GhboSHhKG4uExEoImMSEBJsR5aTRaytTkYGx6SMzqr+yY7IaxvHBcm6mVVo2hsXnz/jESTTNmLS4dRUz+GyppR3Lq1MCmrKVHaH9GXD4sEruQO0Ng837mbzknO2LFJrcJNw927EVd8G5CY2rHi5L5kYk8uBtQeapdhf8TQDgrbRn8js3L63FIuCIYyFDOT2l1dNwZ9+ciSfoyGMuRbSU/gtBRLiVypLQtfoxKLkkGxl0f9p/aT6TvFj6RoOgvLjInz1TaMiWS3tOzY0T2FzOx+1DdK4yD1e3HDC9rDpfGlzxEHVVY/bk7cEaxKK0ZEm2lsu01CyVFbqD9SXxa2i5K/Utup3+YH7X8W6YeEK8hifaLfU/tp+a60YkjsbZERSHEZsaD6FtYp2NSNCt9NSoJsGEval6b2042f/r/cQXu0dE3QWJVWjqC9Y/kZP52TEjxTHWWVI4KjpaDb9DlKGVZcNiz6R6mUmmbjjdLeXmHJ4kypf8SbrgVKbGywDqV9bloepeANS3Ex8DREICLrbGortZletCQs1+PPP/+EvqQCYSGRuHjBCVHRqcjLzRNh0fJzc1FdXgZVhhZjo0OYGBtAhkIBnSYTIwNtaGqoFsG39SUlyMstRHJSMnS5hairqUZ2Vh6yNTrcvDn/3iVXjivtl6yEcKWdXs3P0c2fj/sjsBoMV+Mc99eLtVWaeT/Y8SYhzMspgN0FZ9jausDZ6Soa62tQlJ8PNxdPdLS1oaOtFWnJqagqLUGWJgcJ8akYG+2BvqhAiCFwG77e13Dlih+8vQORqdYAd24jyD8Yvb1Gf9IH25PH4+wshI/HOHErmQATWEMESAhzdPlwc/bC4YPH4ecTiIa6OmRrshAaEo2bNycwPDgIfy8/TE2MobOjHVqVGlp1JhITkjHU34XutkboC/OhVGTA9pwDFMlKBF0LhLPTlTWff9D8UmIhNCfCPzMBJsAEHgECba3tOHPqEuwuOcHXOwAJcSmoraqFOj0TFeVlKC4sQHFRKSZvjmFitB+lhflorKsG7k7gRlMdcrOzMTM9gvjYePj6BiAkKAQB/oHo7JAM1B6BLj4yTWAhfGSGghvCBJgAEzASmJiYxLkzl+Ds4ApPj2uIi1ViZLAX6gwVzp66IIJxFxaUIk2hQlNtNZRpSjTUVQEzo8KqtLysTMQVrSgrg0atQdC1a9BmrjwCkLEl8v8fC6H8x5h7yASYwGNIYHJyCp5XfHHJ1gmJielISlSiorRU+AgmJ6VRuAH0dHVAmZqG7rYG6LJyEBkWh6E+yZJ8ZLAPocGRiIlORnV5CVIT45GXs7Ql/WOIaVWazEK4Khj5JEyACTCB1SUwNjoGZ8fLcHPzQlFBERQpGQi4FiqizJTpyzDU143e7nbk63TCXeLmcA8aqitRWlKEyfER4PYYWpvqUZhfjO72JpQVFWB4iN0mLI0SC6ElKvw7JsAEmMBDJjA2Og5nx6twdfEQcUGLC0qQEJ+CkaFBaFSZiItJQL4uR/gGKhUKjAz04c7MLWRrs9BUX48/Z8iN5k/MTE+gOE+H0OAIjiazyJiyEC4Chn/NBJgAE3iYBCjeqLenP65du47k5HRoM3OQnZUvZoLqjAzY2jphZKgftTW18PEJQEdrE+7euY2J8THx2ZqqakzcHAfu3kJLUwM0Ki0WBEJ+mB18hOpmIXyEBoObwgSYABMwJUDGLbZnHRATnYKuzi5ka/NRXUl5B/OgzsjE2Mgg+rrb0NlSK2aCVeWVmJmehL6kDJkqLWIi4zAxNoiu9ja0t0qxXk3Pz/+XCLAQ8pXABJgAE3hECRQV6HHujCPKy6tFC2Oi4uFwyQ03GhvEcmlQYCQqSoooPTNKiopRkF+IjtZWsRx6585tdLW3oDAnG4H+wZianJ9P8hHt8kNpFgvhQ8HOlTIBJsAEliZw69YtZKRpERQYJlIwTYyPCqG77OaL0eF+tLe1wNvzGlobqzE93o+hfkrMq0FcTBLGRijM3x3gz2k0N9ZBp9VxkO0lcLMQLgGH/8QEmAATeFgEpqdvISM9E0GBISKyTEqiApUV1SgpLkW5Xo/qinK0NNSgsaYcWZmZuDk6AH1xGfJz81FcUISYqETcmrqJwb5u9PXJO0D5/Y4RC+H9EuTyTIAJMIEHQGBqagpZ6iwhgh5XfeDgeBk1NQ2YmhjH0aNnhEBStfk6LTLSVWJJdKC3G9OTo+jr6YI2U4vSwkIkxiXh1rSUMu4BNFMWp2QhlMUwcieYABOQG4GZmRkRUi04KAwXztvD3f0amhpbcHN8EMeOnkJKkgK3JodQU16M0uJilJaUoru9DWMjfbhzZxp3bk0gPycX2VmLJxyXG7N77Q8L4b2S43JMgAkwgQdMoLenF1fcPXH4iI1Iy1SUX4TYyCjhJ9jW2oboiEj0dDQKIYyOSkCGUo3Gugr0dFE+zz/R3tqKocHBB9zKx//0LISP/xhyD5gAE5ApgfHxcRz6/QROnbQVPoHRUfEia/3N8ZuYmpxAXEw0WmS/TaAAAAmRSURBVBprUFmqF+4SJYX5iI6IRkJ8AmqqalBdXQfKZMHH0gRYCJfmw39lAkyACTw0At3dvTh7+hLOnb6I+tp6aDK0SIhLhr64FGUlejTXVyItJVkYz7TfaMCdmWHkZmtQkJuD5KQMdHV2P7S2P04VsxA+TqPFbWUCTGBNEejp7kWAXzBsTpzH+bN2KNOXAjMTcHZ0FdFkutsbEB4SitiYJJGhvqI0H60tTSKUGi2jTk+x7+BKLhgWwpVQ4s8wASbABB4CgcGBYcRFJ+K7b38SS6JDA4OYnhqDg50LgoIiUFyQI6LM5OhyUFNRCruLjijTF6G2uhY3mm88hBY/nlWyED6e48atZgJMYA0Q6OvrR1wMCeHPuHDRTViGRoWHIz+3ABpVBgL9KXN9NerqatHf14fo0CDkaDUIuR6FqanJNUBodbrIQrg6HPksTIAJMIFVJzA+fhPRkTE4dPAYvD2DcM0/ECdPnBOGM7WV5UiKT0FkeBQUKUrhVD/Y34n+3j5UlFZwgG0rRoOF0ApY/FEmwASYwP+aQI4uH2dOXYKbiwcuXXRCRHgM+rpa0dJUJ15ZGi10Wbnw9fJCZbkeuTmFILcLPlZOgIVw5az4k0yACTCB/zmB9rYuONq74/PPvsZld0801tXB1zsAjXVV0OdpMTo6itGRQagViVCmpiMvt4jjilo5SiyEVgLjjzMBJsAE/pcEGhuahHHM9u3fIDcnD2PD/fDyDhL7g1fdvDDUP4jWphpMTYyi5UYL6mrq/5fNk0VdLISyGEbuBBNgAnIlcKOpBfaXHHHo9+MIuBaC2uoatDQ3ITgwCBlKDTLT1VClpeLm+Cj0RaUYGx2VK4oH1i8WwgeGlk/MBJgAE7h/AoMDg4iMiMEFWycc2H8U8fFKtDbVoiBPiiGqVmXAy8MXeTlF6O7suv8KKTjbn3+uqeVVFsJVuWz4JEyACTCBB0Pg9u3byM8rgbODO06dvIC8nAL4eHihTF8uHOd1WVpUV1VBq8nFrelbq9aItRSajYVw1S4bPhETYAJM4MEQKCkph90FJ3h6XBPuEkcOn0RBfokwnklPU6JMX4maqtoHU/kaOCsL4RoYZO4iE2ACjy+Bu3fvoiCvEMePnsX5cw6wOXEGKmUGCgoKsHPHj0hKUkKp0ODmzZuPbycfcstZCB/yAHD1TIAJMIGlCMzM3BGBtm3P2ePksdNwsnfFjaZWeHv54sD+wwgLS0R5WcVSp+C/LUOAhXAZQPxnJsAEmMDDJtDU2AQnezecPH4GkRFx0GTm4tCBYwgKCEFCvAKUlomPeyfAQnjv7LgkE2ACTOB/RkCVroHdJWdk6/IRGhyJc2cuQK3SorK8+n/WBrlWxEIo15HlfjEBJiArAoX5JSjML0CGUgVnh8sIDgpDujKT9wZXYZRZCFcBIp+CCTABJvAgCZDBTGVFNRpr65CtyUZighLJCWm40dzyIKtdM+dmIVwzQ80dZQJM4HElQELY2tyCjrZ2jI+NQ5GqQkqSEjMzM49rlx6pdrMQPlLDwY1hAkyACVgmMHNbEr1bt25DnZGFwcEhyx/k31pNgIXQamRcgAkwASbABOREgIVQTqPJfWECTIAJMAGrCbAQWo2MCzABJsAEmICcCLAQymk0uS9MgAkwASZgNQEWQquRcQEmwASYABOQEwEWQjmNJveFCTABJsAErCbAQmg1Mi7ABJgAE2ACciLAQiin0eS+MAEmwASYgNUEWAitRsYFmAATYAJMQE4EWAjlNJrcFybABJgAE7CaAAuh1ci4ABNgAkyACciJAAuhnEaT+8IEmAATYAJWE2AhtBoZF2ACTIAJMAE5EWAhlNNocl+YABNgAkzAagIshFYj4wJMgAkwASYgJwIshHIaTe4LE2ACTIAJWE2AhdBqZFyACTABJsAE5ESAhVBOo8l9YQJMgAkwAasJsBBajYwLMAEmwASYgJwIsBDKaTS5L0yACTABJmA1ARZCq5FxASbABJgAE5ATARZCOY0m94UJMAEmwASsJsBCaDUyLsAEmAATYAJyIsBCKKfR5L4wASbABJiA1QRYCK1GxgWYABNgAkxATgRYCOU0mtwXJsAEmAATsJoAC6HVyLgAE2ACTIAJyIkAC6GcRpP7wgSYABNgAlYTYCG0GhkXYAJMgAkwATkRYCGU02hyX5gAE2ACTMBqAiyEViPjAkyACTABJiAnAiyEchpN7gsTYAJMgAlYTYCF0GpkXIAJMAEmwATkRICFUE6jyX1hAkyACTABqwmwEFqNjAswASbABJiAnAiwEMppNLkvTIAJMAEmYDUBFkKrkXEBJsAEmAATkBMBFkI5jSb3hQkwASbABKwmwEJoNTIuwASYABNgAnIiwEIop9HkvjABJsAEmIDVBFgIrUbGBZgAE2ACTEBOBFgI5TSa3BcmwASYABOwmgALodXIuAATYAJMgAnIiQALoZxGk/vCBJgAE2ACVhNgIbQaGRdgAkyACTABORFgIZTTaHJfmAATYAJMwGoCLIRWI+MCTIAJMAEmICcCLIRyGk3uCxNgAkyACVhNgIXQamRcgAkwASbABOREgIVQTqPJfWECTIAJMAGrCbAQWo2MCzABJsAEmICcCLAQymk0uS9MgAkwASZgNQEWQquRcQEmwASYABOQEwEWQjmNJveFCTABJsAErCbAQmg1Mi7ABJgAE2ACciLAQiin0eS+MAEmwASYgNUEWAitRsYFmAATYAJMQE4EWAjlNJrcFybABJgAE7CaAAuh1ci4ABNgAkyACciJAAuhnEaT+8IEmAATYAJWE2AhtBoZF2ACTIAJMAE5EWAhlNNocl+YABNgAkzAagIshFYj4wJMgAkwASYgJwIshHIaTe4LE2ACTIAJWE2AhdBqZFyACTABJsAE5ESAhVBOo8l9YQJMgAkwAasJsBBajYwLMAEmwASYgJwIsBDKaTS5L0yACTABJmA1ARZCq5FxASbABJgAE5ATARZCOY0m94UJMAEmwASsJsBCaDUyLsAEmAATYAJyIsBCKKfR5L4wASbABJiA1QRYCK1GxgWYABNgAkxATgRYCOU0mtwXJsAEmAATsJoAC6HVyLgAE2ACTIAJyIkAC6GcRpP7wgSYABNgAlYTYCG0GhkXYAJMgAkwATkRYCGU02hyX5gAE2ACTMBqAiyEViPjAkyACTABJiAnAiyEchpN7gsTYAJMgAlYTYCF0GpkXIAJMAEmwATkRICFUE6jyX1hAkyACTABqwmwEFqNjAswASbABJiAnAj8f1Q4Famc5qSBAAAAAElFTkSuQmCC;" vertex="1" parent="1">
          <mxGeometry x="470" y="630" width="150" height="100" as="geometry" />
        </mxCell>
        <mxCell id="NBOFakv1QSHkQPqulemf-6" value="" style="shape=image;verticalLabelPosition=bottom;labelBackgroundColor=#ffffff;verticalAlign=top;aspect=fixed;imageAspect=0;image=data:image/png,iVBORw0KGgoAAAANSUhEUgAAAhwAAAB0CAYAAADOxutiAAAgAElEQVR4Aey993dVVdc2/P4H3y/feL/7uW0oCtJCSCWh916lShOQYqMpRUBFEQsoiCIoIIJiA1GE9OSk9957JaQ3khA6XN+45jo7PTknDbjvZ+8x9jjJqXvPNddc15rlmv8H+qFLQJeALgFdAroEdAnoEuhhCfyfHv5+/et1CegS0CWgS0CXgC4BXQLQAYeuBLoEdAnoEtAloEtAl0CPS0AHHD0uYv0HdAnoEtAloEtAl4AuAR1w6DqgS0CXgC4BXQK6BHQJ9LgEdMDR4yLWf0CXgC4BXQK6BHQJ6BLQAYeuA7oEdAnoEtAloEtAl0CPS0AHHD0uYv0HdAnoEtAloEtAl4AuAR1w6DqgS0CXgC4BXQK6BHQJ9LgEdMDR4yLWf0CXgC4BXQK6BHQJ6BLQAYeuA7oEdAnoEtAloEtAl0CPS0AHHD0uYv0HdAnoEtAloEtAl4AuAR1w6DqgS0CXgC4BXQK6BHQJ9LgEdMDR4yLWf0CXgC4BXQK6BHQJ6BLQAYeuA7oEdAnoEtAloEtAl0CPS0AHHD0uYv0HdAnoEtAloEtAl4AuAR1w6DqgS0CXgC4BXQK6BHQJ9LgEdMDR4yLWf0CXgC4BXQK6BHQJ6BLQAYeuA7oEdAnoEtAloEtAl0CPS0AHHD0uYv0HdAnoEtAloEtAl4AuAR1w6DqgS0CXgC4BXQK6BHQJ9LgEdMDR4yLWf0CXgC4BXQK6BHQJ6BLQAYeuA7oEdAnoEtAloEtAl0CPS0AHHD0uYv0HdAnoEtAloEtAl4AuAR1w6DqgS0CXgC4BXQK6BHQJ9LgEdMDR4yLWf0CXgC4BXQK6BHQJ6BL4jwMcDx48wL17D3Dnzn3cunUfdXX3UF1zB5VVt1FWfgulZbdQUnoLxaU3UVJ6U/4vr7iNqmt3UFN7Fzdu3MPt2/dx994D3H/wAA90HfhfIQFNbzj2dTfuoqb2Dqqu3UZ5RWOduYWSsptylpbfQnnlbdGtuhv3cIs6c/cBHugK879CX/SbfPQS4FzTbP3NW/dwve4uqqvvoLKyma0voc2nrb8pawDXAs7velv/Hz5vm8jh5j3UXm9Y74pLbqKg6AauFt5AfoE6+TefKyy+IXKpqLz12MjjPwpwECDcuasWDC4WFHZO7nUkpVxDeHQFAkLK4BNQCi+/Enj4FsPTtxje/iUIDC1DVFwlUtJrkH+1DhUVN3H9+h3cvnMP9+/rK8ijNy09ewUc4jt3H+B63T0QfF65WoeUtGuIiq1AYEip6IinL3WmBF5+xfAOKIZvYAlCI8pEt/KuXBdjRiNGoEvwoh+6BHQJ9KwECDbq6u6iquoWikvqkJNXg8TkKoRH0daXwjugBDJvffhYDJ+AEgQGlyIyugJpGTXIL6gTAFJbe1c2Cz17tT337ZocCKQIIjKyasR2+QeVwN1QiEuuV3Hhcj7O/5OPP//Jx4VL+bjofBXO7gXw8i1CSHgZktOuid0rq7iN2rp7suHuuStu+5sfa8DB3Sh3oFfyryMtsxqxiVUIjiiHwb8Ezh6FItiz53Jx4qcsfPV9Oj7/OhWfHEzB3i+S8dGBJDn3fZmEA1+n4MiJDJw6m4M//rqCy65X4eFThMCwMsQmXkNGdq0gQoIYLig9dVBxbty8h5KyW0hKrUZUbCViE6qQkHxN/k9Jq0Zqeo06M2pk0qRn1kDOrFqkd+eZWYt0OWtEgTOza5GTd10mKb1DFVW3ZUdBT9B/2iF6U3lLJhgNT0x8FQLDysUoXXItwB9/5eHUz1k4cjxddOOTL5Ow9wB1Jhl7v0gCdebTQ8k4dDQVJ3/Kwq9/5uLvy/lw8ypEAA1aTCWSUqqRnXtddhD0nNH78bAOpUd3ZW5k5dYKkE7NqEUax7MDOsL3J6fVyGdoyOgpJKB/XI6G+V8nc4HXymvOMPMe+V5uMlLSq5GaUYO8/DrUXr8rm4xHgRll4bhxVxZBzjftfswes8xakYPYCOP9UPf4vY/ifrpLT7QdPDcERSU3kZlTi6TUa4iIroC3XzGc3Apw4fIV/HI+B8dPZ+LwsXTs/zoF+w7Sxifjo/3J2HsgCZ8cTMaBwyn45vt0/PhLNv74Ow8XXZStDw4vl/WDesANB+0bbTFl97gd1Ht6JbjuUXcjYirg7V+My24F+POfKzjzew6OnEjH518lY89nCdj5URy2fhCLt9+LxTu7Y7H1/Vjs+DAO7+2Lx8cHEnHwW2XHfrtwBRedC+Dpw81UBRKSroF6WFRyQ7y+3Hz3tB491oCDYCM4rAS//ZmFg98mY/ueWKx6KwLzXgnB9EWBmPSSPybO9cP42b4YM9MHo2f4YNR0b4yc1nCOmuaN0dN9MHaWL8bP8ZPPTFvoj9lLA7Di9VDs+DAe3xzPwD8uVxGbUClu9p5SQCp4QeEN2VF/+HkS1m2JxJZdMdi1Nx4f7VcT5rOvUrD/61Qc+CYNXxxJE2XhwnfoWBoOfZfefeexdBw6mi7fe/j7dBw9lYFTv2bj3D9X4O5dhPDocnAxoxvzP+1gKCQkohy/XcjDF0dS8c57sVi2PgyzlwSCYz95nh8mzPHF2Jm+ohvUkZHTfIyn0h3qEXWKOjPxJX9MmueHGYsDsGh1MF57OxJ7PksUMOLlU4S09GpxWT4sOd24eRdXC68jKKwU35/Owr6DKdh/OA1fHuF4puMrM/SE76F+EWh9dSxdjFli8jVxWT+s+zD1OzL/w8sE8B34JlUWly+PpOHwdxkm75H39+W3afjsUAo+PZiM/YdT8Ov5XAErDMU+Cs8mQ3MEPX5BpbIBouw5BuaO18GjaThwOBWf00YcTsHZ87lIy6x5bBdOU+OrvS4A+sY92fC4eBXi2I8Z2PNZPF5/JwLzVwZh6kJ/TFkQILZ7/Gw/jOG8rbf1Phg5lXPXG6Omcw3wFVs/QWy9HybP98PsZYFY8XoYtuyOwf7Dyfj9z1xERJWjoLBOZKddx+PyWFF5G6GR5aL3nxxKwhvbojB/ZTCmzvfHlHlqzeN6xvsdOdUbw6d4Y9hkAxwnGzBskkH+5nMjpiq7NmaGLyi3SS/5YfI8f8xZFoRXN0Rg5954HDmZARfPQuReqcWtWwqM96QcHivAwTgdwyTc0UfHVcHZvRAHv03Bxh2RWLAySBYAixEeeG6IC54ceBn/7n8JTw64jKcGXsbTg5zkfMbCCTx7DVan9v/Tg9T7nhjghCcH8D2XMcDRVZRzyVoCjzgcO5UBN0OReB242y+vvCX5Ht01AFy8s3Kvg0hz7vIgWAx3x7BJXgKYpi0MwKwlgZizNAgvLQ/CvBXBmP9KMBauDMaiVcFYtDoEi17lGWo8tf8797hwdQgWrgrBwtXBeHlNiExIAUDvxWDP54n46rs0/HI+D97+pTIW3HFwZ8CcmZ5GwR2VN4Hc1cI6JKdVIzK2Ek7Um6Np2LAjWmRIg9TP3k30g3qjdKZ9faHePG3hhKcGOYE68z/9LovOPW/tAusxnpi6wF8m7d79iTj9a7aEYuKTriHvap2A1p70lDG0k5ZxDecv5mH925GYujAAc5ZSX0JETxaLnrSvF4vXhGDeK8Gg3i1ZE4qP9yfikku+ePo6Kv+eej/n4Olfs7B5V7Rc69SFgXKPL68Jhal75P0tWBWM2UuDZF5xTu3el4CI6Epw4X8UO9uyilsICC3BtyfT8crr4Zi6IEDui9eq5nbbj3wP5yrvY87SQAHPb++KhZtXEa4W1Em+Qk+NQ3d/r+bRoB7nXqlDbHwV/AJL8cv5XLz/aYJsBKfM94PtWA/0tnLGEwM495zw5EBnPDWw/Xn7tIUznh6k3sd5/kT/S7IW0NYPn2LAS8sDsXFHNA4fS8OFS1ck3E6vB/P/bj4ij4fmycvOrUV0HO1XAb46moqN26NkY2w3wVPk0Hy9U+ucM54d7IxnLZ3UOdgJz/K05HPO6DW4QR5P9L+M/3nxEnpZOGPwcA+Mn+UrG7H3P02UzRnDywnJVWJLaVN74nisAAfBBmNSh46m4Y2t0Zi7PBhEqsMme8NmrAGDR3ii/1A39LV1QR8bV7xg44o+/NvWBX1tXZuedq7oy7P+eb5HfY6f7WvrhgEO7rAc6QHbsV5wnGSQ36IR3rI7Fqd+yUJIRJmAju4SPBdrTjDuvLlgUTH6D3WX+7Ia5Qnr0Z6wGu0hp/UYD9iM8ZRrsx1rgM0YL1iP8ZLn+Hz3nbx/T9iN84L9BIWSiYy5g5iywB+L1oTijW3R2PN5An77Mxe5eddx/zFz4RJs/H35CvZ9kYi1myIxe2kwxs3yg8NEA2xGe8BimDv62bk16IyMv9KHev1ooS9Kd/rYUGdcjLpGnXLDAEd3DBnlCfvxBtldcOdAz8f2D2NlV0KjwfBcTx0MfSSmVOGHn7PEY9PH1lUMCPXHbL0YSz3zxKARXnCY5I35KwKw/6tEpKZX99Rld/h76fLd+WEcJsz2lflvMYLzwxM2Y824z7Ee4BziOHFucfFaszEc/sGlkhfwKAAHF5Qffs7Aus3hGDHVR+zPkFEesBmr5nq7Yyfv8RAbYTnCEwMdPTB9YQC+OpqCoNASCa91WMCP6AOU/c2bd8Uz+NOvudjxQTyWrA2T3feIKT5i84aM9MQgR3e8aKvmLW13U/tttO0t5q32PuO8tVa2nnbWYjh1grbeG+Nm+srmjvaC3jP/4BIUFtUJ6HjYYhFPXmgpTpzOwJtbIzBzsb9cn+MEbxnvgcPcxe7Ieme0R5o8XrRzgTpd8aJdw6m9rj02tWNuat0ZTt0zYMQ0X/EgvfJGGD7cnyj5IEw87YnjkQIOujVv3boHVgQkpFTjoksBPvw8UXb0BAG9rVzxnJUrelu74QUbd/S1VQtHf3s3DBjqLhN2gAOBgyvUI/9u61TvoeIRaAx05KObDNLzVi54ZpAzelm44AVrImFvrNkUgUPHUuHhXSQ5Doz9dvWgB4cxyr+drmLm4gDxxPS2dsULxkklC5u1C7iLft7aWR6pZC/YuOF5a1fwOp+3cjae/Ls7TvV9va1c0HuIC54jKubOfsBlub4+dq6wHeeFqQv8ZGfwy7k8REZXSq5HzfWHm7ugyZ8Gi8lkzDuIS7wmiVLb34/FzEX+GDLSA89Zugjq5728YE0D5CoeDo69dpqtN0ONuiX6ws9TZ9zARZ4y427qGQtnAb2jZ3rjre1ROHYqUxLaeiokpTwc1Th1NgvjZvmoXctgjqP5+sCdI6//OSt39HPwgONEd2zeGSFhRU3Oj+qRO2DmxASHl2HFa6HoZ+eK563d0HtI4zlg6l6VPGhDOFaDhrlh5ZthkiRMm/MoQipMbt/zaRwmveSDAY4eeMbCVby1ak6bcz/KJtDD+/QgVwyd4I2NOyLw+4UsXLl6/VENl9m/S69fVdVtZOXUIjC0VADz+i1RGDvTT+bnU0YbzHHuY+OGfvZqvip77YaBjpoNb8vGc11wVadxTdDmO7/rRTt3vGDtJjLnnKVtIEiftyJIcraY7xGTUCU2mra6pw/N4+3lW4yvjqZh9ZthsB1HvbiMXoOc8dxgV7le2pt+Du7o7+iO/g4EC5RD87OpTPieJu8z2jF+B79LbJiNsmG9LNX6N8jRQzyezAf581K+5BVeq77TrUnyjxRwcOKznMknsETcnYwtMS7FXUx/B3f0sXNDX3tXvGhvXDAEaFCpmgq3bZBh+n0cFCJDejx4ciC4e6BXgbF7Gqmvj6dL7LerCsgETCoZs6mXrgtVixfvz4731/rJe1f33/rrbX2uo89rv6OhZA0Z83+1o/eCw0QfjJ/lj9ffjsL5S1eQllWNmut3uiqWDn+eYCP3Sg1cPAqw9f14zFgUhOGTvcVbxQmpPFtqLCkHNfFM64I5eqRNZH6v6A29JTYcIzcMGu4B+wnemLYwEOvfjsD3pzOQmVPTrROWwqLrt6j4hiSyErgSINJ4tqdHzfVB2xX1tfNAfwcPWI1yw/rNYZL93uEB6eYPcJ7U1t2VxG7m3Tw90EkAtxhemScubc6XhvtUOz8Cdm4uhk82YMvOGHFZP4zkuNZEQs/Xm1sjxaNImb9gS8Pvin525tyPmv+ic3bu6GPrBbtxPli40h8HjyRIiK2133ycnmOVRVRsuXiPV28Ix+iZPrAbZ4DFcE+ZPwSG3BwoPebC2j1zlvOa38Wzft4aNyHUDXrBHCZ7Y8HqEHz6VbIkh3Nj2NMHw+vfn8nG+i3RmDI/QLwN1Is+XItoU3iNdt1rvzQbRzvWj2ufvRYJoHzcQe8ZN9wzXw6QhNS4xKpupQN4JIBDId07Uo3B0h1WBjA5j7uRZy1dBIHKrpRK4uCK/o6u6lHbbdZ7NYy7zza9Gq0prEKG2sKhHpWwKXDG+hly6TWYOw5X2TEzx+PsuStISq0Rvo979zpXGik7t3sPEBpZgTUbI2WBpAJwEmjXoymE9tjwvIZoW7un7niu5fc3TFCCMXc8Z+mK/3nxMmzGeuHt9+Lw219XEJdYifKKm7h9u+d3BOTCKCu/bfRq5GHX3jiMnOqLXoOV3lB/uCgp42L0ZtDYtNgNdEJvtJ2T8VHTG3ralN64iyeql4XanQ2d4ImVb4bizG85UiVDt2l38Xhw/ly7dlvCj/NfCcIL1s7iVuU1aXpj6lG7/n7UebkHVyxbFyKu5Zu37uLeIywX13Jyzv19RRLd/t3/sngeKWd1X+bcp5pTtCOWIzwkLLN7b7xUhPX0QtL8+2kv6uruwDegGEvWhqhFb6gH+g31UItqh8eNO10DrEZ7Y8wML7zzXoQs5Hfvds4uNb/e7v5fjecNBIWW4btTGVi7KQKDR3rgXy9eFjtLe0u7y82C5qFobvc0wGBKr1u+ruya9n2a3tNrQn3iRuE5KxfJ0eo31A1zlwWBCf2uXsXIyq2TUvrulge95elZNTh/MR+vboiC/QQf9LFxFzvWh158mY+0Y43WBc3+dGita2VdqP+exnLh+9TaR086PWjM/5gy3x/fn85GTMI1Cdl1h349EsBRWXUHUbFVOPlTNpasC4XdeC8MHOaJvnYMm3DRUIifAm+pQE2FqA2KeD0EEStBNrictPdrz2v/t/7I7yMAUDt8tYDZjvPGzCWMb6UhMqYcdXW3QCPSmYMcDixzYuyQ8Vt6D2Sy1bvAWr8uU3Loqde1ic5rpOeA4R664IdODsDS16Jx7GQaQkKLBHR0Rh4d+QzBhn9IOQ5/n4GFq4IlLi+eMO4IjF4i0ZkO6U1jF6ymI40mej1YaX9cFDgjMFM6w50Tw4IMeby9OwYsy+OuvTvKjLWQEjlmmEj4go3ybpgzXxr0RM0tGl3mpTw3xBWzlgThL6crKCx+NLFsTRfodo+OrZDSv7Gz/cBEQMq1Y55NNY+5mBFwTJ7rhw8+SUBiyjXtZx7a440bd5CfX4Vzf2VhxmJ/PDuE46VCu2p+qbFoGJu2dU3sHRcdR091OrhhydpgePkUoLr6Vo+W9XdWYMwHYFn5e/sSMPPlIFiNNuBFew8VLrB1RX974xw0Y95qMhI5yPsb5ixtfsvnW5dlg13jfFX5gJwHg0e4Sy7f+i0xOHEmF9m5dZ297TY/x6KIr46lgRvZYVP80N/Bq37tU2tB69es7r3p/Tasc9rz6rOaHLTHhve1/t1ivxgulrXPFX2sudn2wuQFwdi1LxmhkWWoreWmqXPrniaMhwo4tGxcgo3jZ3KxZlM0mBDzf/teEu9Gf3t3ZVQaKxJBRDuuNU1xtEeiVJ6aoLXnNUVt+1ENmPY5Im0CDxpzxo9fsPHC1IUhkmEeHlWCsvIbAjo6QwJF/o31WyJhPdpD3L2PM+DQ5KXJhTIhCn/G0gvWY/2w8o0wHPshFcmplT1WVsUQAhdBErgd+i4bS9dHCyL/V99/JA+BY1w/oag7jfWnjR2BphfafbX8Xxkv7f7bfjROdOPv8vsUYHWTXJL/6fuPlKcdPJaBkMhKqcK600XCOcl9un0f/iFleHltKPoycazDoSNN35mP4oanLVwxfo4/jp1KQ1xCGa5du6XZiIf+WFh0A06u+di9N06SK+n1pHtZjWvrBrPl+DQADiYgsqSQpczkT3nYR0XlTYRFFOGro0kYM8sXzwwm4GDoVnlsqDMtr7/1+1T6ytdUTsKzQ1wxbVGgcFRk5VQLoeHDvr+2fo+eDZaeknxq18eJmLogCP3sPfDUQNoQFcpTG0XzAYfkMBjzGBrmbgPQ0J4zJU/tffLI73N0R197N/SydBYPt/0EX6zdFIN/XAqllJmVTV09NM8dKRiWrQvD4BEEGp6Sn0hPC69F8/CYe/20NTwJmpqffF6za+Z+n8iD38m8Qmt3PGvlgUnzg3D0h3REx5Whqot24aECDsWrUYYjJzKxcHUkrMb4yu6KCWz0aojA21ggNIGJQOpdTRwk5YLigFFh+kh8k54SbbfJAVHv43vVADQoqPa9rT3yt/rZq91jX3sPWI3xxuT5/tj1cRwio0tx80bnPB2M5b7xDmO5jxJwaAuOuQurMoAiE0HCHujv6AXLUQaseD0cLu5XUFJSI6CjqxOz+ecJNpzdc7H3QALmrIiB1bhg2RH0tnJSC60JnZGxbQQIqAPiUqXRZtWTeG9UUrLK41E601hvNMOo6V9r+tL4Ob6PXrLeQ5wxaJgHxs8NxrYPkxEQXIKqqhsg6OjsoSVVBoWVY+m6MJGBAtkNLunG19L+36ry5pnB7rLb2v1xtMiaMn9UR2Z2DY79kIZXXguB/TgvCW0KoDImArZ/Pw0LNcePORysRCOXAzPwSbj3sA+Wk/9xIReb342G42RvSYSnvWrvPkzpmegXPVPW7hg3J0D4JfyDilBW3vO5B+bKj2DjolMudu+Lw7RFoRg8wlc8O1oIpb2NpCabejk0mr/MPeDY8uQiS++X8iwan5cNpwqZ1M9bej9M6A/tgvoufq8nRk/3x6Yd0fj1XA7y8ruelHu14DouXMrB9g+iMWZmAPraeok8NGCg3XNrj0oObpLbyJALASvlyNwtSf6WMIgKhTw3RCWEU/epZypE01Qerf1G4+f4e/wNFmvYjPWWxFoSaLKEuCvHQwEcdAGT157EQt+eyMDy1yIwZJQvnrZg8lPHkZ1SMlV9oMXsBzi6ibeEiXuDhnuKkR80jNUo/H6lSJKU1Mj1TqE2FnJrf2sKT+VmyIfeDpKOnf4lAylpFaip6Xj5oySPbYuC3XheZ8dCKrweDdHK5NDKwjr4qKFhpeym5aDJRuQhLl0m9brjiUHuGDWD5XnJCI8sAndz3XVojHvBYaXYeyAOc5YFYvDIADw7xEcAZf+hLmZWKCkd0AwU751/C/BwdG+kNx4yHkpv1ARtClzVjkGTRXuPDXrD3Zyb7BTGzw2SyqeQiJKulVs/AB7cf4DQiHKpo+di3BXAQaP0rJU7bMZ5Y8XrQfjuVAqycrpmWDqjA8LPcP+BMELu2huLiXN8MGSEh4w1FxlTC0bz8aBu00NpOcoD0xYF4KMvkpCU9nABBz2gZAYlkR95Upj/pBaC9oE+dVP0s1Uwzc+6qBCnjQeGT/XDxu2R+PVcVrcsjJ0Zu8afuX3nPiqrbiEorAQffBaPGYs5b33Q28rTmGPVkZ28AhYKCKjNH6sUWTLLcvdBw40n/27F3nOucy42140W/zcCNPxM7yFuGOjgKeX177wXA2//QpSW1UlVZeN7NedvrRozKq4C730SC3KMWI70xgs2HkbPpGk7ptl9lVhL3XCXUnjSJdiPN0ipL+kjhABskgFDJxhE14RKwsFD1i7aIXPtvfo9Ai93MPJA3o7l68PgbmD4vPP8VA8FcBBskNee5aCL1oRgwDAiNBqShsW2hQJoE62RItQL3UaVPT5r4SQlojRE1mM94TDJgBFTvTByqheGT2FVBTO5PYVgS5WSkQxFlb5yweFv8jt5tvn7xrggM8lZE97XzoDhUwOklv7U2XTk5NWao3NN3hMdX4W3tkfDnrkrrDWXSdH+jofXR2Vh6Sx3zSQ2a0xwphGdmfdIshiWwCpZcDJrimhaHg1yY8yzt7Un7Cf44dUNoThxJg3Zud23UJHeNzyiFEdPpOOlFaGwGKliv31t3BrivpqeNH9spDdcjF+0d5fyYya+8t7pVeMiZjXGAw6TvDB8qgEjpxowgnozwUu4GzipGW9nCR31hwsFF4GOuMIpT44vS5uHjPYSttKPv0gSkrImStHBf7g4h0VWiBHg9yvQwUXZtB411nVeH+cCwePgkZ4YP8cXO/fGPZrkyvsPwHJE9kR65Y1w4U3QktnM1cvG9yaAw9pFEr/JEtsdcu/QMLE55P37iI6rwOad0cInpCoy6JVVtqf+ehvpqwIbCvCqv1vaJxm3oa7oY+8B5pjNWx6I/V8lPRY8KpWVNxERVSxeqrmvRGLQSD/J2aCdaRtENdgVbaz5XibWMoTLUAdtGxOkBzq4wXaMJxwneYm9p80fNoU8Qp4y1gQkJMMiGSQTyblp4KI50Jh0bAq48nc5pxj+GTjMF9MXh+LA4Tj4+OcK6OiQDgACUkpK63DZ7SrmrwyRxV88D8YwCu+3Xg+azV9NFjJHbVyFvqG3pYvkJZFBdMErIVKAsHFHjDAqk1V507sxWLc5UojvRk3zkc037Z6U79u4oL+9i1mhG5E/N9q2bnjexg0T5wXg0LepCA4t7TTvS48CDhpFojt2rnP1YulrMmzHG/CvfpfEeItbu/nEayZwDgRvnMpKJeD/ViM9hMJ14hw/Yd1jiSnruSnod3ZHY+vuaGzZFY2N70bjzW3RWPVmhNC5kkRs+BQfIdFSMdCGhbatAZfnCUrsnKVE6UV7AyxH+2H0LH9s2hUD38BiVFbdlEZw5ioie3tsIOCYQMCh7o332N41UPHIJUDSI6LY0TMU9TYpfRWFbQOde2Nq94a/FXW3Rv0+Yoo3HCcaYDvGC4NHMGNeJV7WX4fRALZ+TTQcKrH3RXtPWI7ylhK3d96PlsnyW6wAACAASURBVIRY7nA47p09uCu8e/ce0jOv4eSZDKzZEAHb8X7oNcRDAFd/e+d24vnUEbWDYjKalMjaueFFEv+M8ITDRG+h+Z21JEAqBtZvjsSmd6Px9u5o0Z23d0Vjw/YombBL14dh5pJAjJvtK7TBLNfmxJcdqrEapnX5NIwlx40Ln0qEphfOEwtXh4EVGCSC6gp1fFhUI8BR77lr+G1T18bX6w0a9c+RoMMDK9+MEPptlh/TO/mwDnbxzc2vlR4YM18ORm8rAkW6kRuu05x70t6jGWmrUR6YscgfH3+R2GWg1xFZMGxWde0mPLwLsIQbLQnpcq4RTDQHHCpXjePBMMBAcgU5NM5pazquaty4CSGhlacwFpOZMjyqXBJHuzL/OnKPjd/L32QFFVlwT5xOE6I1u4mBeNbKW7hQ2p+36v60+cKNFb3Xg4Z5wnosN3k+mDTPX1z7r7wWhte2NMzbt9+Lxpbd0diwg/M2QuY1WxiMnO4tHEIWwzyE+E82VmZ6yngd3KT0tvGGzXg/LFnjj6+OxiIxpQK3bneMx4XensjoMhz+Lg0jp/nj3/0VKdlAB7Xwy5i3WPeUHRN5GDdMJC6jzZ62wB+r3gjHjj3xINX/Dz9n4/cLedJbjI3bfmevqF+y8eW3qdJXZcVrYZi+MBDDJvsIiFdgSttoG+1li99vGA/KjblCLPlfvykKp8/mCA1947E39+8eBRxUwNu37wqd8JZdKRg+NUhq/s3K2TCivoZkHlZIMHPWHTMW+WHbB7E49kOGeE18A0ulgyAbobFumCf/JokLvQmMdTt7FODkT5l496M4LFgZLEiYKJiKre3u20tK48DTSIixYIb4CF/MXs6EyRRERhWCqN7cQwMcQ80EHLw+XicZQXnt7L/C/hBUto+/SBaytI/2J6K1k3Fr9mlh3wa+d9+XbHaUhF0fx+PNbVHyfew1038oKePVjoI8JJRF6xOhQRG1ycAcCCLgl14JhbNnEcqrboOgo7PH3Tv3UFN9A77+hXh1YwSsxhowYJiX7JLUWLXtglTjpHb6vK7nrNzQ28YNA4a5YfwcH7y1LVqYbM9dJG17Mbhot9Cb+CqhSPcLLsWfl/OFh2XzrhipTacngWWaJCeiu5GLWnty0hZ15gLJrnaYASNnBGLtxgicOJ2O7JyOe8g0ubJrJo2JAjQaeG66MGmLb5uPxgWO1T5KXq6YvjgQv/2Zg5zcmi4BIu06zX0sLrkBd698fPR5PMbNCjC6nE3Lt7V7E92UEnd3WI3ywvRFfth7IB7JqQ+vSqW65rYsUCd/zsDkeQF41tK42268uWgkf46BAvyusBimzkEOrhgo72l9PvL9Uj1m5SKLsatXgST2ceF/2IfQHVy7JUmir7wWjsHDvdB/qHHeij0xNW+puyr/jvTbJESzGeOOOcsCsGtfAk6ezZG2BYEhZbKmtDpvYyqFdI+syJ8eTMLy9aGyIWPVBflcmPegyVglmrc+X8SOEOg6eontsRjOsvEguHldRXn5jQ7RANALfvpsBtZvDsfQST7obcNyXIINU/LgnOa89EQfOy+Mnhkg6x7p/snlxFYK7KXDFgDME7pacENO/s3n+BrXQt+AEvxyLkd6p4yZ6Sd5GUzaZYqAsl1qI9/aPCL41TZZBDyclzv3JiEhuXOhyR4FHNfr7iArtxrs6DppXhieGuQpDHLcHfcf6iy75PYGnQb6Bbr7HdxhN95byFFWvRkmHfD+dsoXVsSi4pvS36O9nZiWC5CUWiWtfL/4JhWrN0RI+ZPlSE8VI9Zi+m0gPW0wOEB9iXztvDF8WiA2k+nvXDqu5Ju/cHQUcBCRPmfphBFTDNixJw4//ZErHXNZamnwKxE2VE+fIrR2siuup08xvHxL5L0spfTwKcZl9wKcPZ+DL9ncbHcsFq4KxegZfkKzzlBJPQhrUx4aAlfMqP/TzxnjZgfItXWVYZMcE3Hx5eKSZVnkUxaMVzeww6pJ0sxQGI0y9YmhEpLG9XP0gPU4b4yb44+X14Zg58dx0q+BlPVkZqytu4O77ZQ3a1n2EdHl0mGWLnl609jUjRTJAxzUblWARJtyUtfJa+b7+jkaMHiUj7jX33gnQrgZmPndmQWi2wCHcN0wrOKKpwa5YNR0Xxz4JvmhU2Yzb+S7U6lY9UYIHCb6oo+N8ii1Ot7myLsx4Fjoh737Hy7gEABlyJdGZCOm+uEZC8VQ2+R+NMBBd78jiZc8ZJ7PXeqPOUv84DjRCxbtVLPwu5in8sQAZ3CufH8mA4kplSDYedgH6fyj48qlC/OoaQH4dz8mNSqgxDBGe6EMmR8cL1tW7rDVgkEqi9ZsCMNnh5IEaDDhlz1P2mOKpXf0+vU7Euom7wn71rB3CmngWaYuwFpCO6Z39rT5DJ/SHrL/Fts98Pti4is61LpAY5idMt9XNk99hYOldQDZeJ2hDaZ3gbZm+ssh2LonEX855SM1vapDzSIpj6zsaumSvu2DBExbGAzLkYaG6hhzkmklbKvKsZetj5QGpGQ87miZbI8CDuZtnL+YK+GNoRN98MxghcYH0JUkN9kSWVHxxIXqyJg7d5NO4uYlWcy3J9IFPbNJF2u7q6rv4Oat+ybbMytPy31pv83wDj9Pat1vf8jElAVBeN5GJUDShSbol0aguUHjrsSI0rmg9R3KslAfTF/oLzsyNjcz92gAHOyJYDqkQqVjPJJdcb/7MVPa2l8pqAO7orLVPXvQsKV8e2dJ6S3IyfeX3kJB8U3k5tcJCuYun6Va9JAQ1Dw98LIoujkhL44Xdw1PD3IRimK2ho6MLheCNHPl0fx9bE9NevAVr0fAbrwvnrdWlPZteqDonmYtvz1ZJT3AiqKnLd1gOdog5WfsruniUSh5CezWWVFxW5KYTRFxSbLzzXtyL/lX66RldlBYGU7+nIWX1wbDZpyngBrmP5jydIheGz1kjEszFMWwwfc/piEmrrRT5WYCOF4Pk10KjZMCic2AWHM9buN/LgZk9aVHyHGyDza+G4XfLuQ8VMrsesM8zxdWowzoa+vRplyVPFuZp9r9GUNZ1E0VUqGHI+GhejgYMjt5Jh1rNoRi6ERvSTjn5oHXrtmXer2QxDxPYczlrvzoD2n45niqNHEkE6ZKfm/4XOPP0z5w3IZN8RVbe+7vXFBfH/bB6iJeNzuz2k/wFyoBdb/ObSZ314/jUFZduOGpge6wHuOL19+Jxnc/ZsDgXywt2tnGgD2ESP5He85wfVsH5y3DgaVlt6T9un9QKU6cycKb22JgO95bSsBVsYKpUB3HSiWq9rbygONkf7yxPQ4/n7sitrOt32/+vFQlbouE7XjmhCiyMdGBRnqgjafYOAm3eagqkSH/YPp8A06cVnafa2pHF3rauevX70qTv6jYCnx/OhNT5/vh+SFqI6eF+DSvttJP6lrDyXVRkt8tXaVZ5Jnfs5CW2THgQ7n0COCgQhCFMiv3/U/jJSuX7hiW79Al3Z5Xgzcr5ThMKHXwgO14LyxZF4ITP2UK6Rbpcbt6qOu7Kwv3e58kYcqCQFiOYj20Sr5rKnBth6qUU5XJagPFhFQvvPJ6BAx+xbKruGMGMUpHAQeb07EjLpuE0VtEStyuxP6by094Lorq4OKejzVvhsB+LDO+aexbiTVrBt34SFnR4JGPnzvjjw8kwMunUCjrm/+Oqf81RkYu6m9ui4XDJF8MGm6QBON2PS5GwEEaYFJ1M/xiM94HC1aF4tDRVPgFFqO0zPyQV1vXqXJL7iMl7Rq+Pp6G5a+HYhg70RrLawlETSVtiryknNETw6b64+33onD+YhbyCzpedtetgENboG1p8A2SG8WdZcpDaOYmwO7GXZCJkjk13ImyQqC9kBUNoHKNtwGwjPfD3f+Q0R5CuPWwczhIMvb+J3GY/JIvrEYztMBk0ZaAQ+1k3UC+kIlzfbHtgxj4BRXBw6cQqzdEynhwQVKLd9P7pT6JR89eefNmLw3ApwcTkfIQq3Fkgef4ybyNktJfevFIaKXut23AwUWO85blnUzstB/ng+XrI/HjLzkSEq+61vXWCewHwtDC6V9zsGRduOSEcJFlxQevr+31iGPlpKgR7D2FxmHivCDs2pck4Qzag/aO+/eBO3ceSEh/OTcGxsT/+o1B49CaZldFP1iq74mBwzzgMN4VG7aGICKyFAw1szqtswfXvTt37iIiqhSbdkRg2CQCWU/hROGGSQMclAmvUZ3GXD071c/riYEuGDbFR8KTBr+rKCntWJO3HgEc0iOlrA5O7lelBbpqnNP6hKlHdka3DisDWPv7xAA3kHyFIYQ//8kThkCCja7kBmgDpSWzkpI7MqYM355IlRI8dm/ljqh+t0plFM8Gd9C8fjdxEbLJGalf6X7+Vz+2uA+QeHxScjmqq00Doo4CDvFwDFQejuOns6S8uLq66xNRkwcNBrs3pmdcw2/nMrDl3QhJru1treq9FQBraujqx81YhcGkIiritvej8dflXGlxrH2/uY+kf867cg3n/s7BnGWheMGWi46HGCKtnr7+dxsBHrk+I/B52sINNuN88NrbkTj5UwYiYsqlOSB3Rt1x0Mhwh5GRXYM/LuZh6WshsBqjqg7EgLVHwEVjYk/DylwZA2zH+WLWy/7Y90U8ktPM95Bp99ERwEEZNT5bl6NKQmSoyHKkO9ZuCkdkTAWAzhs57Vrbe7xxg7uvWly4lCfJ3azokXK8VqjM1T1QF00zddJgCuAY5SHNEvd9kfzQkkapJ5LU+3q4MUmUNObG5ltNXNjKsDP0wK62c5YE4JMvE6VlQEhEufTZIAAkuCKvi+i6tjjJozFfaSjLuz1gP84Tb22Nkp4x7cm8O19jsm9efi3OXbyCWctCxGOswrLteBCMu3uGLOjZ+He/y7AZ7Qkmbf9+IUdsHMFGZ0KNze+N30HQwZyP42cyhVqdYQo2XiRpXttN4ZSHQxLkhQada5MLFr8aAuaRmPKQSk5L1R24GYplHWSuDTfcLcewkW01brhpe5mk+epbwThxOgWZ2dXd0pOJepmbV41ffk/FW1vpefORkni5LglHq3WOaw7XQgJBNoVUbUdc8eQAN1iPNmDNhmCcOpuKnLyOVSX2COBgOWNYVAkOHUvBqOl+eHKAVlJINNlIuE3+5kAw5EL3ND0HBix+NVzARm5ejbjImitSV//njvrGjdsIDCnCuo2hsB6lkkLZvVWqG6SdvWppz2x5Tg66N+3GesFhgkEqHuwm+GLRq+H48ZdMxCeW41oPAo6xM32Fx4Quup5of06wlJhULm7gKQsChKCIimd6gqgsZrqN39wWgbOd5AMgaVFgSCH2f52IUTP88VRjnpYmutKgQ9oCJN0UHRRV/OylgTguoYquM+O1p2MZWTX4+vtUyYqncZA+CCZygbTrZZzaYoRBdvNc2P2CSlDbwZhoRwBH2/NOyVK7Li6KLIPrNdgZs5YEwsntao/3yqmsvIWIqBJ8/V0Kxs32xzODVYdXpXdNd6CaV4NzkWd79yWAg2WxBBwvB2LflylITuuYgWxv/Nt6jX2FystvSphy6sIgcFdId7SEKJmI2Axw0NjT+0vPDiswvvshA1nZtYhPrML2D2Ixerq3eBxVB9Wm8uD9y85ZSjlV069Fq0LADqQ1tQ+nm3Np+U34BRVLx9URtPeDFNDjQt2W90DTN9p6ekLIF7FodTB+PZ+F9IwqmQttybezz3PDynws5mFMXRggOUta/hX1StOtpjql5M3XGIL4//r8g3GzfKUq5GpBnYRm27oexZDM7uAFmLMsWNpCcF1Ret1gw5r8Xr3H2BUjZ/hi7xfx8PLtuCehrWvi81VVNxEdW4Qjx5MwaoYv/t3fWTqFc74wdMdoBMeDHjeyYbNYwW4cKSYMsB7tLQ08X9scipNnUjtMg9AjgEMlf6Vg5evBsB/vg+etVTyqdUE3DChRMQmIrMd6Y+naEBw+liJIv6fK84j2CDrS0qtw5PskLFsbBJsx3uhl6YFnh6hmOk/0d8LTgy4LEiZR1/RFAVj+WphUO+zcm4BPD6Xipz/yJDzDzrf07pg6OuvhoKIfPZmBmB4CHAqR34KbVwHmr2SPDiJy40QUbw/HquVEoauXfBV24w1STvrjL9mdKptiNje5TdZuYgzYB88NURwlEtds5XfF2Ir7zw19hhpgPc4HsxZ7Y88nkQgJK0ZVVeeSMU2Nn/Z67fU7SM+qlkTUuctZLcKsfONOVgxYK/IyypE5J1rocNaSYJz9I0fKgAk6zD3MARzanNMWaO1Rk13z8aRhlXk4xBXjZvvh4LfJCA4r7tFeOQwnnb+YI6XJJLFSnrWmhrl+gTK26R44jCWTahOgAQ/tXrV7ago4AqRCi/lbPX0oRuUSfHkkBWNmEUC1kiyq6TN3tLaKV8hxkje27o7DhX/ypdogLfMaDn4bh4WrfIWU7QUb1VW1+X1qY0kPW6/BLpJcf/q3HMnPIujo6YPAm/kmS9cGw3acAb2tNW92K/ov982xVcRlJANjvger0Y79mCb2vqM5CubenyIkuw1WNZLSgN1qyT3DIgABHo092sYkV8knlEoNlQD7JEMKk32w59MEuHsVSv5cW79POvQr+XVSAk8eGDKA0qPS2vhpOsv5x3EkxxJpHJizx3AQPTTdddy+w7y0Ovzjkoexs7zx/zzztzTlpJeNAGPkVG/5ba5181cEY+naUGlhwYINskpv2BGNL79NgYvnVela3ZHr6nbAwXAFBbRjTzTGzjRIAxhBsW0Z4EahFGHytHXHhJf8sf9wIvwDC1HWDbF3UwJhHMrgky+u7bGz/IXfnsCDnUjHzfITsiZWOby1PUrIg479kIlfz+fB2b1QXGvJqTUoK7uNW7fM4594XAEHx47hFTJYskcKXY1SWaGVfhrdoNrk0B65Q3vWylnybWg4Tv6cjexc83MSCPyY7RwbX4ldH8VhwhxfMQTcFXLRMAU4uCvv5+CN8XMDsXtvFC45ZaGg0PzfN6Uf7b/+QOK5736YKCVjliNVI6b6sJy2sDR+ZHjDzgV9rEkq5iZMrZ8cTIaPf1GHck06CjhI8W0/gQRJXrAYQfd+ywWBxpBAiIu+w2QfvL41HD/9noncK+ZXYbUvr6avcuyZJ7L/cDJeWhEkNMrKU9QScFDfCC7UfXjCbjx3YsrLwetubsgfFeCQMshfM7F+SzgcJpJhs50FWHa0LuJRGjvLD18eSUdQaDnKK24j/2o1zl1IxpZ3g4V2vrc180Cae0gaPFRqoXIRu7X3QJIk2HMT1FOHygm4j4joCklWHTHVAAsyw5qwFxxH6h7vhWybU+YHSU5UWFQp6B3v6YNVdAytrNoQDrsJ3k3GhzrDnBKCQIawSEfAs688ugqYGj7FVypffjufK4CirevlRjk37zp++zMP5AUhcVnrYbGGTZwGOJ62cMLEl/zww9lspKTVoKame4Ej5x0J6d7aFokxM3wwdX4gFq4MlRwqkoft+jhBqBS++IbJy+mSwHv8dIY8/vRHDly9CxGX3HEg1K2Ag5He+9INtRKvvR0lJFWmkg+VoWgUOx7lgRVvhMHNq1D6ApBkpacPxiCv5NdI+GbeK8FCrPXKa8HY81kcfvg5E5fdCuAfUoro+EqJAdPdSeTKklzuZmpq7oClt5yAJvKI5FYeV8DBi+P1M2Tz1rYoiQfTxdaQWd9ygWJuBV9/zsoJdhM8sWZTJH44m4PsPPMXfIKN2trbMPgWY9GqMGnVLDFgLiKyKLb8XW2BkWQnBy48BixdF4FLLldRWHhdclJ6Wm+078+/eh1//p2Nd3ZFyu7n2SHKS0DjoYGy5o+8frpXyWA6dII3XtsSJa3sc6+YLzdzAYe2ENNDx26lM172x9CJTErj9TVbqI0eoxds3aXKh4byo897pgcJdY1zhgvW+rejYDWWnAes4GlZLabugX1RWEXjiWkLfTF5vg+sRtN7yntoKetHBTgSkq8JW+u42T6wHMGye+P9tAHwGLYk6++MxUH4/a+ryM2/Ae6OKyrqEBqah0NHYsGN0DOWajEf4KjmhTauSrdUfgBj7XR9r3ozFMdPpyOrCzwvmn639Si5EeTd8CnCsvXhQtLV39FDkqg5Hk2vT40PnxO+EUd2CDcI6eCK10KltL+i6la35Oi1db3a8xWVt2VTdfDbtIaQvzWBtgoFkSeKHE3PDHLCkwMv46lBl9HL0knyN1i6TAKyHR82eKK0723+2BhwsJqROYKmAAc3V3wPWUHpYTxyPB1RMV2r+mt+Xer/B1ChsBLhsnJ2L4K3f6mRl+ia8GxwI52WUYuMrFrRI1ZdUZ9y86+jqPQmrtXcgTlFEo1/v1sBh+aSd/cuwstrwoXkS+2QlVFrSwG5aPSx4c7FE5Pn+eKDT+MeahtpLWkyJr4SnxxMApnryAfgbshHSnqV9L0goOiu43EGHLzH2Pgq1Whqopf0LGjI42i58GuAg5N06EQvWThO/5aLnCvml+UxaTD/aq3ERcfPDsS/XnSWeGdr+qIt3HyNCwq9INSbSXP9pP01+/U87INtwRMTS/HDmTTps8OkZ7VompdjwLLNWS8H4pMvU2Q3Y+71dwRwUFbDpxiwekMY1m4Ox6R5vrBm88BhzFtSiYciW/EUMEuevBCewsrLzsbkLmFuAgFCdx3CxFl1Ey5eBZizIhjPWpE/xQiAjMnavCYuXrx+i+FucJjkiSnzfbBsfTAWrAyU+LKW6K3phvb4sAEHZUMZsdqG1Ozs7SHeNw1ANQMc2n0pb5g7lqwNh8G/DDXX70lCYl3dbeTlluPchQzMejlIQtOsrmDfKALxpvNDeSPpHWL8ffxsH+z8KFY4IwjouaPt7kP4HbKq8Mu5bExfHKRCYUyMdTQmx7biEZV5ywTMoQYMGeODiXO9sXtvNBKSq7r78tr8PsmtKKzDnxfzMW1BIJ4aSHtDjgk26CQbsRdGTvHG2Bm8Pl9MX6QYTsnBQ/6mdz+Kx6mfs8W7TV6Qto4mIZVFAXjO0tkswMHOyGzBMWKqD3btjcNl13ywg3J3HwIYq++AAIwhm7q6ez3OLNytgIMJkwlJ5TjxUwaYLKUY1VpHuppRIKIjsmQOwNCJBryxNQJn/8hCXgd2el0dCM5Fgg4mYjLGG5tYJc2rSNzT2HvR1d/RPv94A44GV5v9ONXNli52ZdxaAg4+z/Ej8yZjm6ST/+1CrjDfafdr6lElDZbh8LFUjJ7uh6ckyY6/1fL3NL3h7yoPgRscJ/lg845I/HEh+6HyRmj3xYlL0EHm0lVvRUjPFJabsRdDWzs9zbNAMEcKa/vxXtJfh8y45h7mAg4FzFyEsIx9UvYeSMTS9aHGGDZ3zUYPgXgJlMy5UHLcydA4f0UQXNw7zrBo6j4EqCWXSQ8e9mnoZalx0jQdd8qQcmLy5+R5fli2LhQbt0Vh9RthGDreS8Ap71HTDe3xYQMOSRatuCmsxvSUNqXA5/U1vUbtvuhFZJjrze3RCI+urK9+UGXit+EfVCztGQisyTPDsWmpV2oMCXRftPeQBFXKydu/SLyHHSVoMjV2fL20jGzAV/Hpl/Eyb3sJz5LmaWp5vxwXsRfCTOwJh8m+WL85DD92sieVOdfY2nsoC4IlymbxmmCQdoCbBOsx3pi9NEho03fvTcChb9Pw0+/ZuOR2Fb5BJQiNrEBETCXik69Jjlp5eftNzFTSKHuI5WP2kkBJzFSbN+VZbK4Poreah1Gux4B5KwJx4OskpGZ0f+4R9w537j4QrxIf794zz0PfmkzNfa5bAUdxSR08DFfw0edxUmXw7BDSp2qLlaaIzR41F9JgZ4yZ5SuJVsFhJZ1uDmPujT/K9z2ugEMDXqGR5Vj9VhgshnHsuLvUxrCpwaw3IMbuiiOn+eLdj2Lxj8sVFBSZ7+Egqc9l96tCt85eN2yuRhDT6oQ05kI0BhwT5wbg2+OpiIoukS6Vj2psybvw3ifxmDTPT4irWNLLRY/Xqi2CDY/q/ihfxrI5TxavCZOENnp8CIBNHeYCDgGEVi7SmO3A18lgLJblh6zmYXmgypVRvTyUzNXiReNIiml6j+ieT0iqMKsKy9R1a68XFtXByS0Xuz+OwYhpvlChqJbyEuBg4yKgjAnb2z+Iw0efJWLD1ijpqcSyvccBcKgNVwVOnMnA5Pn+eG5IYyrzlvrMeaWVw7Ii6JNDya3ynqgQTbwQ/7FygECwpV4pHSMYYZXd0xYumLogAH+QvC2/Bgwbd/dxJf86fjufhY3bIiQsKICD1Tj1wLWl3gvgoL2wdsP4uf448E0SAoJV+Ly7r6+t76O3h2AuMbkK+75IxNJ1IeJdeu1t1TLi9K/ZcHYvQFhEOUhm1tnuqJrHn+kBbElBT5zavLUPOBQFg+JCYujz1Y1hUvFE0kJ6Tf6Tj24FHHlXanBW6ntD4DjZF73byarWDC8VkEk5T1s4Y9qiQFy4nA8uQESH/63H4wo4uMjRMJHEbO6yIPSyMB1z1Bb+XkPcMHqmHz49lACfgALZ/Zg7fuT9//HXbKzbEiltlclzwkWyraRG/qYGhJgox93kZVdVOmZOlZC519XR9+Xk1uLUz+lYtylM2kWr0IoG1loCbRpmxrO54D9j4YJpCwPBHi/5BbUg6DB1mAs4BDhYumDCXD98eyINf17MxedfJWH1W+FSh0+mXVWN1LBA1C8MVq4YMc0H2/bE4K/LeZ3iV2nrPtIza/DV0RQsXh0kTR2ZN9L6dagOyWxEyB5AzNz/9mSGAA82LqzXl2bAToBKfVlsz1epsEzywqVcbH0/WpqNMZ9C9LjZdYntk+oU5TpndcrmnTE493deqwyhmdm1Ug7P9uAsT2wLYPF7WVVBfXrKwlVaFXz5TTKCQ3umykjKwr9LwctrgoVM6zkr5RVrLclbzVk1b5lk/ryNM+YuD5DNCTeq7BL8MA+CDiaoskyWnkn224qKq0JKeo0kejI/j6EGI1rN0wAAIABJREFUMnRq+XkdvT6G2Ag6GGJbsT5MgBh1skkIs3EyufzdABwJSKk/bLi58d0Y/HI+DwQd/8lHtwKOjMxr+PpYApa86g+7cd4meyGo+nGV7ET3+JJ1ofAPLcOtLnYbfdwH5HEFHFqZ55nfsjFxrr/ENulubN/ToAzc0xau0rPk6MnUDlN1p2bU4MCRFMx7JQjWYzyFbEYjotGAqfaoGS5ORoYiWMa1blOEJIFxcndnjkFH9aio+AbcPPOx55M4jOKO3VLtaLRrb/JoXIQY75YFYqAzyLNy7Ic0xCWUg/1kTB3mAg6teoFjyt23u+EqTv+aKRwPI6b6oveQxonBChhRzjSO5H5gqeOCVcHifUxN7zoBEY093dokFduyM0bK8Jh3wHBAfXliY0+WrYuAX1YvHf0hAy4eBfj5j2wBHyOn+Tw2gCMtsxpffpssuSXWY72koaHocRuAg8mB3GixOuXr79MlebY1JuWCwhu46HxVSBCHTTKoagdj5+wmOmVcsLiLftbSXSpkNu2IxO8Xsnok1Mh2Dmy0N22BHyxHeUlYgvOyPcDB12n3Bw13xcq3QhAaWYp79+71SI6JqflDHWQZekf5b0x9b/PX6+39eC/J61E60WwDUg88jKDfGNIkmGZlFqsl39oeg3MX8+uBEcEHvS9knTZFQtb8mh7V/90KONiJkQ2SZiz0EyrfBiKkhp2TNkHEoBHl21P5POA4ySClRlFxlVLpYtqh/KhE1vXfrVfACR3opTLQSQhnFA9HFbqD8rf5nWh8CO/sjsKIKb5NysW0cdMeJWlNJoliCnxigCsmzA3Er+dykJtbDbKGmnvEJ1Vh+4exGD3TW7LWSTzV0mWsTVDlcueunY2uJs7xxe6P48Hv6InEOHPvge/jYhEZU46vv0/DmBm+Ath4L23xRFCWNL4Mp/Qa7CogRajhfQvMogw2C3A4MLFWZb0TcJw8kyU5Aewq+sWRVFnsyN2gYssN81TNT4Z73DFouKd4bNgEi/d3927XFggt54UU+EvWhKrESukzY/QGNVqgqWdkd3xywGVMXeCPf5zZtLECf/ydix0fxUkopi1PwsP2cJAOgCWF9MQMGs6mX2SWbb2sm/KlZ/epgU6SaHzZtQAVFa3nBCjCqgoc/i4do6b54In+l+WzrW0EZNykCRrbuntj9jJ/8TqmpHd/MrUiJovG6BkGDGY5uD2bGbbu0VPXxbwrEku5Y8RUL7y9O0oacD6qecsQMhfqnl6smRfITt0zF6sQJmXQtn3T7BzlyI0A3+sOi2GeGDbJB7OXBEkF6GeHksGOuEw/yM2tEdAktOeP+cLZLYBDc8WTv+Ht3TFgu/PBw1U5mCDaRgakfsHSdlB2bpIZzEzgvfsTkZza/ckxHVk0HsZ7Ows42LytJ6jN2QCPDd28A0qwa2+stPJmbF+xvrZhQIzEODQwzFXoY+uJBSvD4OZZiKrKm7hjZjkzjU1kbAXWvR0uFOEsO2u/h4vaeT9v7SLekAWvBOHLb1KQltHzDJKmdIM7DVL9/vpnLqbOD5D8BwKO9prg0RCr5FeVdLtlVzTOXcwFmzSZOswFHNxJMzw2fpYv2FyPra3Dospx5vccTHrJXyieufjxWhrPTxW2UuNBqvFFq1m+WIBr126CFSadPUjsRLI9ttmeQjlZqu6+BF+yO258HQRMXJgHXJbEO9/AYmTlVOPXP7OxaWc0SKffFs/FwwIcXLBqr98Vua54jdUpKrGz3vY1up/G8uX10WW+bF2YeOjaWnhv3LgnoZbzF/Nl0WIJbXOA2Ph71bipPk/2Ezzx+tYIhEZ2X5WRluvFcuY3t0bAXpqS0UNlGnDQm2c12hMzFj38Znqd1deufo4FECT2e2NrFOxJJW70KLbmCdLGsR5MkmPIzh0vWLsJvbhm95h/tWF7tNg+bvLcDYUIDitDRHRlfdt6ekDYsJMVKNShngZW5sipWwCHxqV/0SVf4sL24w2STa0SZGjEGgyZJlAaN7qW2DfBfoIBr7weIu5kJun8tx8dBRz1zdvm+uHsH7lSC83YYncd7DLr7lOMfQeTMW1hgJTC0mjx1Mar+aO2Y6HLnQ3sRs0IwDvvJyIyplLAhjmhDc1wBYeXYdn6UNEHZaTb/l1OUhppUkHbjfcC2e+YBNmTfAPmylmSxKpvw8OnSPotcEFRO76WC6kmT5kHcj+ukni3ZkMETv6UZRZxmjmAg79DeZEDgAyCH3yagEuuV8HQiItnoTDnsvU2KyrUeDedr3xOqM4t3DBlXhB+/i0bmZldo55miR8p0+mZUsmiCnQ1BjyN5UP972XpLOy3bBBGG3H8TIaU+NJ2PG+tyJqaG/CHBTi0UOTPf+SIt4KdW1lWzPwcSaBsAjgaPHSkkGZI6J334hCXcK3NljVqQ3cPASFlWLMxUhZsbVyVzBrbV/W3VmVE78/c5UFwds8XXg9W0nT14PUwx47Xs+rNcCFf4+9pG4X27P3zDNGNN0jex9ffpYJ5IP/tR2XVLUloP3w0BY6TA/B/+6pk4YHtdE3X9J+PnIMaOCXQ5HMEbQ6TDOJJnfySP2YuCgAp7akfO/bES4XNr+dzhduInjduYNhtt6O8Gd09Nt0COFhOGh1XLkaACXyDRzRD+G0BDjG0bqqccnskfjufDWY+/7cfHQUcVDKS0NDDwRg2FxomWkqb+aKbuFp4A4zztnbyNXm96AYKePL/ghuSfMTJTmV0ci/A3i+SsXB1qHBa9LJoeweljIkymqwXZzksacjXbIrGD2dzkZ1nemeuja8Y0rq78PYrwfxXghX1b6sNqhoBECPgIGEWw3Cb3o3C7x0sw9V+v7sftSQxNt1auylCSKno3ahPhGyy8Kh7EsAhwNtVciUWvxqKr46lIz3TNLNnRwAHaZUdJhqEkp+glSQ+3BEtWRsqVMptZc/z+phd/9QgN4yc5o9PDybBN6CwQ4yozeWskiDTpby1PSpsGlqCJc3AkhwsKrZSKLtJrbxgZRCsx3rieRtjlUoz+T4swMFOxD6BRfjkUJJ0TH7Gwuix0Xq9NLkuo4fOykU4ThauCgEJqNIyTS+8qgoqQbpGk22VuTltdTvluBFEPjHARcJm3/+YLn2SzGku2Xy8mv9PYM1ds4d3MRauDhEPndJx6jTHS41Z00XTuFGwdgN7Lq3bHI5TZzNBVtb/9uPWzbsoKa7BJZc8zF8Zjr72Brw4lARpynusQGMjG1efz9FYnkquYi+MBGW0gSQII4/IUwOc0HuIs4SZx8z0lXF5a3s0yDh77FQmfv87D27eRaBtos1nN+HsnFpZDxiy646mqOaMY7cADlKDe/kW4NODCdKKWe1SFekNjUZrAuVzmiuZiWs7P4zDJed8EYA5F/64voe7dp7tHR0FHLKjH+KM4ZMNErIiLe8ltwJ4+BTjH9cC/OWUj7+d83GxlZM14Ew4+8elAJdcC6S86sKlfBD9fvN9Gt7ZHYOXXw2R/BDr0ewFopp3qTFraTg0l7cqv3OXbPhxc/xx7FQ64sxsXqfJhlTwpWW3cMmlQIivzGHiE71h7wlLZ4ya5o09n8VL75eiku4nxtGusyOPdIuTqXXjzmg4TlZJYsr93bpB4f1wYeQungmzs4UALNms9uLmAA5+P/WHrlh6hFhWygoPgs3YhErRJ1Z6WJARs42kTYKR3lbuUtGiFoqMLi0UCUnXsPOjOIyfpXpZ9JGGjU3tRL1cbFyldJe79M8PpyA1vQZJqdXY83kipizwh+UoT1lYKcNH5eEgOyzpnl/fGiUNHSWnxJgc2XjRVX+r8WDpt8NEb2zZxUTAK2aF0OqB2vpQ2GrVKgRkTQCN0jOZJ8JkS8I3H2zdHY0LF3PBSpquHpy3JWW3cNGlADMWB5pdzSZ2zEp1ld6yMxrn/spttSqnq9f3uH2eG5Fbt+4iLrECnx9OFE+dzUR/vEDgQdoIO5dWx7Cl7ihvR1OPh0raVyW3yl5zw28zzgsOk70xcroPxs32lVL9ucsDsXpDOLa+H4tPvkzC8R8zhSOElTqtJSv3hBy7BXBcLSS5yRXs2BMji8ALUhdPxW+NoKbRhGCdv6WL7AqYv8Eksu7g/mcZE3sRsJ8H2UMjYiqk3THj/Nw5pmcpulZSttLwNpy1yMi+rs7692ivq8+wlI/fQ4QYn3hNqGBjEqrEi8BGSXfumCZP6SjgIICjQlmP9sScZYF47Z1I7N6XgA/3Jwnr3bYPYrF9T+unei0OOz6Ml/e++2Ectr0Xi43bo6RB3qipBgx0cMPzVspboXa6GkNm64CDxl1KKYd6imKTudLHn7H9ug7F9hmKI03u7xfyMG2Bv9mGS8tJGDPTBwe+SUFgaCnKKtpm/OuJidPed0oS7J5YjJ7hLQlyJgEHwbe9K4aM9hDA/v6+eNHX9n6Dr5kNOIweFJuxXpi/MgRfHEkTHWZYhT2LXloeAL7WWpK3WvjdQFDAxX3CS77Y9XGcgJWOxoQ1j5Z/UAlWvxkGS/ZBIRV2G0RWXKCYrzBskje27ObCzJLhOolRb/8oDmNm+UhPGIK1RwU4CDAJgJgUyMWXrm7OVV4PZddy0TBSVw9yxpjpvvjim1Qpm2S1gamDnsq/Ludj2/ux0n6BoJteRsV7oeyq9nv1gM3WTbrQzlsegP2HkySUZup3TL1+4+Y95BfW4Y+/rwgRGxN6mdjb+v02svdGKn+Gkd77OB7O7leFAsHU7/23vE4iSU9v9uxKxMT5IegzVHWYbs8+aOPZ4pG6ZSyrF6p448aeesd58wLp8tmrydIZT5GifcBlPDfECYNHuktS86yXA6RfFnWJFVIuHkXiPWSCK+cYidEIlExtnjs6Nt0COJic8sufeXhrR7S4uena4U0TibUQVL27iBOPXfFcMHqGL0hIFBha0i0LB8FGcHi5NBHbsCMKr24IxXv74uQ3Dh5Nw+Hv0/H1ceP5fZq0GGdlAZ/75kSmOo9nSIIdvQA8v/4uHYePpeOro2n44utUQYhczJetD8HGd6Pw1+UrSM+slmxhU4PQUcBBGXIyD3J0g41Q7xrAXSkn7rDJ3iLzYZMNYoTaeiSttZyTDeIpYXkdd7xa+ItAo8mYceyMSiyGRBRcjSnzbv49wB2DR3lj7cYw/PhzmnQ6ZSKhObkbmnyYaJeeVQN2tlTJi06SINie4aK7VsoJB13GWCZBHs9AZGzlQ0Po2rW390iiJvJFsIyT7JBMlGtrAeK90i1OlzTd5GOmG7D9/RhpTd7eb/A1cwAH5cXfpofDarQX5i4PwedfpyM1o1YSXH88m4b1m0LUztxa8SioecvFUo238lIqgjK66ResChGuFuYREXSYe7C3BLl6/vgrRxoi0iXMjP3GuQ5q7FWbbNoHuovpIj5yIk3CtgzfxiVewzvvx4NEc1IN0kYYjvf9Qo/ycNAg30d4VDmYezN4uIfci6kQmvAODXQCY+9nz+WCzcSYcGzqIG9EWFQZDpGRd4aPVLgQ3NDbqOxsA8ChHNVO2B2DHD1gN84Tb26NEu+bqd8x9Tqvldf887lcTJzrJ4sZ76ltW6/sl2wUSPA4wxefHUqBb2CJeDhN/d5/y+vkCCopuSGkYqRJHziM3jkv9LZWJeFMmlbjpuZea6Gp9mSsrRNiUwg87BlFcBHvKcNv0lTP0R2DRngIMKb9Z1iaPVvmLgvGus1R+PhAIs5fzEVmTrV4ZTpiz80Zp24BHDl5dTj1Sy7Wbo4SNkAiKVNteBsWDsU/cPi7NIRHl6OiyjT/gKkbY64C3X1ssDN8ihcGOLhgwhwfoYlduDoYL68hs5x2BmPJWp78PxRL14Wpk3/LGSKeAJbvMb6+aHUI5r8SJBnzdOk/b+WEMTMMOHoyXXZ9NIimjs4ADiqT5ulgbTZ3N+w+yDBER09y+vM7yHJIoKEle2nGvl7RCTiMiJnGgkZFkgtpwCb4SbO0k6fTEBVVjMrKjnelZBJTYuo1nPgpC+PnkNLcHMChaK6fHqhyWr4/nYn4TnQtNDVGXXk9KaUaez5LxJT5/iAzZHs7XjEORsDBcsFhk7ykjw372Zg6OgM45iwLweeH05GaXiult9Il+UA8xs70M/JxKLet0gG1aFH32DmYu9h/9b0s7/359xzk5NaYtVBq91FecRMhYcX48kiykFKRnIpgrHF1itJBVUpM3ew12BkzFgUIoC8qrpNkxdiEa3h7dzzYtZP9Sqib2ucaG+SeBhyKyvwGLrtdlV4nLG3uIwCq9SRh3qcCl0xydcPi1aFw9y6WEnfmRZg6tOT83//KxdSFARK/F/m1AzgIRihHzvUFr4TA06dY2jV0heq8fqPwa46Aau6ezQEc9EQx54B8M4eOpkllDsm1/rcd9JAfPELCuxAMn+qPAcO8pSJQcnK0XkL1G/P2Nu18TQMnDZ4kmQv1G0QFQlVpPnvYuIuO0gPCxHvOL44JPYm0VWwyt3lnFMi2GhBSiozsWlmTuyvHo1sAR1budXx/Jgsr34qQXTMbeRFdNZ78rf3NHQwXDirgkRMZgr7NWbBNKWh+wQ2whOzt3bFGj4sLmBHOUk+bsZ7G00vioER5co7zkl2A7VgPyDnOU5L4bMd5yyNdzvLZMR7iZeB30R385CAS9/jKokkeEi6ipo7OAg7KUBYoDQSwjXIXTrXr1hYYo2IbvVL9pTW98kI9P4RJqyxNdAYrGuhV2flhPC78cwVJyVWoqroljHqm7rv560w8YwITmSMZZ6QuUCda0xUNBNGAsjKGO98Jc/wk8YwN9lhq+bgcdEvu+yIJMxcHgI3ZFOBo23BwJ8qQCkuCGZt/Y2s0ouO6C3Ao74rycHhi7ooGD4fWNO/Pi3mYtSQIz1lxvJvpQ73hUzlXTw92kcqSj/YnwMvHPL4QbVyECvtcFjZuj4TjZD/0ttY6vTaMOfVbeVg8MNDBQ7x67CbqH1yCm7fu4t79ByDg2LIrDsMn+xgBh/aZpjLuacBBj0N4VAkOf5eC8bPZflzNl9bAD/WXz1O/aYtGTWd1Sqyq6rrzAPdN4w2huyfo8A0sxZI1EVKOzs2CVtml5NZ44eHf5AMhcHORLqc//JKF5PQqVHdhvjB0zFyaU2ezBXA8NfCy7KJbn7famKh7f3qQSmL95ngqImPKHmkrAk0vH/Zjbe1dpGewO3k+Xn8nGiOm+aGPrQcoGwLD+hzIdlIS2pe1JvOWj9QRnpwbPF+0Y4GA2kzy+SGjPIXtmd7D5a+Hy7oeGlUurKvdIaduARyZObWSCbvi9TAxmEROHQEc42b54ujJTHAh7g5CKwIOMrJt2RUrrmIOJBO5uDun4X3eylnogfk3n5OTf1vzeSd18m9rvt9NnVba55zFTUs0yu/8d38nTJjrL+WqzPw3xzXaFcDRWUVr/jll2JURbGIgGynkwGHuEv9lDJ0KOH6OP6YvDsTmXTFS1kjCGbrJO3twrLmTJ5kZdaCjgIPuXDJmpnexTLOz19/W51LSq/HpoWTMXqIAB936nNzNx0D7nxOdCdT8nyEzGiHSLJs6zPNwaIDDWapmXloRgv3GkIpKZlPdTVe9xfLGxtVlTY0VdYTglvNh6AQDVr8ZihOn0yXT3dR1Mg7M32LvChIDzlzsD+uxPuhrxwZ3CkQ3yEKBBza+sxzhhVHTDNj6XrQAU+13CDg274oT4Ks8HI8GcAiA+jMbG3dECjGa9E5pc4dqDG1ZMTnYC6xO4S6fOWEdPZSHJw4jpvjAgnxHbSTdUqbc2TLE8wy7j07zwZ798XD3KUBxaeeTrGtq7kpX4x9+zpbKuQ4BjoEKcHx7MhXRcaWoumY6d6Wj8vlPeT+Tjc/8loPNO2Mxe6lqByKMu2yaaEvvnwL5tB0aUNDmSUcfNXuvJf3XP9JDQpBP8GGr1kJ6PP7f5y9hgIMHVr0VhSMns+AfXIr8q9fNarnQnvy7GXCEizegrd4GzYVU7+GY5SuZ89zVdQfgqE+u+kAZJbqN6PLTUF3jRwIjOY2egn72fJ8L+tmp2n66PuVshAg1BSBQIeCYPC8AFy5fRXHJTbN6AjwOgKP5WDT8rwwj3eesmpi3Ikh4/PcdTJWyVzdDMWITqqRdMsEGEwE7e9CbFRNX2SXA8eOvWUjLvPZYeTjYj+HTQykSdqOHo0OAY6wn3njHvFh7xwAHczg88dLyYOz/Og2kk9eAABkj398Xi8kv+agQkK22a24ASTRYBAcv2rrLeybO8cHuj+PAfBVThwI2dxEQXCpVMiqZ3AP97VvyVJBZlPPxeSs32Iz2wqLVQTh0LKXJwkz942Zi+GTvR+rhYLLoR58nYtr8AFiOJLW3AneaN65hTinwRlDJMOjQCV7YtCMGf1y40qGuypqcM7Kr8c2JJCxdFwjb8T4me1Zx3BRQ9BbukhNn0qUsWvu+jj7Si0uCRvLFsFS/AXA06Evze6dMlL13EZpu1QKh7H814GA7+NwrddLH5eyfedi5LwET5/krgGhBb7KztKnnxpiyU+uO2iTWy7dR6KTpxrH16qX6z9V7LpVuaoCGv8HQl4pSkDPFD7OXhUpByB/dQJHfLYCjIaQSbgypdMzDwZDKN8fThXGyO8pztN4D2/cQcBgkx+FF9gTh4NQLmn+rwdPQX6sDZhxQ7XPqvRwk9sBgUpsTpi8OgLNHIaqqbpsVWni8AYdKHiVodBTehkgcO5UhseaU9FrQndpdR1c9HGxGduqXLJC2+bELqXyZjJkvB0hLdbMBh6ObSu7b1oOAY1kw9h9OFZe4No65ebU480sGXt8cZizr1BKIG+aLpvd04VP3B4/0wMo3w6VtN716bG3d1iFtuovq8Oc/VzB5fgCeGKC8hE3mm3FeEnBIuTx35FN9sHNvLC655guHjPb9CnDESPLzoGFaS/umHhnOVxrPnkgaJYC6feceQiLKsG5TpFSPMfFVEmDFxjTIrcFuqOt81lLlHnUlh4HNztwNufjw8xiMnO6PXtKVu+1mhwQc9ILQXT55ni9274uT6j2SQN3vRBlC24Cj5Rho968Ah4uw2jIEfeR4GqJjy8VmauP6v/WROTEZObVw8izEe58l4uW1ocLAO3KqDxwmeUsFGT15AgZsVPiDAIQeRz7HU83PlnrXIP/2xqbhNe17+Eh9ZkO+gcO9MPElP2z/IAbe/qwkrUNnm2R2C+AgCdWpX7KxdjNpbr2EwIlK3l4PicYKyCz0r46lIiyyTDr4dVXxFODIl1LResDRZrOjBmF3ZHDEDS5lvU5SqurmVYTq6juPLeDQFKnBldb8vjVlVUlmzw52VsyUn8VL63iWEhNsdKQqwdQ4MoeDJaSSwzHLmDRqolkcx0jzjI2f7YfjZ7KRmFJtVu6Mqevprte58/3w80Tp/TFkJHNO2gmpGN2ZXGQZwnKY6IVN70ZLeNHU9XTGw8Fs9M8PpzUBHGRCjIwuxTffp2LsTFKdK7Iv6kz9nDACbyY+Mtv9WStX6e786/kcZOdUSxldW9erVVd89V0axs72xzNMrmwj0VMZOlewgoWstz+fy0FGdo1Qh2vfT8DBFgojphhg8QgAB8FGRdVNsB8Nm9op488Ea2OyaDvEV7zv+SuD4eJR2Om25zdu3EFBQRX+vJglHYafHqwABXOAtEqHxuNGWyWlx5IT4y6Ea16+RbhW3bncq9ZzOKgrLatlGq7DOG8tnCTnTYoEujE3QNON/8RHgvXaursoLLmJxNRqaTHB6qX9h1OweWc0Fq4KlgpDjuMzg5zxZP/LQgTJwgF6P7jxVcn/KjwpSdgknWtEPFdv/+s33M3tf8v/ZY2j53+oBwaN8MGMl0Ox/6sEePvmm9XrqbWx6BbAceVqHX67kIuN75LsyCDuGHMBB+NFLPHqzrLYhwM4iABd0NvaWbqcevoUmZ393RUPB5VADIgR2WoI19Sj9rl6A9BC8bTFRQGO3pbO4uHgmH53OhPOnsWIS6xGWTn7aNztUPlra4rH5+iVYL7DD0w+m6t6ejCBiWC07es0Gq5BqpkdSay6KxTX1nV29Pl6Rsi5fsL8127SaCPAYTFCJRNufT9OSj9N/W5nAMecVgCHlOuV1uEfl3zMXBIsvU1aJI8ad+79HcnJ4VbPPMo29wFBhaIXbV0v6/rZH+bt92IwnN1prVp6UDjeDXqtNivLXwuHT2CJ6obZyIPyqAFHdc1tJKdW4tTZDExZ4IdnhzgL6OD1K91tqr98Xis5txzpLiy05Aaip4TVIqxQMeck2L93H7h37z7u3L6NgOAisOpOqN2HekgSe2uAQ+NrYEUL7S37/LDxV25e53KwZEeeVSP5Byz9VlUq5gEOhpT+//bewjvKq2sb/x9+a33f+z59WkoddwgEd3d3KxSKlFKDtkihQJECFahBqVClLQXi7i7EHUhCQhwSCAS9fuvaZ04ymcxkZmI8z9e517rXJJPJ3Ofss88+W69N/Bx62YLDSlFa9s/N4bC0X1hunnO5CiHhJfjtr1wcPpYuCvaSNZECkDhqeoC0rB8wVhUy9BjqJXg/7J6tvFnKOyFKiMELYl3+N1Q4yMud+qvS9Wf7+KLPqCAsXBWKo8eSkZRS3qSy2RZROFiGet4tH+/tThCwI8b/eQCqQ4Ov+uf6k9IxTZaXfngoBT6BRS0C/GWLwlGr8Rkst8YOOHN/4/9TiNBlSw2UY+dGtMUD0FSFQwsuHmB8LpNf+So/83cLN3NNmDjWkVnPtIKMNF/zc2Os3h3dBnpi4IQAjJ4VionzI/HWjhSEhBfZDfBlcWMZ6vl/OpOLCXNCJJOe1iJp23Bc+j2FhErBOXyyv5SXhUeWiLVo6Tlt/b4gaX6QgJFT2MTQy3AYmd8HnCv3Cg8DYnaMnRmIbXuTQKXF2tV0haN+SEXlWKjeGDzkmSzGaqD65dJq76qQhwee7emF/qMDsG5zJH78JRNX8ixDVKdnVeLApymYuTQYbNtem+tQb53VulPhZHkwsRre3pGIuMRBsPl5AAAgAElEQVTrEq4x9vw/boWj8Fo1XNxz8f5uhjT8VXWPxWRRpUiRr7sP8sSwSX54e4dSKLVle73yHqzeN+6Jh5GNFhkKIeZNZHQJVm+KQK9h7Ljtjc4DvA3JhXqv1Mlbyg6OoX03lUNx9Hg6IqJLmuRRZgjtct4t/HSGOBwB+Hen8zaVxfL5LL8cNtEfH3yUBE+fQsl7s8bn/7S/ky9IY4LB5V+tlvylhKTrCIkoFbC073/JwUdHU8X7QYiHcbMCMWicD3oNUWEXVe7KklfmYigPCHs6qdwpgxdEqsEa8omp3FXyyQMd+nujk7Mvegzxw5I10TKOouJbUjlmz/q0iMIhvQSCroHWzrhZQYbMc7XRzGn8elI8sIkhQUCqd3clgi2a2dipuReTRv+8kI83t7NKxRfturrg+d6u4pEg08vdj25ItQkp5PieionpcddtVj1e49e6w98N81aGwTeoqIElZmkeTVE4+DyGqNiSvfcwL/Qb4S1376FekifQaxjBXOpuJnzyZtVDr6HetR0s6Q6nhcpDzvLBrv7G5L3n+jDD3RNPdPbCsMnBOHI8FZEx11DeBNwNU3ro2D7XasqCEDwjQFCNjUttGlXmZ2jn3oTyTNNxtOTvPBjVgRiHweN9RGkjbylaN9zgtQpHHzZk8gERAAk7TCRba5f9CocXpi+ugwg3/f7ElBsgEu3Iqf6i/FiqfqAV9WIfL/Qa6osp8wLw4UEmj1ZIArGxYqAVGXaR3vB2LJzHGKDeiVVBg8RE4RB+Y4+REd4gMNLn32QKDoDpOB+3wsHmcce+SceSV8LRd5Qfnutj1C+ngefQSOEY7CnW/do3YvHrX3kICi+Vpomu3oXSSI/N9Bre1+DmfU1yxDx8r8E3qARBYWUIjSjHj79dweI1oeg3yhOsbmhc4VBy7xkit47zw5vb4vHn+dwmQZ0TabTgWjXOnMvDhDmBaNflgpRWWjIsKTfJ55Sv7L3E6pq3t8fjryY+35Qf/im/EwuD4c+snEopE//tbC4YmmJDRkLFr3otGgtWRUiJOysKCWnPMntWn8meNVS9cJ9ZkkfGZ5xeN549zFEiEvFTXb0wYmoIjgkQn/1VRi2icDDRM/ZiGb46lYUZS8KkzlxrUxYVDgMD8pBhYgwRQdnWm6ilzb10WexrWy+iz3Bf/KvDBbTregHtu18Q+GxWrbTv4SH30wJ84iJKCfMWdLydRDYlfr0FYPMdJ4WxoDwc18CukbYA6tircGjlhsrGiCn+mL4oRATy4lcipBMkD+vpi0IxY3GoHCjsOzFraRjmLA8T78vk+cEi7CngSe+nu6tyYK10KOZrOF8+l14oekie7+mFnkP8JBFyz+EkpGbQArecKGjLGtKNTAwPD+8CzFwSgmd7uQoehcQgG/E80VX4THeCZAXg7fdj8de5S7ha8Pib/vGwffjgEWLiyrHuzRj0HemlyhJ5wMrhal7hoAAgjfuO8MG8FaE4cqx+VYYlWra0wsFGWqdOZ2LNpkgMGMvqh4YHKT0c5Au2zCZOBpXf1ZuiBCX49p36VUsKWbEaF9yvYvYyNvlSaKWyt0zXVzAq3NCumwsGjvfD9r1JcPcuxLWihoByj1vhUL1gEjFqaiC6D/ER2HcK9PoKVN1+Eno5ESnYE/1G+gjuEPcrGxZOWRgiHXu5R83fIQKZzsT0yQuCJeQ1c2kEFqyKxswl4ZJnRcuW312HOFr37FoZZvCkPd/HXZIQ5y4PxeFjaTY1jTPlP9U6okaaPrLVQn1kafK4BT43NOt0Husv++PHX3PA0lDHZRsFVLLyQ/Gkl5TVSIUTkZrpDeWeiIwph19wCdgri8o6Iw7LXo0QrBQCzj3Z1UWgzp8j1ocYsOQTrXyY4Rkj5ZnyS5K5e3ph4LhAbH4vDr+fvSylsraNXn2qRRQOcbHl3hSc/+WvRqHvCPbnIKiPZUHLzckDT7crXrI2HMdOZEjraXsmYO6zUhbrUoCtu5IEkIdAO0zGGzLRVzYoIcGHTGIcLFBg1Zm0ygREgvHQI8CMYKVcNFwEEp4CpJORwjFvRRh8A1tP4RA69XKThNxl6yKxfV8Sjn6ZKWBp+z9Jx56PU/HR0TRpbsUGVwc+TcfBzzLw8ecZ0olyz8EUbNoSJ8ipTMSjQCdNJMwifSwsJ3txvny+SkpinNgbC1ZFisVVXHqnydnKXDfV5vo+AkOKpIGceJkY+hH6mlrAei1UeIjZ006j/bB6Uzi+PZ0uMN3meKEt32Nsvbr6HgJCirB4bQQ6D1Rz4WHUqMJBQdzbDU7Et9gQhW++z7apbLGlFY7S0tsICinAgaPJGDk9GM/VQp3XHSCicIjFqnJ9mD8wfUko/nbNg0YC1TRn1Vb8xTIc/yZD9qEki1pA4hSBZmhDP252EE6ezoElIL3HpXDQmKiqugv/4GKsWB+DHkN9ZT/o0JMlhUMbKl2cPaSVOytraNi0N+pzwdLSxu/z8neWSko32j5e6NzfG90GeokXTbchqFUwjA4Lea82V8hDvJ1Mpn9tS5zAshMxlYeZrRfpQOPKL6hIUJg5bybMiiIpykYdv+jxcH2pWFPe9xvli6Vrw3G8heS9reP+f/1zKhRD79NtxF0sF6wkOgHe35MIYmRNmBskIUCGNaWqip7XBp5GLWeNX3nmKagIejb7DPcXA3H/JylSIch+QrZeLaJw6KZM4VFl0v1w6EQC0tgWu6bVQ3yAiXMC8MH+BKSkW49dW5tccUkNfAKIAJiJNZujsfTVCLy9MwG7DqZIu142itv1UYKAEH10JAWHj6fj+Mls7DqYiplLw6S0V5chqU1UR3ylbHBzGRJ0+roL3LlvK+Zw6FwX3azMO+CaNLAi7CzxFOh+J/Kf8U34XNWsTv39YmIF/IOL8NPvlwQ/gR1eX3Iihr+PeGrkQOzfMGGT7wuzOTEkRUAaf4yZGYmPjqTDP+has9qUk0/JO5ExZXh5I4GnVLM/KkIyHkuWEnEFyPgj/DB3RTCOHEuWPjbW+KK1/04Lv6DwJv44n4vJC0PQvqfKzWhMEFNYS2iRZcjj6jcpszbellY4qCzl5d3AmbOXMW1RGF7oQ6NBrYmpp5JzIj8809MdY2YGiVIRF1+/zJHAWL/9cRmvb4m1DIwl/EWlVnk/eCjNXxUOnwDLENyPS+GgspGWXobvfsrCpPlheL4Pgct48FtuUqkPXP3KRolUDrjmGuGROW9UQGy56QnTVQlcAyYKNl4NqGWXUgIot5gQTJAyekTdvK6iouI2qHTYenHfMleNPWTWbo5Gn+HKk6cVL7V39XPVK9+j4UKUYAKfTV8UDMpeJo07rpahgKzLg0dgyIsYR4VFt5Fz+aZg5UTElEl7gA8PJmH+yjDp4/JkZze81McdXejNN+xDzaemr3IOsFChHxVcHziN8sW6t2MRHV8mScy2Kh0tonBochEMhoc58diJy87NQSaz5GLjhiGTdh3EBDRvbHg7BjGG7G07lCb9+NpXKbdMvg43rwJ880M2vvo+W3qreAcUiyDz9i+El28+fPzzERhyTerpid533r0QG96Jl2ZRPPxU7N104yhNXm8gCg1i4vsFNcymrx2QyQ/2hlQ4DqJwElnz1E+XRMloCh4GOwDmXK6Ei+dVbN2dJO7Z3sP9BVaX62ROUCjG499cREi+0McPTqNCsGh1pDS9y8iulFp+23VcE2JA5Txsfj9Ocnm6DqSi2rjCoeKRxBXwwbhZ/ti+VwFQNYdnGo7K/nduVN5FUmoZvvo+AyNnBKG2V4iF6gWhrSGU0L6bK6io25M83dIKh/LQ1CAotAjL10dLy3rlyTNWOuoOECrCVDgGTfDH1p0Xcc4lDwWFdSFRdqM9+EkKZi0JQe/hvnjBTIhGWccqq15V6TCp8mI9ZFHTlXhcCkdJ6W34B+Vj78eJGDo5UHKbqJDx0LfqYTB4HERwG4S7fT/XyZ26/+NaKFwUylLL+5efM3gd+nvihd4eeKIjk64D8fWpTKSklqGy0v6eJlwH2bcTfMG160CYdQvj4Ni4b1/q64nug7wxYrIftuy8KGXxpuvbVr/rHCPiijAPkWEKwo4zZERDyNZDtK3G25zncC7sVusbUIBDn6Vi7opIOI3yl0gElY6O/cz3I9KKh+I5D3TmGvdT7SXmrgw35C7ew32WT9lwtajCwTbvn36VJqUz7D1C6G9q8o1tBGrctGhZebFgZbigEdrr4jOdJ3MDqHQw/ssW9QQmu3rtDopKaqQKprjkjhC/uOS2MBobCPHzMfEV+GB/isRSVQ8M42obU8WDc1Od+Oa9HC6xMyLHkVGtXU1VONg75MQPl8DmYLb0bDEdh85+ZsJXfGK5KGPjZwfj2R7KEle1+kbCycgtKwJD3KLsiOktwE8rN0YiLKoEd5tZJiu9Rw6nSH4IE1xf1P0EjJ5fy/i6fLKfiokTtXHDO3HSMZYgRtapb0qVlvtdHUgF2PtxkoTqmCdEAVsXWzfvaqZlSwC5kVMDpUUA+8uQH61dLa1wUCg9uP8QcQnleGt7vJSrE0HTnOVKflC5Jx6CLsywomnuCefx1vaLEqpkroPZA8ng4aGsUCGyaHx7OgfE9rF0PS6Fg9DOv/95Ca9vpccmAM/0VJ4KKk2aP9v6VSka9WVTY2Pg56nQt+/hiYHjAvD2tlicPXe5STlQRJl9d3cCRk5jkrGXeLwsGS7kF21gsgqK5cGrNkWJgdncXDBLfGLtfSatFxVVIyXtuoRBA0OLkJlVidLSO2Bp6j0be9xYe85/yt9V+fsd0NvNXmNMOWCu1lNd6V1r/JzWPMU1pIeNVYKT5gVLP63CQtVU0ZZ5tqjCkZt/C6d/z8H6t6KlOoRuO8b+9WDNvXIC9IS06+KKSXND8LcLQUWajmRmy6QtfYYhCeZA0NXIZDiWmyoPTcM5iMBtY4WDMMJfncpGUoptB5KlefJguX//PmIvluKN92KkmqKLsw9e6OstFkqtNWTuwO+vSnKf7OIqzaBOn7mES1cqcava+gFpaTx0+315KgvMT6Gr7nkqqvS4aKvMaBwKZ8BQZcNEPWcvLFoTBZ/Aa6isqpGSQUvPae33867ewq9/XpYDibDbz8mBZE3h0BvYRYCufv87D/mF1eIWtTbellY49POYiMaGZAtWMbzohxf7qPAheV7vYf5Ma/Ylg4eSOQEEKaIyQKWb4aWg8BIsWx8l1i/XScqyTS1gOQApwNwwdFIA9h1OQUBwUaOhusehcHDP0GND65DdoumxIVy4NYNK06u1XtVBXrcu1p4jcsvJAy/0VSHJ2UuDcejTZGRk2R/aUE0Kk8VQYJikseo3NU56YWhgekrn4dnLQ+HhWyjw5jQS2/pixUd0XCl+P3sFBz5Nw94jqTh1OgfnXPPFEx4aWYrYixUSkuDZkH3ppiS5Xi2sxrXi22CxxJ0alf/SFO8q/4fNCO/df4Sauw+lypHGb0XFXelRRZrYk1tjK/3YkoLowmf+zsOc5eGGclljOdXwvNN8xXVkCPDJLuwhFojvfrokStpNG5sBtqjCca3oNty8r2L73kQpfWrf3U0UjsZijJwAQwasD2eLciaOxiWUSQzKVgK21OdSM6qw5+M0KdHsyR4Y9fBE6i+CbFxDHLatQipscPbFySywJvvGjaYf8KQXBejVgiqcc8nClh3RGDAuCO26+0p4hUqgaczemOEoZJ/r5YVBEwLx1rZY/NnMKhECx/129oo0hRs4LsBwUFvQuA3VDVQ8KLg4jknzQvHDL9nIzCrHzZv2u4Zbin8ys2/iyPFMyemhh08AmagUGSlM+mfyj1h8A5SHj8otG3r5B5eIsmGLp6y1FA6Wprt45OP93WwQFoD2RLK0YAFxDty/xFeYuyIC4dHlomwUFN7Cn+dyMWV+iPSDYDl2ffwXdUjyAKLB8e/OLtL994dfLiEnp0osTEvr0uYKBz1nDx/I4bRmcwx6DfcWRZf8J3vFSBHT61v7auBX8YI09jkzPFL7HTb9jfQ0vq3wnZM3ug3ywYDR3tj4TrRAnVuit6X36dH+7MsMSRztN9oXL/TlnrSwbw3GA9db5f64CVz2FyczEP+Y5D2xY374JQubtkYLDtDA8ap4YNLcYMxaEoalayOx8Z1YvP9hohiix05m4ftfc8ByYipKDP8zX/DuXdu6/ZrSkcoGFRYJ6ZTdQfaVm4iMLZPcmMtXbja5C7fpc0x/p2yh0hETX4YPPkrA1PmB6DPcz2wzxQY82J95OG54qqsLRkwLlNxHNuC0tQdaiyoc1Pg4CZbkUPthzTfDJVYVjn4KynjQeD9x5Ta1PtyUsPb+LjkoB1PFVWSPwjFPYlnFAk/LsIW1q6khFdVVN0sanjEpqLnXzZs1yMouxk+/Z2LG0kh06O+PDk6qZpsHojlPB9+XHIp+RLnzx/SFQdj3cSLSpEy2aSPSOC7EnxjK3hA84GqxK0wEp2FcRLzkIUbX8JCJgdix9yLcvVWlRNNG0fT/kg18+z7Co8uw+f0EqX5SSdM6LqoOV+PNW6tw9PdEl4GqvJQJeLSobL1aS+EgRD87u7I51/jZIXhWQkMqh8B4DvyZ8yDg3P90uCB9UthTKDfvJmLiSvHFyUyMIGR9V1e8yNCqs0GR1WvIfidyALHGXwHoeflew40bjfckamuFgyFe4s64el7FtEWhaN9DoS8y05+5G7aEVNR6KyVTKfQmfG2TUtHwf8Tjx3VgeaMZj6C59eLzdZUd9xlxhJiIzoOPoGK2XgSl+v3PK3jjXeZf+SsEWSqWZuei9oAoHH098UwPDwwc648334/DH39fAdFo2/qizGI+zqR5AQJ290RHN/y7k4vky7HUlwm+rG4cPSNA4AYWr43Eq2/GCIbJtj2JYLdcnhmmoXRdvkpvBZP6iYRMmW98xyVUgPuXDQ29/Ytw3qMAP/5+RaoKj5/MAqHnqdARTLK1rrz8m/jl9yy89k4UBo0PlCTouoT9hrwmvGRUvq5akmRKOS7nasvVogqHAMIUVks2LMMSxpDOesOZ2wAMW/CzvYd5Y/rCEHx0JPWxZC+rpNcUUMPtOaQRDwc3rJSKEjDMDczh8A0uwc3qB402sdIL8p+icEh5280ahEUV460dCdLnottgb0G9ZN22JYWDAovZ+V0HesNplEr2Zdy/qbFYlf1fgZM/ZGPkVDb3Ujgh5BlTfqn7XSUks8yu13AfwSPZ/2mabHBN57Z6ZW+L/PxK/PH3ZRA6nMmRtOJIQ/PCVx3U5HsqeHTPT5gTgJ0fJSDFBoRRPa/WUjh46PDwYaXIwlWR0tWVeRyWcjm4d9t1dZPS1y+/zYKXXwHOnL0inVSHTQ5USJwNQmTq8GWOC5UztqHn4UOr0Zorua0VDir35O/PT2SB1V3tulPhcEdnUaBU1UkdXxoEtYF3NbJvR1GuVChQ5zlomdicV/KYunU5uRXXOMdF+WVoNvdMD3dRFE+ezkZK+nW7csOkR050MY4eT8OIqeyRQ1BBK0jGhkIBVkD1GuaLaTRYjiRJeaXm67Z6ZY4RE5SHTvITpZ8dil/orSx4ZfCoEmIiABNUkSBaA8b4gzgi7Bn28oYoKZGuqqqPv0SArvLrNVJ9d+izDGx45yI2bomXMuRN78Rh49txePXNWKzaxArKSDk/pi0OEY8PK9V4dn78ebp8d0lp60G/s01FSFghDn6aIuuncs4seajqFBDS5umuLhg2yR8HP0tHSEQZSssfg8KhXTUBIcXShpqeDTK2JCOaxm4NWrBsNim3UUmATiP9sGZzHAJDi1FVVWMTkFZLMWj9KhsVZzSbw1GrcKjSNqVw/Pd5ODTdJIfiuywsWx8pCYAq98aawqFisTxY56wIF4REQvEyw9vei8lMpSXVuOCWjxmLwiSkQpRLWkMNBLm2nniYOykwGuYH9BsVgNWvx8M7gE2xqu0q87N3vKafp4cmILhQkkVZsfFkF+sKE/me7ufn+3ii/2h/rFwfIRUDXAtbr9ZSOPTzRSBvu4hhE/0EyZL5GqZVCDIPCbG5i5VLa3f/kRTs2JuIVRujpRyWsO36kK1bTzV/9lUhON/C1WH47Os0ser08y29trXCcbWgGn+ez8Ob2y7CeZy/wXNLhcOgEEsIsk4gyxyNQ2bEJGLughy2SlEmPVriJg/x5rqo2/q+kcogNuHrRw+hO4ZMDJD1cve+CobFbb1u376P/PwqAYCaPI+hM3elcDTm+ZF9y2crTJ9+I72xZnOUQd7XP7htHYe9n9PVKaERpXh5YzR6DFUhMmOFWnmByLfKeKAXjzDhz/b0EO8MQ4hzlin8JeavGVdp0PC+eq0af7tfxcLVkYL03G8UlRUfOI/2Qf9RdT1QeEYqQC1XyYv4n5cuSPXdujdj8fOZlgHCtEQfVtUlJJfhy28zQWTSdt0UDDr3dN0+NeFrQ/PMp7u5SFI5c1+Cw0ts7onToh4OJsEwpBAVV45X34gR5MQuA4n10FBQ6Qlpl6BsAllcH0xZGIFTP2chNb0MbJTUVhe7fO46kIyJc4Mki9pcDocoSAYLgYoUXcEa2pwd//6bQiqargTw8gkqxO5DyVLiKC7wPjoc0JDhuHbckCoW64lR00PAdtvhUU3raaIEwH1ERJcKAiGtB2t8UyvUnZjY64mOAwIwaX4kPv0iERERuSgvbzsXLfFODn+eJsiuvUf4Chy85Vi2oifd38z2Zums87gAvPdhAlw886V2Xq+LtdfWVjguXb6Jb05l4uX1EdK2nj1QTOfF/UALm65YlsKPmhqAiXOCMHZmgADtsRpBKRuKZ/S+p/eMllK7Lm7y3WxDf8HG+be1wlHbC2ZJiChHtUm0ZkMYSlFXdPHAi06ecgiTPsZ04M+scuvgZN/dUfiduXH8vzpFQ8tRUToMODaNHRwyPqkO9ET/UX5YtjYSX5zIlMRIa3yn/65DiTQwF6+KQCdBkqVipbrWmvOQ8j2OVUJpQhsvTF0Yhh9+zkF6xnVpgKm/v7VedXUKCxSmLiTCMWlZv7yY9NFrSJqS1uRXelQpmwZPDMAb2xIkBEpMEuOk0dpeM3/kYuzMIKlAY/EES/6JCMtbpRmoHCCNyULvyrNUwEf4Yv7KUBz9wjbE4abSiZ67i0nl+OLbLFE4mLhNmWSNb1SVihuGTwmUJOrQiCKUlTdEBDY3rhZVOPQD6jwFwaKtma2/1x4Ow2sXCq5+nni2tw+cJwRJ9cSZs9nIu3qzzeqhmXW9+1BKozkcwog8cJ1Z0eElC9TaSKNKMKvuqMdPtFwOh14vogZm5lTih98uS7trau98pjXG0wqH05gArHkjBmwq1ByoYlYB7D+ajJmLgwXU68W+zCdpbBz8mxIWL/QLQP+xwVi5PhhfnkgQgKa7NS3T1VbTyfRVesEUVQvey6oNMaB3ziZFyZD7oCwb5dL+6rtsJCRXgFaHrVdrKxwsG/cLvIo9hxKlgqR9d+XRM+YL2Q8UznofE4iKP9P6d9ZAclyn+goH/488Rl4bNytY0FWTUm2rvmorhUNVcz2UvLTXtsRg4FgfdBtEsC91UBjToU6RUjkMVMIYcukxlDlGfpi1NBRL1kZg8ZpIsXrnr4oQV/r8l8Nhz73g5XBB5WWi+vyXCXEeiUWvRGLJq1GYuUy1MWfzO2UUWLZU1bopC549cUZPC8LWnYlgbgFDrZy7rVdiynXBYRkxmYCPPtJzg4e0JYVDlA4xWDylCSDzB956Pw5n/roMJkuaHuC2jsPWz0koIbQIB44yZ8wf7bopUEPjXMNavjYoHiJn+jFfyQP9RvrJOn7+TZbZXj+q18xtnDmXjwlzqHBckARyYrawJJkKBvPg1K08XfTWEq2VZ0rPYT4YOZU4JXGITyi3ez1spwMxd4qx/5NUUR4kN8kGuU+Fg94Q5md99mU6YuJKpMeLLc9tFYWDVQe/Srv6WPQf42elC6jBgja42tiVrutgH+n98ZoBCIyatB38b8u8zX4mLbMK+46kYdqiEBCHw1xZrN6onQZ4CXNQaIqHoxWhzVtb4eAGZ3ISKySWvRotcMncDKrkz5KHQ20UKgXdh/iCLZNZk8/a/KZeVwtv4a8Ll/H2diahBeLZnsqdaUmwa6Eq1p0zvSI+6D7EHUvWBsPTJxdlZbdw927rJV1JVZZnPnbuS8To6cHoQORWcW3XHcDGB5GM19C7oCPLxft7gq2ll2+IEgAdKhv2lAe2tsJB5NHcvEr8fOYSRk4Lwv92cJUEUXProfeFBqJS81YKoennqXwo65wdiT2kGoDdlm/YmLTYVgqHynG6C7+ga1j0CssHVe6D2fJe7e2gdU9PrXT/9cTY6T7YtCUKf5zLBZGYA0JL4RNYAq+AYmnc5uVfBHtuJhjy9vLj/xVLM7fAsFJJWP71rytYtTEcg8Yxv0qNQdG+oeKh16vjABXa6DbQG0vWREmLBnvLy6/k3sL3P+cI6ijDgww7UJk2XXfjvSDPNxywVOIGjPbBq5uj2yS0QsPmwJFkzFwULPlfzzPkJ2GEhnTSY+Z4KYdZecnWGDs+SoS7T4GUx5rKO55XVDoYalixPhI9BntKVRO9OlrJUPSvU8TV74q/eLZwH5Hn/IMKcetm66QWEAn4lzOX8dqWWLBCx1zvJD1//cpxSpUKq8qmBeLbH7ORZodnqlUUDuNqlbGzgsRlxcXiYPXATV+F4GIZqR4Nz3RzxdgZQTjxw2UkpVZKq9779x/YpXmbMoK13009HCQsLWzjsdYyhoF5akMq/8UKh6YLQ0of7E/GhNkMKWmkWMsKBw8OauSyQZw9sHhNBPyCi0V5oRJj73XjRg0Skkrx9XeZmDiXyZfKmpRKAIMFbbwW/FnzFK0T4gD8u/MFDBzvi32HkwV6nZvqjklTMXvHZfp55dm4LVDxuw4kYOaSYPQaSqA7xbt6TKZj1ePt2M8dL/ZmCMJHwncM45H29l6trXAo5FF14M5eHi5AfvRqcd2V9Y8B9IgAACAASURBVFq3N2r3xQCVt6Xmrva8KT34/5QHbNc+Yqo/tu5KEKh+W+ffVgoHXeOXrlTh5z8uCxggY/gSUnLmwWAqzwy0YK5GPw+hFfMTlr8agq++TUPO5SrBJ6m+/QCVN++LcsWW9AR4a8ot/1t1T/YaSytZYkksjUOfJWP2siAp3aU1ruRX3TppnpT1Ek+tp2CpsBKJ5eW//HlF+hJx7rZeZRU1CI8uwZHj6Rg1PVhyHGxxzXMsKofBA+26ugpY3uHjGQiNLEPhNfZpalkcCrWet/DHuTwsXh2OnkPIq14yfyocpnyqacVX8qyy7BXi88kfs5FqJcmWnp93dl7E8Cl+kidinFqg9kvduuj16OysyuSZD8Pz78uTGUhIKAVlY0tdOoRN78mHB5IwbUEwGApm+I+eqcbpYFA4ulzA+NlB+P1srlQY3b5tGzR+qygcqo3uXdHcF78aha5sj2uwamQyVhQPEciCue+HaYsisetAOiKjS1FZeQf37tk2saYsDttzv7MzAcPFNWge2lwzIRmQHgDmecxt5fb0re3h0LQioM3ZC3mSuT1QkuPc0aGv+SZqnD9v0oN0YKddopb+8OsVEDiqKeVctO6v36iBT2Axlq6PR/ehAejq7I0uTB5tdCNQWFA5dJN4ebchfhgxPRyb3kuGp08hCgtvitKh59ncV/YocPXMxwf7EzFxXrAAW0lMuvYwNq+kKVeyCle17+El2CevvxcvwEMsMbT3sk/hcJVMe2bAE9yOQEbWLrrVqXQQlfbtHYT890ePoXW9d8wJJs0X+lXvF/3Kg5qHNsHdnEb6YtmrkRJDzrYjWdZehYPeyqkLgrH341TpO2Rt3vrvRSV3wDYIuw+mYNjkoDrLXXsz6inBPDzIhwo1mQcowd/o/fL0KRBkY3ppaf1SGSevN/u+/1Byxqhs8LsLr1Xjgkce3tsdD0IM0Bq3augZkkfplRg1LQgff54Ke2LypJV0j62ogavXNcxYGiFN/6iY6nCoOT7R/MDcPX6OPVaIRjt6ZjDe2pEk3tbSshoBxNLr0dzXS7m3cOJ0DlZvjsHgiYQAUJ4NNT61frXjMqwt/6bknPK2tuvuiikLg+HqdRXXrzd+HmkgyelLQpQCKK0+LFQ16edRnhKbpq8X+o7yx4KVYfjkeMvmctypuY+i4lu44J4n3al11RILPNS+rVOEaunBM9tAC5XD4SKRAE/fa5J3Q2+gLVerKBz6wclpldi+L1kQKbuLxWzQuC0qHOrg6MTEKMnqZp4ErUDVStknoEBgaCkI6LKyJ86ox8RXvfGZZc14HttyJyTfwM9/5El1DcufqHlbCynQbcjs5dkrwkCXMA9ZWyz7/5SyWGOa8Ge69BOTy8EOgzprmQKLjFbLeHpjGJSNLs6qUoRlkYPGB2DXgRSpISd8fFMvArDtPpSBSfPD0WsYkS7ZDp280XAcMi4Jx7mCfMNuth0G+OLZPn4YNiVUPDZ/u+QiNr4c+Vdvgz1ouEb2hOh0chyTaxl2u+BRgO17EsHW3N2GeOPpnlR0GhkfaaY3rISqPPFcby+MmxMG1tw3FejOHoWDinHv4V6YsSTEZoVDrx+t8y+/TcfydeHoP8bf0NTN/HyVgObf6hRSY96hwsFScgL9EVRsx0dJAqJ0rdh2frFd4VCHPxWOKfODsedQCujFtPW6dOWm5Jas3BgNp9EBVjxYijdZWcWqHEI/M2Hw2x8vIS29sk2SIZlgn5JWgRPfZwkOEnMTlKfBkgKsrFnlkfGU/fv6e7H47exlEDXX3is+6TpeezceA8aqXCZWmolHyNK+NXgomb+gFHYC+XlI+G7vkTSpfGOlFFtU0IK2V97rVg78/+TUG/j1rzwpRR04wQ+dB3pZASpTNCM/UyEijXgg9xjmhVWvRyMyphQPrHjcCc9/6udLeOX1aGkI+kwPVzlTjPeD6c/yPDHOvSVE3HcEQ13h+OXPXKRmVqK0nJ6fpuWmEdG0suo+si5VwcO3ALsPJoEIwUQNpZxXjQXN72ulbKjkcJZ4dx3kieXroxAWVSrYLWwrYcvVqgoHmfY3Qj1viYPzWAKB0WvA6gedTGZmI2jBLNnvjPV6gsrKoIl+EtOiBu7tVyDY/7QQ6B6y95IDpPo+CHwSHFaEb09n481tCZixJAz9R/sarGnzAlMzCBmDmeIEiGGHWU+/YllMLqq16z9V4ai5+wClZbdxzu0qJs0NxVOd3aSvidLwzayVKB/KYqWg6DvCT+LxBHwiDHBTL8mN8MqXrrYDxgbgyS4K/p40N3Xl6/WoPdDloGOs1EsS2AaO9cPsZWHYvi8Jv/2dB1Yc2KoY6vHTDZ6bXy1KJXN8lqyNwogpgZA+IzxgmARGpces5auUjU5OLqIQUYHu7OyLHoO9sGxtBLz9r4Ft3MnL9l6sBlu6LlIUMQpFZVHWXyctMHWXTtb77ztqH84Nmz55++Vj1/5EAVlrFJjNoJDWrovJ7xwPlfR/dSBSYRC+++0ysq5UCWierfO3ReFQ86Yb3BO9hvlg8vxA7D6UhFQ7AOqS025g295EjJ0ZiJ5DfaWUkzF4xYcN6awtYR6ePOjnrAyHt3S9tc0QsXX+lj5H72/l9Tvw8L6K6RqgTBohWrZca/mjnyf6jvLF7OUhOPRZSpOgznOuVOHrH9KwYmMEnEYH47leRC6mkdlIxVutvOfnVOVb10HeGDQhAAtWsyt1Klw9C8DQqL3yniGUnCs3QTC693cnYcbiMMHREJj92lwrLVPqr2cd/1LO04PrJmHmWcvDcOhYusDcW1OAaBh7+hdi534e7H6CzvlSPzfQSOP3m5OrutqIiqu6CT7mK7z04eEUBIcT9r9prT+IrZOcXolf/srDmjdiJRG8y0Aj+IdGFEPKV/FE9XWXvjljZwRi24dJEgq1Rgdjfm1VhYOClC2rvzqZhSkLwtCxPz0WdXEicxtXLzT/ptzk7niOAqrTBTC+xYqQXfuTJHYUEl4iqJtsz65x7umaZmiADcr4SgQ7HhZs4kZXP2Pl0fEV0t31179yJUN39aZoKXOickMQI+WGtMSA6n2OTyy17nQthcLdpwjXK1XDH2MCm/u5qQrHiKkBOHaCFnFFq0C/U3kjqiLpuvgVAj5RCHC9LJe5KYHFmLzqAjlskp8g8UXHlcl3NUUhvHnrLrJzKvDzmRzMXBIuXi5JyJTqgMYFhPBUf6WtM3GPPV/oOmW2OMMX356+JIBW0XHlSEm/geycKjDpjTzCZGe+stKGeBhMLqPVFhBSgt/O5mH3oVRMWxgq5Z8v9vbAc4ZeQUpwWBiXCFQ3UOGg4HrJyR/9RodgzrLQJvew0DylPRxUdmhJtpbCUXXzHjIyr0sVEuP8KldFCUS9X62/aiGrchxYAsg+Dt6BRagywTHQ87P0qhSOixg83g/dJDlSeVSMx6D5kkBUBIabNC8Quw8mIjXdelKz9mixF8zKjVEg6nAXVqU5eVl0OfN55APuFyZBOklTwVjEJdqOHGtpvja/b4Bgj4opxcoN0eDBLcntjVTV1I67v6d46waO98FrW2MRxf1rp0FXWn4bIREFOPxFKibOi0TH/gGSSK2VNNmbJgqoXjM1DvKwAt/ivqViMGtJKLZ9mCgWPtcjLvG6eBkZguM+rb9vq5Fz+Zb8nfuW+WQ/nbmC9/ckSoJjhz78bhovDcu79ThMX7mm4gHq6Y5hkwKwY38y3H0LYYtHjgc8wdRO/piDcbOCRGmhDNChN0sKB8fAqk16fuQ86sdSXC9MWkDvZArOuedJ08zk9Bsip/ILbqOo+I5gYZSV3wVvdr7lGCnTiFhKTxG98CdOX8am9xLQf6y/YLBQRnIcmv6m86/9XQxshQjeV0KhUfjy22x5vs38CaBVFQ5qpNev10gnvg3v8FD3k7h8hwF+yiLs72qwWM0d7nphmKilgJR48LFGmU2exs0OxPyXw/D6u7HY83Eyjp3IxPe/XpJ4+NkLuTjndgVnXXPBZlg//nYFJ37IxtEv0rHzoyRseDtOwKqY0EomchrlJ6iZktRjwYKpJbxhw3CBVJfPC5JQ5uJVKM18uEmtXaJwbIkTodSFEN2SUGuOBuo9/p3t6alwEO2QQqwloM1Nx0mvGBWEhKQKvPtBPEZPY7KTD14i3LkIVHVomNKCv1MbZ9yW1uvMpaES4yyruNMkAC6pDrh1F1GxJdixL0HKlHsMDcDzfXxFebDFQ8a4JIUXLU1WjvQc6i0gVCOnBWLW0jBseCtWFNdjX6fju5+zRTAxpPbTmVx8/8slfP1dFg58korX342XssNJ80IkO73nMApxdWiqkJviU3M0ETckrbt+Kvn4JSdvPNcvEOPmxUjeQlxCieSsmK6Drb9HxpZLCJDKhigcXKMGAl0pIuxXQkt/+uJQfHQ0TYSyrc/helDpYBXT8nWx6DHYF50HWC8PNaYJ9wvzuEgDVjUNn+yHt7fHI1bKMO0LcV1MuiEQ8sxTUNUYDRUOZZEZeTjmBmL3gSSbFI7q2/dxhbDPZ3PBdad1q3KZ6FZXt/HcFP+rw5IeFfbRmbkkCAc+SRal1VY6t8jnHj1CcsoNsT7HTA8U77AGXhMvYAP+MBhQzOVw4v51l/3h7l0gpY62yDM9bhorZeW3JaS6drPyancdEiAhTpWM2Ihn20iuiiXNfAfK++E+GDzBX1A42Q799fcuYu/hVOkp9f3Pl2S/6n373c+X8cXJbOw7nIpNW+OwcHUEJswNxsDxfug+yAsda0tSzfCLKV2MFEgmxlPhZAnyBQ+lbDBR19pVi9gbWIyFq6OU8qcNbvGGWpaniqcowxRfUb72HOojIG00cF/ZHIWd+xPx1XdZ+ONcPjx9ixAYWoqwyDKw6Zx/SAlcvQulWvSzr9Lx9vZYLH4lDOPnBEuH2C7OXurcYVFEY54NPU7uXWmy6gbnMf54b3cSXD0LUVhkeyiU9GpVhUMvyOXcKnx7OkMQ5QZPDBUrTyXsuFl2Q2sGEAtRxc+oEFA7ZQYv406MSw8a54up84OxZE0E1r4Rjc3vxuGdHfHYuise7+yMF6t23VuxeHljFOavDMOE2YFgS3P+L7/j6a6u0p5da3oWXfZ6PLWvBG5SbcWZLMnMZyZtsYLB2kUtnS3VaQXZq3B8diJLhHRFC/RSsTROxuyZWb/i1TA4jfbH8328VCzWUsjAoHDQeniikyuGTg7A8RMZSEgqk74Ylp5j7f2Cwmr87XJFym1Hz6CHzA+sZWcoiweYWivzippo7ByXs/KoUfFgDJVVLM/1ckX/0d6YNCcQS14Jk3I+rsdrW+IV7PDmGKxcH4mZS0LgPNZXlCn2BXq6uyue76MqFeoUsEbGIVaKOqxe6O2FLgP9MWRKGF7flozQyBKwl42tyVbmaEWFg7gOzCWypnBQEew11BvTF7F1gH0Kh352YvINvLMjEcMnG8JJBo+TWgvz66APZn6GYyQvOY3xx7J1Efjy2wyp3tDfb+srPRw8eHiQMJasSjBNnm9wAVPRorI5aV4Qdh9Mlt4X1p5DyO6I2BIc/iJd+uI82dlNhC2tTjkIamVA3TM5P47jmZ7ucB7vhzfej8WZvy8jv8D+XAhr47P2d3rnvj6ViRXrIsBuv7p6qrGDheFA0optBUZMCZI8rqSUcrtwYfS4+HyiVzLGP2B8EF7s7yOhccUnjewXkSNUBpRCQM8CPWFMfn2i0wXxdHPNCda1dG1E7b4lbDiNyDWvx0hIl39nGIKWO5PZmU/zYm99cKvv13xp8dVg0T/Xy108RcSK2flRClLSbM8B0vSQ6r8DqRg/lzlfPnjO0GW48fUwKLdGig/lK1GMyWN9Rnhh/OwALF8fiTe2XZSx0ZA49Hm63Az9btubpBSvVWEYOpFnjfJQ1MPbkPNV8bV5Whh4ngZlX5VjM2FOCL75PgeJybbh5mg68LVNFI5bt+7h0uXr+OWPS5i2MFzKHaVJmMSplDvH/GTrNrSqUlAaHy1+uprIkN2k8ZU3WIJGRcJ5nK9ALA+eECCvPDD4PtEraXlQ+NAq4v/q8AktVeWObozwaix604ii0M8D7bq5YzSTw05nIi2jDOwLYu1iM591b8eh70hC6uqadaO5mgg08XCwO9/UAHz2DRWO66hoZrfYxsbImL2nT750EmRjNDZIU90+DcLCIHiN14ybmx4OYmew38CGt2Lw0285yM1rusAVAJ3CaonhvrIpRhARGVphvohSOqxbTBwjx8b1JR2paDKOSh7oNYx8Q/7wEwEl0MNjfOVnp9F+UirGPh8yN/JcX7fGk1eN1k0JTdKL6H2eeLKLH5zGhGHLB/E455qDvPyqZgH6MG4aGVMminYd6qQ5D4eaOzFlmDw5bUEo9h1OQ1qG9SoVUx4hourHn6Vh7rIwoRvnpd3lxrxg7mfSgwdy+57uopB+eCgRPgFXQXAxey96CGnBOo/1EYWjVtky4Utxz4vCwY7CwQLqZ0vSKEOxf124IpU5AycE4JmeHhartfRcOT/Kk6e6EBApyNDVubxZCre9dNGfLyquhpdfHj7Yn4DBE9njRCWyKtllXs7o9eH+HTguAJvfjcXvf11CfhOSR6U3UkYZvvspExPnBRkOWG906s/bRnmv8Wpq9y35h8mKXlLxIVDhlPeECx+jYMMp55nwT08e+zzRK9CBXo2+tst3UQJ4yA/wwPN93PE/HV1EDmzZcVFaL7CTsr1XUcltePtfxc6PEjFgbACe6OQuipRaD4NMNZIdmqeMX5UM02eWKifmWUY6DBzriyET/MBwNivJePNnvsccNsq47gyvidJgW8pA7bNFcVeeQqZE9B7ug1WvRUtKAsu57c09axOFg029Hj16gKSUCmzfmyQdKNlptCPdsgalw6pnwaCJcZEU01LYUXFg3oUHnu+lEjif7ak0QNaVP9tDWbXP9nQVHHwKXXGxS9ikPpSt1eebYQgKGFoEw6YE4ouT6UhIKrGpXpo5GMTKZwYyFRcKTM6pdpFNnqUVDnbn+/SrLETHVUj4xl7Gt/XzupnaqZ+yMZEx+94GhYPjsqARc10khNGPjY78MGlukIQs2IzMnqQic2NUFlu2xKWdxwXixX7eogCpRE3LdBN61uMbZd2onAc2mqILWWnt5JFne7jiuZ7smaAQBV/oqxRTfaiKgLAwf9O142epCLzAcJmzD5xGh2LFhnic+Tsb2TnEKmleXT1pGhFdJtgn1hUOXa3hjSnzQrDnUKpd1Rp6TXLzb+Hn33OknTnLpkk70sZ07uZ+Jz3Ix7Suxs0OwqnTWUjLKLdJQdfP16/xiRXSNpxeKjEe6pU31o2HSiYVTOZgKIXDlnk/QmZ2JY4cTxV4aXoIbFGsOD/KFsJDT1kQinPuV1FSdgdMxG7rq7KyBsmpJTjxfQbGzgxB++50n6vEUXNrw/c4ftKLQH5sJjhtUdObqj18+BB3a2oQe7EIW3fHYfTMAPQa7o8O4ulQCnBj8k6NUR3EHJexvKfSQS83Qz+qtwn3rQtExvd0lXOAXhGeC52cvARcT8rqOcdGPLS1dKmlAw0o1cmZuUY//X4JmZnXcfPmPbuXs/r2PeTlV+Kv81cEVZbhmZf6ekFD5DfmqdXjUnTQtCANFbAby8vpfW0vnhwXtOvmAvY5ad/NRbw7PA/pGSE9+D+KlqRt3T5p7Gd+njR/pidzofxk/J9+mW5TzyNzhGojhUPVopaX30FEVBE+/SpdQGbIgIzp1ssR4MHbyOFrShwShEKPXgrjm8KNt36Pm8n4VoS3heh1jM9nK/hbJWgZ2/3/nj0nFvHxE5lITqlApQ3Q1GxBzl4zfYYzNqi+SzOU6fzIjExOZV0/FY4jX2QgIqYMtrYDNrfo1t6TmH0VAZ+KpJshoZIVndWBbW6DaMEg8c6B3ugzwltCXFFxpXjwwP6SNuMx3rp1X5KTzvydj8VrokWh6difGfDMI9AWk22WgqYvx6sVD3q7NJ/UvkrCrPpuflb/n7VXoQN5jRVMvdzxRBdP9B0diDe3U9m4hPSsclE2mhNKYa4NS3vDIkux+JUIGbuiA/m5Ph1knobkM3o4Js4JxAf7kyRh1pjGtvxcWlqNoJA87D+SILgUxBKhp1LtCb0O5vcUx0E+poBktcA5t3wUFzct254K+/q3YsSr2dWZ8PfmBWkDheNgivWQyqNHiLtYjvVvxqDfCCo0zF9SSdMN82OUrNIySPMiAfCIMsmmhE1JmrZlLRr7DMsmi4urcM41V5ohsguqHMCNeZQNBzsb9DFB0WmUF5h315SkVyrDVDpYTREaUYgjX6RKCfjzfX2kWSENNa6N7BV5rn37i/9LI01uE7mvZbzN8t1w3tSORfrLeOCpbh7oOcwPy9ZFGsLDFZLH1JR9q6siGWI+/HkS5q4IQbfB/mjX3VsO8y4D3MSQ4xisyRe9vzXPaXmlzzvTV/7dmNbWv1/tX0UPpdgQQO6Jzq4YNoVFC+m4mFja5NyztlM4AAHtqqy8jcjoEuw6kIYZSyLRf2wAOjGBhRn84vqi4DIvtOoTSwlWzSi1fzOxaGvfNwhi/Xn9Wvf3xp/Jz3PxlBLjIQ14GBNnqGbZuij8eT5f+gBYQ+jjYRETX4G1r0ejt2S/26hwdFNIfIzRMSmInVlb+6pffkgrSR8qDTeGoqcHCPtM4Bp6D5g8SgyMlgLeysq5ic++zsbydTEYNT1UBAJzgTQirG18Y7yhDAlTRhudVpDcBkFoD5/w+ZpHyCesEnAeH4KXN8Xjj3OXkJ1TBlbgNPfiIcbDLCisBAtXhdugcKgqIjZXGzPTH9v2JoAln/Ze9Mpk5ZTix98yJJnyuV5UOLzReYDl6g3uL6GLwYvXY7A3Vq6PRlBoCaqr7wsQlr3joMLOfC3iijSmsDNRkV4HejhYpbRzf+OIrkx6rKi4DXevq1IdQa8p11N4QCxkMzLCgDfCkCPd/XRvv/5uHLh3HtelEWKDQouwfF2kJExyjSwpZiIDDQoHP8M9xbAjWzawbJvVFkyAtPeSMt0b1QiPKsb2fWmYvCBSeiTRYua6UAHVh6F1OazkfZ2H1fB7A0u9/rmg97O179d7V7WzYIkwy3KjJTQWEV0C5vU09youqYZfQB4OfpKEaUui0H1YoOS28Jmaz6yNs07hMDb+jOSxicGu5Zd+tf79ar8qI575UV7oNthHgNJe2xqHkIiiZuWetanCQc2X8ORcPDZ4+/mPXCxZG4bewz2lCx9bJUtGtVGZjj2EsoWY1j9jzLAkvlIIyBAUQE91YXjGHf1G+oh76cBnaXD3KQQ7a9oiQEkDlmSyFFdB61oJqRgsQyY+DZscgP1H00RYE4WvtS+WGxMifNrCYImLsgkfGbHRZCddRtbLUxoCfXggET5+tGbtj32azo/4GVQ6zrsXYMuui5gwN0gst393oitVaeMUHOSZhhvTzGHRQFjZ8BmDQqv5SPMnXzWPkD/ohh8zKwQffpwBN+8iZF8i/kfzkkQ1PTSgkW9QsRwKzC3pwAODSrUZgaOFBw/74VN88c7OOBB22d6L1h3n4B9ciCVrwgQoSErdnVRs3hxfkC48VKiAEk9n1NRAbP0gEczD4DxsxAuqHarsn3junyjp6Mx1UIdW/bUzfi5j3eNmBmD73sRGFa2KihpExxaDWf1jZgQrZFEbWjLwgH6hnyd6j/TFzCWhOGAjkmvtpFr4B9KoDiE2TiqCiOKpPMl6f9SnVx0/UxlQiflMlGR1X3LadVE67B3mo4ePcP/eA5SX1yA5rQo//kZkywjQK/VsT4VtwT3DZ+t91Gr7ttbzZ5ANBhnRydkdBLKiZ+dZeiQ7nkfvYfTuxOP7X6+I4sjzimiqzb1oJFDpCItiQnIGFr4SKd6kf3V0kWeTj0gH7iNND/2q16flXo3PufrykvKC4R7Ke8qxsbOC8dEn6aC8YQ4L5QB5rClXmyocpgPMvlSFY9+k4eWNEYIm2n9MgAEBTsVD6fVQ+Q2KKVuO2OY3mzHjE6xGXMC9lRJEDBAmzAya4I8pC0Kw9o1YfPJlJsKjS0EESjKTtUtbpsERJeKq6zJQQetyjqpsjAxneiuvCmPfhOPdsS8ZHj621YFbG4+1vxNp8eQPmVi1MVKy3Ql/LALCYA01HKvaMAxRMDO+D2N+bLN8PEUa/DSHUY3HyqS+Py/kYtu+RMxaFi5JqnR90wPTMBFY0bOleUfPnYcdvRlURvnaY5CXlK7NXBaB7R+lSikpkQ5tqV4ynmNjP9dBSRdixlLm2LDbJdF5Kaga8o9WOEgj57He2PRuLOKTmo4PcTGpAm+8G4PB47zBpl+0gvgMJRwbPp/8zQS8PiN9MHdFGI4cS0dmtv1JqzqURA8fwxbco8xf0QpH/blT0VFxePYFYvfNrR9cbFTRupJ3Ez/8ko1X34yW5D6p7iBQoQG4qv7363kqGfVcHw8MGOcvoVKWVTena3Jja2/P36T78pFkzFgcpHplGCX5mp+Lkkf0PjzT3QODxgVgy86L+Ns1D6wYa+6VmX0TR45nSmXVmBlB6DvCR/iVHkrK2rq1bKg4t9z+rTtoKcte6GtACR7A3BUfSbZ85bUo/Hzmiiin9O609EVjMSisGJ98lQF2DWaDU3pDGfaiDOGt9pPeU613/mmFhntI6NFHt6j3lGT6aYsImpgi3tSWgJp/rAoHLVYCLzFX4JvvL2HjlosYMNZX2gWz/S0PWZZqqQPZ1IVUp5VRK9aEM2VM/b5+rf27WUtQEZ0b4PlerpJ486+OF/B0dzfZsHOWR2Df4RT88fcVhEaUIjPnJti4yNZYreoxUyMekdnLQw0VE5yfstK46A1vtRnZxtt5rB82bY2V2moCurT2pbuhvv/hRUHKI3w5D3SBIjY7Vo5flY0y4aoTWy0P8cTLGyIQGFLYLFec8VxZvUKlIya+XEJZO/clY/Q0f7zANevqhqe7qlwBFQKqnxxcxwf1+aeWLwxeXtvcvwAAEcpJREFUD/25eq/8m3Pd98kG7c1EQVf83xfPS3dhll1v2ZmAvy5cBaH9i0troJtrGc+hOT8T5pkAd7+fzZNeLk93VyXisk8srAuVQM6x11BPrHk9GgxLNPWSJmGfJmP2kmDBSVBJaWrtG/Cvrl7q5S57e/2bUTj9a9Oql3Qs3CegCFMXBuPJLufxfG8FF93guQYBSmudaIoDx/kIZg+VJSaxm7sIjvTmtjgMnqCqHGjdcY2Zj2Pu+/V7kizaww2DJvqLF4UYFtw7j/tiefvXpzKwYn24lOA/11tVCulxm3sl5hENvRf7eKH3MF9MXRCIvR8nIs0OhFZL8755874omuy/QUyklRuipFT7351cJEeNMk4lfNKL6okuA4x7KOn9atlYrL+H9ef5qr6P30lFi4c514yJpk92dpGkS3rB5q2MkFYDweHFoLHV1FCSpfnr92vuPhSQrqTU66LMsXkjoRWocLD0Xsp4DQixek715JD2shq8NMorZA9dqMiQFkb06KNhA5iA64a+o7yxYkMkfvkjV+SYVjaam5P0WBUOvQAsr2GN/y9/5GHT1nhMXRCCUdMC5YAl0BJLRylM6TqmJqy1YZ2d35ig1ZuKgsP41pokv1N/L/t1EE+esNNOo7wxeIIfRk0PxIylYVj7ZjwOH8tEYMg15F+tAvuw2HvpMk+2qp48Lwjt5aAwKBzaMqWlaHxLSMVdek/QIlj9WiS+PZ0l/V/sfb69n6+4XoPY+FJ8/nU6Rk4NEKGg49q1GrjxWA2KEzc12yuzeujfHV0waloAfvwlGzk518ES6Za65ODNr4aX7zW8vzsRc5aFYexMAv34SwiI4DaMSYvnw1DWKl4zQyKV5o3GXjXPaL6T2LPB88b8AVpFzuP8MHJqIBauipDKnL9d8lFQ2HoHDjPlWUlB4KMxMwPxVJcLArgmh6PJetQKWAOCbldnDxH0hEVvqluUpc5UGta9GY1+o33FMCB9RCjq51OwM7wmlSIsh2U1l7+gffr4N60clp4durcJvT9megD+7wvnpFJBvIP6ufrVENpjkirpwnwPJmoznEnFxdgjLACFN+7CzacQ0xcH1+1LyeznfqSSbbovlYeDvEOMkye7XMCwyf745IsMRMeWoaKi+bk6zd0nRFmmcfTGe7HoP8YHbDzGqh3pS2Q6H8Pv9JKpdWOYzBvdB3lg+boIBIQUg/lpDIM19+IaRkSX4psfsrHm9Vg5bIdO8pcwNQG6Okn1IfOOtMdS5Tgo/jZnlDV8j3wndz/1v+q7FMgiZRerm/oM95bS0SnzQ7BqYzSOfpGBhOQKVFffk5BUc+dp7f9v37mPq4W34Bt4DTv3p2D+qkhBJCUMeq/hvobSXnqV1Zkn5xTzCI3OssZkl/HfzNGDNCFNKSNY/k8EUYJqEhyQXr4vv8u0G0nU2pz/IxQObngqHbTaCUnr5l2IYyez8Ma2eAlfsLaa/SpoybXrSrAulv2wHIqlsNzwqvyNngluKOOb78n7vWn1Gkpne7jime6qfKhd1wvyfSyJ5AIxM338rECsWB8pjb+YZ0KIXJai0g1cWspGQk1LdlPVFlU4/dsljJ0RgCc7XRDtmlYYD2hugq7OJvdAtUme6OAiGj8b+Xx1quUZwRyjcJ75BTdx5lyurAOBs2gVkL7M2Dc3Xpb5dh3oIa3HydD/5wVX6UPx/u6Lgu1BjI+WujQENWF9k1JvwNu/CN/+dBnv70nCrGWqLw4T1GgxsFyMApclZCx9JS/wZsKWlEtrPjHwj+YlHib8/LPd6T1xwVNdWHrmKuWu/Ub7YObSEGzddRGEyWd4jXDpdD9TuWyti5YX4+rfsEnXtAA8ZQAzo/CgRVSPhwaqvBtZux4u6OzkhhXrIhEeXdakHArOifT29iuUTqhOo33xr04uYjFy3WufPVBVdtBDKaXqPdwwcW6woLqmZV6XjH976UME0LyrN6VdPDs6/98XzosHlB6M2uc6ewrceXdDZRXLBQn+RL5csT5Kqkco6Mk7+iJqLytfPv06EwPH++L/vHhO+JzygAYIlTTj7+fPhFTn32i48Pv/1eG8GEnf/3JF2izQe/u4r5LSO/APuoYPDyaBGDP/2+G89H6qm1d9uql5sRJP5UMxz+J/O7iIMv3Dr5cEpI0yrLmXDgmy3UTsxes451YgqL6rX4sSCHJiK7Hk9amulPcXVJlnd8oeVn4xX8vV4r7lfpU9K7LeTUrdyQPcs7xZWUhZS2Ny8SvhOPhJKv48l4eQ8FIw5HO98l6T94W9dCEPkhcZkic4GD13p37KwXu7E6SFAlFWqci373ZB6MCzr73IYNJB3SLHKMNMzj39ex09WPKvSv95drbr4moAvXQVXmYF5Ir1MTj6RRbOuxWIfGAfGmtFEPbO+T9C4TAdNAUAW2LTE7Dn41TJl5j7cjgmzAsGoamHTNSgXn5wGuUrsUBqq72GeaHnUE9JJusxhD97CbhT7+GqTFPAwYyAUoZO8hOrZPSMQEGvW7Q6QvAxdu5LwtffZcPb75o0DbI1ZGI6D9Pf5QDPvwU3zwK89k4cqFkzB4GQuUvXRGH5q1FYttbo5u/roiTOR4jleS9HYMe+JPx5IR9XW9GC1uNmzgUhrVmGu21PEuYsD8Ps5WEgxPCSNZENx7s2CkvXqnm8vCESpOf4OeGYtzJakk/dvPJb1dXMsaZlVsLVu0DQ9ogeOo98M5d8E4Ahk/wFJpmhKQLmkGeYIMZyUYZ+esit+Kb3MG/BSWEVkvMYX+nbMXSivyTujpsdjLkrI7BhSxwOfJaKc+5cj1tN9hhoetv6qpJnq3DWJR8b34nDtIUhAtW/cHUklqwx4h/DWixeHSlw1UxoXPByuHRNTUy5YXfXXD0+KjwpaQTyu4zVr8dg0vwQzH85AsuM+Je8TB4hr1D5m70sHFt3JSIwtBhlZU2DvFcW4U24eV2VfTppbrA8d6nRc7l/+OwV66IkV4CNFWcsDpXP7T6QIoqFqcJRfv2u9A75+vscLF4ThTEzg6ThH1Fcyc/19iR/fzUKy9dFCaw85z1zSRgmzwvG61vjBRCprKxlkgw1vZv6ynVi75hf/8wFgfOo8HEPL3olQhA5jddL5miYF+m56BUi7YZh1LRgqQr7/a9cZGbfaBIOhbXx010fEl6MU6dzpMnaivXR0ol5zMwAAbESAKtxCpyPMpxwAg33LaG/CebHXAzuXR9pxElvAaHRiX48ekYQpi4MlXV74/14HPsmE6HhxSgsvIU7d5qvSFmbp7W/U36lZ16Hi8dVAedbszkO81aGC0ruqOkBGDrZX2QY0Vb7j/EVkDMlw7yVDBvqZZBhSpbV0YPeC2/xclGhHjLRD/QojZkRiBmLQ7ByfRS2fJAoaQ3RseUoKWGaQPOTZM3N9z9S4dAuzqsF1WClBCGc2XjmzLl8HP82Gxq2dfN78Vj1WhQWrQ7H7GUhmLooGBPnB2H83CA5ZCbOC5ZDnZ0TudGIWfDKJsKfx2P7niTB3D98LAPf/JCDs65X4R9cDLqaCV976fItFBertsiMWxm7YM0R0pb3dHUBAZRY0ujmVQjfQGLglyA4rFS0bL7W3uGlCIkoleZh7r7XpPMkG3axQVFLWBrWxqyT9NgIKJYN7wKLJVOZPTWCzI03rLT2/fCoMvnZ3acYvIlLkJZxvVXbdBObgu3nC4vvICO7StaS3Tp/O5uLz09kYs/HKXh3dyI2bokVaO25K0Jlw7F1+cQ5QVI6SaE8eX6IdNtko0CWFRLzYesHCfL/n36VidNnrggdCFGfnlWFgmu3xevV1BCFtXUw/bvaH/fE3Uk+cve5Bj/DmtTyjoGPaLmxBJUZ5rSgfAOKZS3Z4KmpfK17RNBCDQovhYfvNendEBxex7vy3LBSGZdPYLHwLvfxteLbAobVlFiwVoCZkMlnMReAjfWMnyvzN+wb8qhvYAm8/Yvh5VcE7h0ebqYhFd0NOObidWnCeN6jEL7BxQiOKG343aRr7feXiIJBz5qHzzWQ59lbgjH6pszPdJ2b+7vQq+oe2CadtCCf+AYVITCsRNatAd24pw03/0aeOe9eCC//IvHctRaQmXg8ympknEmplSIHidNy6uccCXPsOpiCd3YmgC0qCGk+d3kYZiwKFdk+cU4wxs9RMn/i/GBMXRQiRhE9wWs2R+NNwn7vS8bBT9Nw8occuHgUiEyNT6gQTxThBahsGHu8mkv3pv6/Xi9WghAJODKmAr6BxZKn9uWpHOz/RPUCe2sbYdyjsXRNBOatCMfMxaHigSa43USefXOCRJ5RCZ6+OARzV4Zh6ats/RGDt3ck4IMDyWB15Ykfs+HmXSDhLeYvcT9XXL8rykZr8e9/pMJhumD6IKFVL907Q9mYpgC//52Lkz9m47OvM3Dos1TsPZKCXYeSsfNACj44kIpdB1Ox51CaNKv6+Fi6HDqnfmKDtzw57BmXpGuZaJh0E9tS1mo6Nnt+pxP34aNHIpBuVN3D9cq7uHX7Hu7U3JfEU3pSau4Y3fz97kNxz1fevAf+D63bOzUP8eBhnUvYnjE05bNkPo6N9OFNTw2rLhqM984Dw/sPce+emmfVrQcov34PbNXMBFsKl7a69MGYV3ALsYnl8Au+hgseV8Ul/+WpTBw+nibdgqmIMHHrg/18TcWHh1JFqT18PANfnsrG6d8uS94Ak5uj48ul5XVLuxrtoYlWBG/feSg8caPyLnho0iqpxz+GNeJacc2opFIhu1X9oFmlbXqsFNLkB/IkQ0j1nl+jeIFhED6XCYPV1Q+aJdj1vJmEy+/krfiwsXk/kPExZEsL8j6bK5pYD/fuP0Jl1X2UVdxDafldsE9R9Z0HwqvmeFxoXPMQd+48FFpy/qRrc+en6drSr9rQ4fy5HjxgZV6m8kbLnho1d64pvc0EGST9+L9tcTBzbCwfzci+gcjYMlFW/3a9itO/XxFcDBqJ+4+mi/d714EUwVfZeSAZuw6lYN+RVHz8ebqAdX33c46ES6iYhkaUiLenrPwO7t57PIBs9q4rzz3yFg2ahOQbYqR6+BTgz3O5+O70JXzxTRaOHs+QMuw9h1Ox+6CWY8nYtT8ZHx5MwUdHU3H4eLpqdvfLZUlm9/S7hpCIEqRksEVGDe4/aHqZq71z+q9QOLSgURvgXm3rXSZFUSsjNgMtTbrT2SuB8TDexPqgppieWQX2gWALe2r7+Vdvg6WKJaU1spnoeqQQawougL0E51wePiQI2iPBoeczqTzwUJf7wSM8NL4fsqae+CUPBXxHf95EZto7DLs+r8asxsGx8LY0Xv03PU9umrt3qbA8FAHO/2uri2Pg85lcSsHJWCmth7x81X6eXhCWDtKLRl6hZ0v4JqNSuqkypktv0pW8atn0rDihBdBSyXPNoQPn9uABwMOSipWmez3eMVonvW6kR0vxudCXvPlAKcD1+NfAz3wun8fn8mf+T3MuepH4HOJM8LbEh/p9/XzSiGMw93yZh/DpQ1HwWU3G/6s3H+M9qf9Wuzdbbn7NoY2l/9XzowzhvGrnxjUynZf+3TA30oK35jFz9LP03Ka+T7pT6ai6dQ8Md9FY4aFLzzBlOGU5ZTplu7l9ayzr6SWnMckwV1XVPSWDHj2yUKfU1BG3zv/pdaNSTYWP3jnmwHFOPMdIC+YVmjv76suxKvGG0jNIo530LC2vkSocrm1beWZJpf8KhaN1ltPxrQ4KOCjgoICDAg4KOCjQVhRwKBxtRWnHcxwUcFDAQQEHBRwU+AdTwKFw/IMX3zF1BwUcFHBQwEEBBwXaigIOhaOtKO14joMCDgo4KOCggIMC/2AKOBSOf/DiO6buoICDAg4KOCjgoEBbUcChcLQVpR3PcVDAQQEHBRwUcFDgH0wBh8LxD158x9QdFHBQwEEBBwUcFGgrCjgUjraitOM5Dgo4KOCggIMCDgr8gyngUDj+wYvvmLqDAg4KOCjgoICDAm1FAYfC0VaUdjzHQQEHBRwUcFDAQYF/MAUcCsc/ePEdU3dQwEEBBwUcFHBQoK0o4FA42orSjuc4KNCKFGA/hLbsiWBpKuz/0Bb9Niw93/H+46GAY90fD93/2576/wPtKmOOpwPZsgAAAABJRU5ErkJggg==;" vertex="1" parent="1">
          <mxGeometry x="410" y="870" width="93.11" height="20" as="geometry" />
        </mxCell>
        <mxCell id="NBOFakv1QSHkQPqulemf-7" value="" style="aspect=fixed;html=1;points=[];align=center;image;fontSize=12;image=img/lib/azure2/networking/Virtual_Networks.svg;" vertex="1" parent="1">
          <mxGeometry x="180" y="870" width="33.5" height="20" as="geometry" />
        </mxCell>
      </root>
    </mxGraphModel>
  </diagram>
</mxfile>
